<svg width="529" height="529" viewBox="0 0 529 529" fill="none" xmlns="http://www.w3.org/2000/svg">
<path d="M285.249 151.866C285.338 151.866 285.427 151.777 285.427 151.777V166.973V185.545L269.254 176.303L245.349 162.53C245.883 162.619 247.304 162.796 249.17 162.974C249.348 162.974 249.615 162.974 249.793 163.063C249.882 163.063 249.971 163.063 250.059 163.063C251.569 163.152 253.258 163.33 254.946 163.33C255.035 163.33 255.035 163.33 255.124 163.33C255.479 163.33 255.924 163.33 256.279 163.33H256.368C256.19 163.33 256.102 163.33 255.924 163.33C256.99 164.041 258.146 164.84 259.479 165.907C266.943 171.683 266.943 168.218 271.387 172.394C275.918 176.481 280.627 180.392 282.405 177.281C284.183 174.171 282.76 164.129 283.116 159.509C283.205 157.554 283.027 155.687 282.761 153.466C283.028 153.287 283.205 153.199 283.205 153.199C283.205 153.199 283.116 153.021 283.116 152.666C283.116 152.666 283.649 152.489 284.449 152.133C284.539 152.133 284.627 152.044 284.716 152.044C284.805 152.044 284.806 151.955 284.894 151.955C285.072 151.955 285.161 151.955 285.249 151.866ZM257.613 163.33C257.791 163.33 258.057 163.33 258.236 163.33C258.236 163.33 258.236 163.33 258.325 163.33C257.702 163.33 257.17 163.33 256.547 163.33C256.636 163.33 256.725 163.33 256.813 163.33C257.08 163.33 257.347 163.33 257.613 163.33ZM295.291 100.415C295.291 100.415 285.427 107.613 285.427 140.847V141.736C285.427 141.736 285.427 141.736 285.427 141.825C285.427 142.357 285.337 142.98 285.249 143.602C284.983 145.113 281.251 147.69 281.251 147.69C281.251 147.69 281.606 147.424 282.139 147.067C281.961 145.201 281.872 143.068 281.872 140.581C281.872 130.451 281.251 132.85 281.872 125.296C282.495 117.832 274.141 123.253 270.764 117.299C267.387 111.345 267.12 107.524 268.809 103.258C270.587 98.9927 272.275 91.9728 264.1 93.7503C255.925 95.6168 261.789 99.2598 253.08 95.1724C244.461 91.0841 242.15 101.037 241.795 106.013C241.351 110.99 243.394 112.944 240.995 118.987C238.596 125.03 239.129 132.228 239.041 135.871C238.952 139.514 241.618 142.18 240.995 145.645C240.817 147.067 240.995 149.288 241.618 151.599C245.883 151.954 251.482 152.399 255.836 152.755C249.616 152.311 240.64 151.599 237.085 151.156C236.73 151.156 236.375 151.067 236.108 151.067V131.872C236.108 131.872 236.997 87.0849 253.348 77.6652C253.259 77.666 273.964 98.7264 295.291 100.415ZM285.072 114.277C285.072 114.277 281.784 110.012 281.961 109.834C281.784 109.301 283.028 103.258 283.028 103.258L278.674 108.679L273.786 106.102L277.608 111.611C277.608 111.611 276.364 117.654 276.453 117.298C276.63 116.943 280.451 112.144 280.451 112.144L285.072 114.277Z" fill="#F7F7F7"/>
<path d="M193.455 263.123L228.467 283.294L222.957 286.493L186.968 265.7C188.301 264.278 189.367 262.767 190.078 261.167L193.455 263.123ZM370.913 160.753L353.94 150.888L328.082 165.906L379.977 195.853L383.976 193.542L405.925 180.923L370.913 160.753ZM163.419 275.741L202.518 298.313L216.647 290.138L181.635 269.877C176.837 272.809 170.528 274.942 163.419 275.741ZM156.487 272.187C137.383 272.187 121.92 263.3 121.92 252.37C121.92 252.281 121.92 252.104 121.92 252.015C122.275 241.263 137.56 232.554 156.487 232.554C160.931 232.554 165.107 232.998 169.017 233.887C181.902 236.731 191.055 243.928 191.055 252.37C191.055 263.3 175.593 272.187 156.487 272.187ZM187.323 252.37C187.323 242.595 173.46 234.686 156.487 234.686C139.425 234.686 125.563 242.595 125.563 252.37C125.563 262.145 139.425 270.054 156.487 270.054C173.549 270.054 187.323 262.145 187.323 252.37Z" fill="#F8FCFE"/>
<path d="M507.14 288.715V305.244L228.467 466.53L8.53125 338.656V326.037L228.555 452.844L507.14 288.715ZM152.933 236.908C148.757 237.264 144.847 238.063 141.47 239.396V265.434C144.847 266.677 148.757 267.566 152.933 267.922V236.908ZM170.35 238.952C166.884 237.797 163.063 237.085 158.887 236.819V267.922C163.064 267.744 166.973 266.944 170.35 265.788V238.952Z" fill="#0096DB"/>
<path d="M236.375 249.527C236.73 252.282 229.889 256.814 228.2 257.169C226.423 257.524 222.513 258.146 221.447 255.925C220.381 253.703 221.447 250.682 221.447 250.682C221.447 250.682 222.602 253.081 225.001 253.17C227.49 253.259 230.156 248.815 230.156 248.815L230.334 248.283C230.333 248.194 236.109 246.772 236.375 249.527ZM259.124 255.747C258.412 255.836 257.88 256.013 257.435 256.102C257.346 257.168 256.813 259.124 255.125 259.923H255.035C254.857 260.012 254.768 260.012 254.591 260.1H254.502C254.324 260.1 254.147 260.189 253.88 260.189C253.612 260.189 253.435 260.189 253.169 260.189C253.08 260.189 252.991 260.189 252.903 260.189C252.814 260.189 252.636 260.19 252.547 260.1C252.458 260.1 252.369 260.1 252.281 260.011C252.192 260.011 252.103 259.922 252.014 259.922C251.925 259.922 251.837 259.833 251.837 259.833C251.748 259.744 251.659 259.744 251.57 259.655C251.57 259.655 251.481 259.566 251.392 259.566C251.125 259.388 250.859 259.211 250.681 258.944L250.592 258.855C250.503 258.766 250.503 258.677 250.414 258.677C250.325 258.588 250.325 258.588 250.236 258.499C250.236 258.499 250.236 258.499 250.236 258.41C250.236 258.321 250.147 258.321 250.147 258.232C249.969 258.855 249.258 261.431 250.236 263.386C251.213 265.608 255.213 264.986 256.989 264.63C258.678 264.275 265.608 259.743 265.164 256.989C264.811 254.415 259.124 255.747 259.124 255.747ZM250.326 144.135L248.993 143.602L247.66 149.912L245.083 149.379L246.416 142.536L243.484 141.292L245.972 130.007L240.907 125.386L242.684 123.432L246.772 127.164L250.148 116.411L242.417 111.435L243.839 109.213L250.948 113.834L252.014 110.28L252.458 109.657C252.458 109.657 252.903 109.302 253.525 108.769L245.171 100.949L246.949 99.0826L255.657 107.169C259.477 104.148 265.521 99.3488 266.498 98.2829L268.364 100.06C267.831 100.682 265.699 102.37 263.298 104.326V111.613L268.542 121.033L266.231 122.277L260.811 112.591L260.633 111.968V106.459C257.878 108.68 255.213 110.812 254.324 111.524L252.991 115.878L255.39 120.943L260.633 130.54L265.787 123.787L278.317 129.563L277.25 131.962L266.675 127.075L262.054 133.118L267.564 143.869L278.85 138.005L280.094 140.315L255.834 152.844C257.256 152.933 258.5 153.022 259.566 153.11C260.988 153.199 261.965 153.288 262.232 153.288L281.337 147.602L281.426 147.691C281.426 147.691 281.782 147.424 282.315 147.068C282.138 145.202 282.049 143.069 282.049 140.582C282.049 130.451 281.426 132.85 282.049 125.297C282.67 117.833 274.318 123.253 270.941 117.3C267.563 111.346 267.297 107.525 268.985 103.259C270.763 98.9935 272.451 91.9737 264.275 93.7511C256.101 95.6176 261.964 99.2607 253.256 95.1733C244.637 91.0858 242.326 101.038 241.971 106.014C241.527 110.99 243.57 112.945 241.171 118.988C238.771 125.031 239.305 132.229 239.216 135.872C239.127 139.515 241.793 142.181 241.171 145.646C240.993 147.068 241.171 149.289 241.793 151.6C246.058 151.955 251.657 152.4 256.011 152.756L250.326 144.135ZM233.71 292.713L228.466 289.693L222.957 286.493L186.967 265.7C188.3 264.278 189.366 262.767 190.078 261.167C190.788 259.657 191.144 257.969 191.144 256.369V252.37C191.144 263.3 175.681 272.187 156.576 272.187C137.47 272.187 122.008 263.3 122.008 252.37V256.369C122.008 257.791 122.275 259.213 122.807 260.546C125.474 267.566 134.626 273.253 146.445 275.386C149.644 275.918 153.02 276.275 156.575 276.275C158.974 276.275 161.285 276.097 163.506 275.83C170.615 275.031 176.924 272.898 181.723 269.966L216.735 290.226L228.554 297.069L230.686 298.313C232.732 299.201 235.664 294.047 233.71 292.713ZM276.453 117.21C276.63 116.854 280.451 112.055 280.451 112.055L284.984 114.277C284.984 114.277 281.696 110.012 281.873 109.834C281.696 109.301 282.94 103.258 282.94 103.258L278.587 108.679L273.699 106.102L277.52 111.611C277.607 111.523 276.363 117.566 276.453 117.21ZM265.256 144.935L259.745 134.094L258.146 134.273V140.671L253.081 143.514L256.725 149.379L265.256 144.935ZM283.295 159.508C283.384 157.554 283.205 155.687 282.939 153.466C282.406 153.732 281.517 154.176 280.451 154.71C280.54 154.71 280.54 154.621 280.628 154.621L281.962 154.71L280.807 175.415L278.229 175.237L279.384 155.331C277.163 156.397 274.408 157.819 271.653 159.063C271.743 159.063 271.831 158.974 271.92 158.974H273.253V167.771L276.541 170.882L274.764 172.837L270.587 168.926V159.596C268.632 160.484 266.766 161.373 265.167 161.907C265.167 161.907 265.167 161.907 265.078 161.907C264.9 161.996 264.722 161.996 264.544 162.084C264.544 162.084 264.455 162.084 264.455 162.173C264.277 162.262 264.189 162.262 264.011 162.351C263.922 162.351 263.922 162.44 263.833 162.44C263.744 162.44 263.655 162.529 263.566 162.529C263.388 162.618 263.211 162.618 263.122 162.706C262.856 162.795 262.59 162.884 262.322 162.884C262.144 162.884 261.967 162.973 261.878 162.973C261.789 162.973 261.611 162.973 261.523 163.062C260.9 163.152 260.19 163.241 259.39 163.241C259.212 163.241 259.124 163.241 258.946 163.241C258.857 163.241 258.679 163.241 258.59 163.241H258.501C257.791 163.241 256.991 163.241 256.279 163.241C257.346 163.951 258.501 164.751 259.834 165.818C267.299 171.593 267.299 168.129 271.742 172.304C276.274 176.392 280.983 180.302 282.76 177.191C284.361 174.26 282.939 164.218 283.295 159.508ZM246.416 139.781L248.46 140.67L251.037 141.648L255.391 139.16V134.539L254.058 134.628L253.258 134.45L248.193 131.517L246.416 139.781ZM258.324 131.606L253.082 122.098V122.009L251.838 119.431L248.905 128.94L254.237 132.051L258.324 131.606Z" fill="#0096DB"/>
<path d="M281.872 154.71L280.717 175.415L278.14 175.237L279.295 155.332C279.739 155.154 280.095 154.977 280.451 154.799C280.54 154.799 280.54 154.71 280.628 154.71H281.872V154.71ZM273.076 158.976H271.743C271.653 158.976 271.564 159.065 271.475 159.065C271.12 159.243 270.764 159.42 270.409 159.509V168.839L274.585 172.749L276.362 170.795L273.075 167.685V158.976H273.076ZM280.006 140.226L255.746 152.755H255.657L250.326 144.047L248.993 143.513L247.66 149.822L245.083 149.289L246.416 142.446L243.483 141.291L245.971 130.006L240.906 125.385L242.684 123.431L246.771 127.163L250.148 116.41L242.417 111.434L243.839 109.212L250.948 113.833L252.014 110.279L252.458 109.656C252.458 109.656 252.902 109.301 253.525 108.768L245.171 100.948L246.948 99.0817L255.657 107.168C259.477 104.147 265.521 99.3479 266.498 98.282L268.364 100.059C267.831 100.681 265.699 102.369 263.298 104.325V111.612L268.541 121.032L266.23 122.276L260.811 112.59L260.633 111.967V106.458C257.877 108.679 255.212 110.811 254.323 111.523L252.99 115.877L255.389 120.943L260.633 130.54L265.786 123.786L278.316 129.562L277.249 131.961L266.675 127.074L262.054 133.117L267.563 143.869L278.85 138.004L280.006 140.226ZM248.905 128.94L254.236 132.051L258.235 131.606L252.992 122.098V122.009L251.748 119.431L248.905 128.94ZM251.126 141.559L255.48 139.071V134.45L254.147 134.539L253.347 134.361L248.282 131.428L246.416 139.603L248.46 140.492L251.126 141.559ZM265.255 144.935L259.745 134.094L258.145 134.273V140.671L253.08 143.514L256.724 149.379L265.255 144.935Z" fill="white"/>
<path d="M256.104 259.302C256.014 259.391 255.925 259.48 255.836 259.568C255.925 259.48 256.014 259.391 256.104 259.302ZM256.281 259.124C256.281 259.213 256.192 259.213 256.104 259.302C256.192 259.213 256.192 259.213 256.281 259.124ZM256.547 258.768C256.458 258.857 256.369 259.035 256.28 259.124C256.37 259.035 256.458 258.857 256.547 258.768ZM256.725 258.502C256.636 258.591 256.636 258.68 256.547 258.768C256.636 258.679 256.636 258.59 256.725 258.502ZM255.659 259.657C255.481 259.746 255.304 259.835 255.126 259.924C255.392 259.834 255.481 259.746 255.659 259.657ZM255.659 259.657C255.748 259.657 255.748 259.568 255.836 259.568C255.747 259.568 255.747 259.657 255.659 259.657ZM327.993 165.907L319.818 179.592L290.049 229.177L256.637 210.96C255.837 210.782 255.038 210.694 254.238 210.605L257.526 255.392C257.526 255.392 257.526 256.991 256.815 258.324C257.259 257.524 257.437 256.725 257.437 256.102C257.882 255.924 258.414 255.835 259.126 255.747C259.126 255.747 264.813 254.325 265.169 257.08C265.525 259.835 258.682 264.367 256.994 264.722C255.217 265.078 251.306 265.7 250.24 263.478C249.352 261.524 249.974 258.946 250.151 258.324C250.151 258.413 250.24 258.413 250.24 258.502C249.796 257.791 249.708 257.169 249.708 257.169L240.91 216.558L230.158 248.549L230.336 248.016C230.336 248.016 236.023 246.594 236.379 249.349C236.735 252.105 229.892 256.636 228.204 256.992C226.427 257.347 222.516 257.969 221.45 255.748C220.385 253.527 221.45 250.504 221.45 250.504L227.582 219.936C201.901 236.731 193.459 263.035 193.459 263.035L228.471 283.207V289.516L233.714 292.537C235.669 293.959 232.737 299.023 230.604 298.047L228.471 296.803V335.102L236.203 330.57V337.324L250.776 345.765C243.933 340.967 240.112 331.458 240.112 319.728C240.112 296.802 253.886 266.232 280.012 249.616L286.232 246.062C311.47 232.11 325.864 246.24 326.309 270.054C326.309 275.564 325.51 281.429 323.999 287.472L332.441 292.359V275.12L379.982 195.942V195.853L327.993 165.907ZM256.725 258.502C256.725 258.413 256.814 258.413 256.814 258.324C256.725 258.413 256.725 258.502 256.725 258.502ZM202.518 384.332V367.359L187.767 375.801L202.518 384.332ZM156.488 276.186C152.934 276.186 149.557 275.918 146.357 275.297L102.903 347.542V364.782L154.888 394.284V377.578L202.429 298.401V298.312L163.329 275.74C161.197 276.008 158.887 276.186 156.488 276.186ZM405.925 223.845V232.821L408.591 231.311L413.745 228.378L405.925 223.845ZM284.717 270.232L281.607 272.009C269.522 279.296 261.169 295.736 261.169 307.733C261.169 319.285 268.722 326.66 281.607 319.818L284.717 318.04C297.157 310.487 305.156 294.403 305.156 282.318C305.155 270.854 297.691 263.389 284.717 270.232ZM202.518 350.119V330.836L184.835 360.338L202.518 350.119ZM379.978 281.695V264.989L365.316 273.43L379.978 281.695ZM379.978 247.749V228.466L362.294 257.88L379.978 247.749Z" fill="#D0E7DF"/>
<path d="M236.197 126.896C236.019 130.006 235.93 131.873 235.93 131.873L233.887 130.717C233.976 130.717 235.397 127.429 236.197 126.896ZM225.267 145.113C226.155 143.958 227.221 141.914 226.955 138.803C226.511 133.916 224.289 130.361 224.289 130.361C224.289 130.361 220.29 134.183 220.912 135.693C221.534 137.203 222.511 139.336 222.511 139.336C222.511 139.336 222.422 139.069 220.645 138.27C218.867 137.47 217.89 139.425 219.312 141.202C220.734 142.98 222.689 142.802 222.689 142.802L220.822 143.157L224.288 146.179C224.29 146.09 224.733 145.824 225.267 145.113ZM214.515 147.601V150.356V152.222C214.515 152.222 216.026 153.11 219.669 153.287C223.223 153.466 226.956 149.822 226.956 149.822L224.29 146.179C224.29 146.09 220.113 148.489 214.515 147.601ZM289.515 140.847C288.449 140.137 285.516 140.847 285.516 140.847C285.516 140.847 285.516 141.202 285.516 141.736C285.516 141.736 285.516 141.736 285.516 141.825C285.516 142.269 285.427 142.891 285.338 143.602C285.072 145.113 281.34 147.69 281.34 147.69C281.34 147.69 281.34 147.69 281.429 147.779C281.518 147.868 281.607 147.957 281.696 148.134C281.696 148.223 281.785 148.223 281.785 148.312C281.874 148.401 281.962 148.578 282.052 148.757C282.496 149.645 282.941 150.889 283.207 151.866C283.297 152.311 283.385 152.666 283.474 152.933C283.474 152.933 284.007 152.755 284.807 152.4C284.896 152.4 284.985 152.311 285.074 152.311C285.163 152.311 285.163 152.222 285.252 152.222C285.34 152.222 285.341 152.132 285.43 152.132C286.851 151.421 288.628 150.355 290.05 148.667C292.27 145.291 290.491 141.559 289.515 140.847Z" fill="#FFD2BB"/>
<path d="M507.14 288.715L228.467 452.844L8.53125 326.038L122.72 260.457C125.386 267.477 134.539 273.164 146.358 275.297L102.904 347.541V364.782L154.889 394.284V394.816L187.768 375.889L202.519 384.42L207.496 381.576L228.467 369.491V352.518L236.199 347.985V337.499L250.773 345.94C257.703 350.739 267.657 350.917 280.009 343.986L286.23 340.432C306.134 327.724 318.931 307.019 323.907 287.647L332.349 292.534L334.215 291.468L365.228 273.607L379.89 281.871V282.138L405.838 267.208V250.235L413.57 245.792V234.507L507.14 288.715ZM256.636 210.96L290.047 229.177L319.817 179.592L291.915 163.33L285.517 167.062V185.634L269.255 176.303L252.371 185.989L254.149 210.604C255.036 210.694 255.836 210.783 256.636 210.96ZM191.055 252.37V256.369C191.055 258.058 190.699 259.657 189.989 261.167L193.366 263.123C193.366 263.123 201.897 236.908 227.489 220.024L231.932 197.631L168.839 233.887C181.902 236.73 191.055 243.928 191.055 252.37Z" fill="#EDEDED"/>
<path d="M212.648 154.621C211.937 152.844 214.515 150.533 214.603 150.356V152.222C214.603 152.222 216.113 153.11 219.757 153.287C223.312 153.466 227.044 149.822 227.044 149.822L230.155 150.355C230.155 150.355 224.645 156.309 221.357 156.664C217.981 157.02 213.36 156.399 212.648 154.621ZM221.446 250.594C221.446 250.594 222.6 252.993 225 253.082C227.488 253.171 230.155 248.728 230.155 248.728L240.907 216.738L249.705 257.348C249.705 257.348 249.794 257.97 250.237 258.681C250.237 258.681 250.237 258.681 250.237 258.77C250.237 258.859 250.326 258.859 250.415 258.948C250.504 259.037 250.504 259.126 250.593 259.126L250.682 259.215C250.861 259.393 251.127 259.66 251.394 259.838C251.394 259.838 251.483 259.927 251.571 259.927C251.66 260.016 251.749 260.016 251.838 260.105C251.927 260.105 252.016 260.194 252.016 260.194C252.105 260.194 252.194 260.283 252.283 260.283C252.372 260.283 252.461 260.372 252.549 260.372C252.637 260.372 252.815 260.372 252.904 260.461C252.993 260.461 253.082 260.461 253.171 260.461C253.349 260.461 253.615 260.461 253.881 260.461C254.059 260.461 254.325 260.372 254.504 260.372H254.593C254.77 260.372 254.859 260.283 255.037 260.194H255.126C257.525 259.128 257.437 255.662 257.437 255.662L254.149 210.875L252.372 186.26V185.905V185.816C252.283 187.06 252.016 188.127 251.483 188.837C247.928 193.281 238.42 196.479 233.621 189.993L232.022 197.902L227.578 220.295L221.446 250.594ZM326.393 270.143C326.393 275.651 325.593 281.516 324.082 287.559C319.106 306.843 306.31 327.637 286.405 340.344L280.184 343.899C267.832 350.829 257.791 350.741 250.948 345.854C244.105 341.055 240.284 331.546 240.284 319.818C240.284 296.891 254.058 266.322 280.183 249.705L286.404 246.15C311.553 232.198 325.949 246.328 326.393 270.143ZM305.154 282.318C305.154 270.854 297.601 263.389 284.716 270.232L281.606 272.009C269.521 279.296 261.167 295.736 261.167 307.733C261.167 319.285 268.72 326.66 281.606 319.818L284.716 318.04C297.157 310.486 305.154 294.403 305.154 282.318ZM413.745 228.288V234.242V245.527L406.014 249.971V266.943L380.065 281.873V281.695V264.989L365.402 273.43L334.389 291.293L332.523 292.359V275.12L380.065 195.943V195.853L384.064 193.543L406.014 180.924V223.845V232.82L408.679 231.31L413.745 228.288ZM379.977 228.555L362.294 257.968L379.977 247.748V228.555ZM228.466 335.19L236.198 330.658V337.411V347.898L228.466 352.43V369.403L207.495 381.488L202.518 384.333V367.36L187.767 375.802L154.888 394.729V394.197V377.491L202.429 298.314V298.225L216.558 290.049L228.376 296.892V335.191H228.466V335.19ZM202.518 330.925L184.834 360.338L202.518 350.119V330.925ZM156.487 270.054C139.425 270.054 125.562 262.145 125.562 252.37C125.562 242.595 139.425 234.686 156.487 234.686C173.549 234.686 187.322 242.595 187.322 252.37C187.322 262.145 173.549 270.054 156.487 270.054ZM158.887 267.922C163.063 267.744 166.973 266.944 170.349 265.788V238.952C166.884 237.797 163.062 237.086 158.887 236.819V267.922ZM152.933 236.908C148.757 237.264 144.846 238.063 141.47 239.396V265.434C144.846 266.677 148.757 267.566 152.933 267.922V236.908Z" fill="#0096DB"/>
<path d="M212.027 138.803C211.672 138.803 211.316 138.803 211.049 138.803C210.96 138.803 210.871 138.803 210.783 138.803C210.517 138.803 210.339 138.803 210.072 138.714C209.983 138.714 209.894 138.714 209.805 138.714C209.539 138.714 209.361 138.625 209.095 138.625C209.006 138.625 208.917 138.625 208.917 138.625C208.65 138.536 208.384 138.536 208.117 138.448C208.117 138.448 208.117 138.448 208.028 138.448C204.473 137.381 202.34 134.804 201.985 131.961C201.63 128.14 202.34 122.63 209.005 119.787C215.669 117.032 216.292 121.209 217.624 120.497C218.957 119.787 219.668 116.943 221.8 117.121C223.933 117.298 229.709 121.297 230.064 125.474C230.42 129.561 224.288 130.628 224.288 130.628C221.535 132.139 217.892 138.803 212.027 138.803ZM283.206 152.755C283.117 152.489 283.029 152.132 282.94 151.689C282.672 150.711 282.317 149.467 281.784 148.578C281.695 148.4 281.606 148.312 281.517 148.134C281.517 148.045 281.428 148.045 281.428 147.956C281.338 147.867 281.25 147.69 281.161 147.601L281.071 147.512L261.966 153.199C261.788 153.199 260.811 153.11 259.301 153.021C258.235 152.932 256.99 152.843 255.569 152.755H255.48C249.26 152.311 240.285 151.599 236.73 151.156C236.285 151.067 235.841 151.067 235.574 150.977C235.663 150.977 235.663 150.977 235.752 150.977V131.783L233.708 130.628C233.708 130.628 231.575 140.314 229.887 142.18C228.199 143.958 225.088 145.024 225 145.024C224.467 145.735 224.022 146.001 224.022 146.001L226.688 149.644L229.798 150.178C229.798 150.178 224.288 156.131 221.001 156.487C217.713 156.843 213.092 156.31 212.382 154.443C212.382 154.443 213.803 160.574 220.29 170.616C224.644 177.458 230.242 185.19 233.442 189.632C238.241 196.208 247.75 192.92 251.304 188.477C251.837 187.766 252.103 186.699 252.192 185.455V185.544C252.459 177.991 244.994 162.351 244.994 162.351C244.994 162.351 245.083 162.351 245.35 162.351C245.883 162.44 247.304 162.617 249.171 162.795C249.349 162.795 249.615 162.795 249.793 162.884C249.882 162.884 249.971 162.884 250.06 162.884C251.57 162.973 253.258 163.152 254.947 163.152C255.036 163.152 255.036 163.152 255.125 163.152C255.48 163.152 255.924 163.152 256.281 163.152C256.37 163.152 256.547 163.152 256.636 163.152C256.902 163.152 257.169 163.152 257.436 163.152C257.614 163.152 257.88 163.152 258.058 163.152C258.147 163.152 258.147 163.152 258.236 163.152C258.325 163.152 258.502 163.152 258.591 163.152C258.77 163.152 258.859 163.152 259.036 163.152C259.746 163.062 260.457 163.062 261.169 162.973C261.258 162.973 261.435 162.973 261.524 162.884C261.702 162.884 261.879 162.795 261.968 162.795C262.235 162.706 262.502 162.706 262.768 162.617C262.946 162.528 263.034 162.528 263.212 162.439C263.301 162.439 263.39 162.35 263.479 162.35C263.568 162.35 263.568 162.261 263.657 162.261C263.746 162.172 263.923 162.172 264.101 162.083C264.101 162.083 264.19 162.083 264.19 161.994C264.368 161.905 264.545 161.905 264.723 161.816C264.723 161.816 264.723 161.816 264.812 161.816C266.322 161.193 268.188 160.394 270.232 159.505C270.587 159.328 270.944 159.15 271.299 159.061C274.053 157.817 276.808 156.395 279.03 155.329C279.475 155.15 279.83 154.973 280.185 154.795C281.341 154.263 282.229 153.818 282.673 153.551C282.94 153.374 283.118 153.285 283.118 153.285C283.118 153.285 283.295 153.022 283.206 152.755Z" fill="#C4C2C2"/>
<path d="M222.69 142.714C222.69 142.714 220.824 142.891 219.314 141.114C217.891 139.337 218.869 137.382 220.647 138.182C222.424 138.982 222.513 139.248 222.513 139.248C222.513 139.248 221.535 137.115 220.914 135.605C220.291 134.094 224.291 130.273 224.291 130.273C221.535 132.051 217.892 138.626 212.116 138.626C211.761 138.626 211.406 138.626 211.14 138.626C211.051 138.626 210.961 138.626 210.872 138.626C210.606 138.626 210.428 138.626 210.162 138.537C210.073 138.537 209.984 138.537 209.896 138.537C209.629 138.537 209.451 138.448 209.184 138.448C209.095 138.448 209.007 138.448 209.007 138.448C208.74 138.359 208.473 138.359 208.207 138.27C208.207 138.27 208.207 138.27 208.118 138.27C205.275 137.381 203.32 135.604 202.52 133.471C203.497 136.937 206.163 144.935 211.672 146.889C218.692 149.377 224.38 146.179 224.38 146.179L220.914 143.157L222.69 142.714Z" fill="#394450"/>
</svg>
