<svg width="476" height="249" viewBox="0 0 476 249" fill="none" xmlns="http://www.w3.org/2000/svg">
<g clip-path="url(#clip0)">
<path d="M462.563 133.538C461.832 133.116 461.203 132.538 460.72 131.847C460.236 131.156 459.91 130.367 459.765 129.536C459.62 128.705 459.658 127.852 459.878 127.038C460.098 126.223 460.494 125.467 461.038 124.822L455.02 80.844L467.557 81.4593L469.525 124.355C470.549 125.341 471.175 126.667 471.286 128.083C471.396 129.499 470.983 130.907 470.125 132.039C469.266 133.171 468.022 133.949 466.629 134.225C465.235 134.501 463.788 134.257 462.563 133.538Z" fill="#FFB8B8"/>
<path d="M469.277 82.042C469.02 82.3446 468.691 82.5774 468.32 82.7188L457.053 87.0173C456.488 87.2333 455.86 87.2242 455.301 86.9919C454.742 86.7596 454.293 86.3217 454.047 85.7685L444.066 63.3463C443.108 61.2663 442.945 58.9076 443.608 56.7157C444.098 55.1513 445.001 53.748 446.222 52.6537C447.443 51.5594 448.936 50.8146 450.545 50.4979C451.783 50.2432 453.061 50.2613 454.291 50.5508C455.764 50.8792 457.133 51.5697 458.272 52.5599C459.412 53.55 460.286 54.8086 460.816 56.2217L469.69 79.6724C469.839 80.0683 469.879 80.4968 469.807 80.9134C469.734 81.3301 469.551 81.7197 469.277 82.042Z" fill="#CCCCCC"/>
<path d="M410.566 240.878H402.77L399.943 210.679L410.566 210.821V240.878Z" fill="#FFB8B8"/>
<path d="M397.202 238.652H412.234V248.115H387.735C387.735 245.605 388.732 243.198 390.507 241.424C392.282 239.649 394.69 238.652 397.201 238.652H397.202Z" fill="#2F2E41"/>
<path d="M446.809 240.879H439.014L435.305 210.821H446.81L446.809 240.879Z" fill="#FFB8B8"/>
<path d="M433.446 238.652H448.477V248.115H423.978C423.978 245.605 424.975 243.198 426.751 241.424C428.526 239.649 430.933 238.652 433.444 238.652H433.446Z" fill="#2F2E41"/>
<path d="M447.789 230.184L435.548 229.278C434.851 229.227 434.197 228.922 433.709 228.423C433.221 227.923 432.932 227.262 432.897 226.564L430.168 170.164C430.141 169.623 429.919 169.11 429.541 168.721C429.163 168.333 428.657 168.095 428.117 168.053C427.576 168.011 427.039 168.168 426.606 168.494C426.173 168.819 425.874 169.292 425.765 169.822L414.377 225.382C414.236 226.065 413.85 226.674 413.292 227.093C412.734 227.513 412.042 227.714 411.346 227.659L400.278 226.774C399.904 226.744 399.539 226.64 399.204 226.469C398.87 226.299 398.572 226.063 398.328 225.777C398.085 225.492 397.9 225.16 397.784 224.803C397.668 224.446 397.624 224.069 397.654 223.695C397.656 223.676 397.657 223.657 397.659 223.638L407.927 120.998C407.967 120.597 408.091 120.209 408.292 119.859C408.493 119.51 408.765 119.206 409.092 118.969C409.418 118.732 409.79 118.567 410.185 118.484C410.58 118.401 410.988 118.402 411.382 118.488L450.426 126.973C451.072 127.115 451.65 127.476 452.06 127.994C452.471 128.513 452.689 129.158 452.679 129.819L450.861 227.385C450.847 228.133 450.54 228.846 450.006 229.371C449.473 229.896 448.755 230.191 448.007 230.193C447.934 230.192 447.862 230.189 447.789 230.184Z" fill="#2F2E41"/>
<path d="M437.078 35.1794C445.703 35.1794 452.695 28.1897 452.695 19.5676C452.695 10.9454 445.703 3.95573 437.078 3.95573C428.453 3.95573 421.461 10.9454 421.461 19.5676C421.461 28.1897 428.453 35.1794 437.078 35.1794Z" fill="#FFB8B8"/>
<path d="M412.847 128.915C411.346 127.568 410.154 125.913 409.353 124.062C408.553 122.212 408.163 120.21 408.21 118.194C408.21 95.7551 427.639 45.6217 428.247 44.0604C428.304 43.6836 428.817 43.5208 431.509 41.7045C434.201 39.8882 438.08 39.6076 443.043 40.8746C443.547 41.0037 444.006 41.2686 444.371 41.6406C444.735 42.0125 444.99 42.4772 445.109 42.9841L446.032 44.3171C446.112 44.6554 446.271 44.9701 446.496 45.2358C446.72 45.5014 447.004 45.7106 447.324 45.8465C451.326 47.5319 464.046 55.3037 459.711 84.5516C455.685 111.721 454.051 127.696 453.536 133.308C453.475 133.974 453.183 134.597 452.709 135.069C452.236 135.541 451.612 135.833 450.947 135.892C448.985 136.068 445.617 136.302 441.609 136.302C432.308 136.299 419.556 135.046 412.847 128.915Z" fill="#0096DB"/>
<path d="M394.187 120.601C393.815 119.844 393.614 119.014 393.598 118.171C393.582 117.327 393.751 116.491 394.094 115.72C394.436 114.949 394.944 114.262 395.58 113.708C396.217 113.155 396.967 112.747 397.779 112.515L417.294 72.6447L427.362 80.1392L405.087 116.855C405.388 118.243 405.169 119.694 404.472 120.932C403.774 122.169 402.646 123.108 401.303 123.57C399.959 124.032 398.492 123.985 397.181 123.438C395.869 122.89 394.804 121.881 394.188 120.601H394.187Z" fill="#FFB8B8"/>
<path d="M428.464 81.584C428.082 81.6922 427.679 81.7022 427.292 81.613L415.54 78.9065C414.95 78.7707 414.434 78.4138 414.099 77.9094C413.764 77.405 413.635 76.7914 413.739 76.1949L417.953 52.0167C418.316 49.7558 419.495 47.7063 421.267 46.2553C422.546 45.2293 424.079 44.5672 425.702 44.3387C427.326 44.1102 428.982 44.3238 430.494 44.957C431.664 45.4348 432.715 46.1616 433.575 47.0869C434.615 48.1804 435.366 49.516 435.761 50.9729C436.155 52.4298 436.179 53.9619 435.832 55.4307L430.129 79.8445C430.032 80.2566 429.826 80.6353 429.533 80.9412C429.241 81.2471 428.871 81.469 428.464 81.584H428.464Z" fill="#CCCCCC"/>
<path d="M433.421 33.6732C432.661 32.8981 432.1 31.9506 431.786 30.9117C431.471 29.8728 431.413 28.7732 431.616 27.7069C432.16 24.8609 432.48 22.9968 432.541 22.3189C432.748 20.0006 430.404 18.1234 428.084 17.8223C427.994 17.8103 427.919 17.8029 427.856 17.7978C427.913 17.8547 427.979 17.9151 428.035 17.9686C428.475 18.3824 429.024 18.8975 428.893 19.4291C428.815 19.749 428.522 19.9761 427.999 20.1224C424.371 21.1373 421.576 20.2055 419.205 17.1882C418.538 16.3308 418.08 15.3302 417.866 14.2654C417.017 10.0989 419.28 6.54716 421.328 4.30169C423.018 2.45011 425.756 0.203499 429.209 0.00997354C431.894 -0.139724 435.088 1.40506 436.042 4.18899C436.492 3.52186 437.093 2.96882 437.794 2.57364C438.496 2.17847 439.28 1.95202 440.084 1.91221C441.918 1.87247 443.722 2.37419 445.272 3.35456C452.845 7.69067 456.099 18.0204 452.378 25.9117C450.038 30.8756 444.968 34.5708 439.146 35.5555C438.782 35.6174 438.413 35.6486 438.044 35.6488C437.179 35.6474 436.324 35.4719 435.53 35.1328C434.735 34.7938 434.016 34.2981 433.417 33.6755L433.421 33.6732Z" fill="#2F2E41"/>
<path d="M207.058 111.317C206.73 110.537 206.18 109.871 205.477 109.4C204.773 108.93 203.947 108.676 203.101 108.67H124.115C122.979 108.671 121.891 109.122 121.088 109.924C120.285 110.727 119.834 111.815 119.833 112.95V212.844C119.834 213.979 120.285 215.067 121.088 215.87C121.891 216.672 122.979 217.123 124.115 217.124H203.104C204.239 217.123 205.327 216.671 206.13 215.869C206.933 215.066 207.384 213.978 207.386 212.844V112.95C207.388 112.39 207.277 111.834 207.061 111.317H207.058ZM206.432 212.844C206.431 213.727 206.08 214.573 205.455 215.197C204.831 215.821 203.984 216.172 203.101 216.174H124.115C123.231 216.173 122.384 215.823 121.76 215.198C121.135 214.574 120.784 213.727 120.784 212.844V112.951C120.785 112.068 121.136 111.222 121.761 110.598C122.385 109.974 123.232 109.622 124.115 109.621H203.104C203.769 109.624 204.419 109.824 204.969 110.197C205.52 110.57 205.947 111.099 206.196 111.716C206.244 111.839 206.286 111.964 206.321 112.091C206.397 112.372 206.435 112.661 206.435 112.951L206.432 212.844Z" fill="#3F3D56"/>
<path d="M190.575 132.255H166.783C166.278 132.255 165.794 132.054 165.437 131.697C165.08 131.34 164.88 130.856 164.88 130.352C164.88 129.847 165.08 129.363 165.437 129.006C165.794 128.649 166.278 128.449 166.783 128.449H190.575C191.08 128.449 191.564 128.649 191.921 129.006C192.278 129.363 192.479 129.847 192.479 130.352C192.479 130.856 192.278 131.34 191.921 131.697C191.564 132.054 191.08 132.255 190.575 132.255Z" fill="#004F73"/>
<path d="M190.575 142.244H166.783C166.278 142.244 165.794 142.044 165.437 141.687C165.08 141.33 164.88 140.846 164.88 140.341C164.88 139.837 165.08 139.353 165.437 138.996C165.794 138.639 166.278 138.438 166.783 138.438H190.575C191.08 138.438 191.564 138.639 191.921 138.996C192.278 139.353 192.479 139.837 192.479 140.341C192.479 140.846 192.278 141.33 191.921 141.687C191.564 142.044 191.08 142.244 190.575 142.244Z" fill="#004F73"/>
<path d="M154.576 147.932H137.189C136.621 147.931 136.077 147.705 135.675 147.304C135.274 146.903 135.048 146.359 135.047 145.791V125.28C135.048 124.712 135.274 124.168 135.675 123.767C136.077 123.365 136.621 123.139 137.189 123.139H154.576C155.144 123.139 155.688 123.365 156.089 123.767C156.491 124.168 156.717 124.712 156.717 125.28V145.791C156.717 146.359 156.491 146.903 156.089 147.304C155.688 147.705 155.144 147.931 154.576 147.932Z" fill="#0096DB"/>
<path d="M190.41 162.698H136.641C136.136 162.698 135.652 162.498 135.295 162.141C134.938 161.784 134.737 161.3 134.737 160.796C134.737 160.291 134.938 159.807 135.295 159.45C135.652 159.093 136.136 158.893 136.641 158.893H190.41C190.66 158.893 190.908 158.942 191.139 159.038C191.37 159.133 191.579 159.273 191.756 159.45C191.933 159.627 192.073 159.836 192.169 160.067C192.264 160.298 192.314 160.546 192.314 160.796C192.314 161.045 192.264 161.293 192.169 161.524C192.073 161.755 191.933 161.964 191.756 162.141C191.579 162.318 191.37 162.458 191.139 162.553C190.908 162.649 190.66 162.698 190.41 162.698Z" fill="#CCCCCC"/>
<path d="M190.41 172.688H136.641C136.136 172.688 135.652 172.487 135.295 172.13C134.938 171.774 134.737 171.29 134.737 170.785C134.737 170.28 134.938 169.796 135.295 169.439C135.652 169.083 136.136 168.882 136.641 168.882H190.41C190.915 168.882 191.399 169.083 191.756 169.439C192.113 169.796 192.314 170.28 192.314 170.785C192.314 171.29 192.113 171.774 191.756 172.13C191.399 172.487 190.915 172.688 190.41 172.688Z" fill="#CCCCCC"/>
<path d="M190.41 182.677H136.641C136.136 182.677 135.652 182.477 135.295 182.12C134.938 181.763 134.737 181.279 134.737 180.774C134.737 180.27 134.938 179.786 135.295 179.429C135.652 179.072 136.136 178.871 136.641 178.871H190.41C190.915 178.871 191.399 179.072 191.756 179.429C192.113 179.786 192.314 180.27 192.314 180.774C192.314 181.279 192.113 181.763 191.756 182.12C191.399 182.477 190.915 182.677 190.41 182.677Z" fill="#CCCCCC"/>
<path d="M190.41 192.666H136.641C136.136 192.666 135.652 192.466 135.295 192.109C134.938 191.752 134.737 191.268 134.737 190.764C134.737 190.259 134.938 189.775 135.295 189.418C135.652 189.061 136.136 188.861 136.641 188.861H190.41C190.915 188.861 191.399 189.061 191.756 189.418C192.113 189.775 192.314 190.259 192.314 190.764C192.314 191.268 192.113 191.752 191.756 192.109C191.399 192.466 190.915 192.666 190.41 192.666Z" fill="#CCCCCC"/>
<path d="M190.41 202.656H136.641C136.136 202.656 135.652 202.455 135.295 202.098C134.938 201.742 134.737 201.258 134.737 200.753C134.737 200.248 134.938 199.764 135.295 199.407C135.652 199.051 136.136 198.85 136.641 198.85H190.41C190.915 198.85 191.399 199.051 191.756 199.407C192.113 199.764 192.314 200.248 192.314 200.753C192.314 201.258 192.113 201.742 191.756 202.098C191.399 202.455 190.915 202.656 190.41 202.656Z" fill="#CCCCCC"/>
<path d="M364.402 249H475.431C475.582 249 475.726 248.94 475.833 248.833C475.94 248.726 476 248.582 476 248.431C476 248.28 475.94 248.135 475.833 248.028C475.726 247.922 475.582 247.862 475.431 247.862H364.402C364.251 247.862 364.107 247.922 364 248.028C363.893 248.135 363.833 248.28 363.833 248.431C363.833 248.582 363.893 248.726 364 248.833C364.107 248.94 364.251 249 364.402 249Z" fill="#3F3D56"/>
<path d="M164.946 84.6016C175.091 84.6016 183.315 76.3801 183.315 66.2383C183.315 56.0966 175.091 47.875 164.946 47.875C154.801 47.875 146.577 56.0966 146.577 66.2383C146.577 76.3801 154.801 84.6016 164.946 84.6016Z" fill="#0096DB"/>
<path d="M163.126 73.2434C162.712 73.2441 162.31 73.1105 161.98 72.8626L161.959 72.8473L157.642 69.5459C157.442 69.3928 157.274 69.2017 157.147 68.9836C157.021 68.7655 156.939 68.5247 156.906 68.2748C156.873 68.025 156.889 67.7711 156.954 67.5276C157.019 67.2841 157.132 67.0558 157.285 66.8558C157.438 66.6558 157.63 66.488 157.848 66.3619C158.066 66.2359 158.307 66.1541 158.557 66.1212C158.807 66.0883 159.061 66.1051 159.305 66.1704C159.548 66.2357 159.777 66.3483 159.976 66.5019L162.773 68.6455L169.38 60.0279C169.69 59.6244 170.147 59.3603 170.651 59.2938C171.155 59.2272 171.665 59.3635 172.069 59.6729L172.069 59.6733L172.028 59.7302L172.071 59.6733C172.474 59.9831 172.738 60.4401 172.804 60.9441C172.871 61.4481 172.734 61.9579 172.425 62.3616L164.653 72.4932C164.473 72.7267 164.242 72.9156 163.978 73.0453C163.713 73.175 163.422 73.242 163.127 73.2411L163.126 73.2434Z" fill="white"/>
<path d="M44.0107 57.8497C50.8853 57.8497 56.4583 52.2785 56.4583 45.406C56.4583 38.5336 50.8853 32.9623 44.0107 32.9623C37.136 32.9623 31.563 38.5336 31.563 45.406C31.563 52.2785 37.136 57.8497 44.0107 57.8497Z" fill="#CCCCCC"/>
<path d="M42.7764 50.1524C42.4964 50.1529 42.2238 50.0624 41.9998 49.8945L41.9861 49.8843L39.0607 47.6451C38.795 47.4328 38.6231 47.1249 38.5818 46.7874C38.5406 46.4499 38.6334 46.1097 38.8402 45.8397C39.0471 45.5698 39.3515 45.3917 39.6882 45.3436C40.0249 45.2954 40.367 45.3812 40.6412 45.5823L42.5361 47.0349L47.0137 41.1973C47.2234 40.9239 47.5331 40.745 47.8747 40.6999C48.2164 40.6548 48.5619 40.7472 48.8354 40.9568L48.8357 40.9571L48.8078 40.9946L48.8363 40.9576C49.1094 41.1676 49.2881 41.4772 49.3331 41.8187C49.3782 42.1602 49.2859 42.5055 49.0765 42.7791L43.8098 49.6458C43.688 49.8041 43.5314 49.9321 43.3521 50.0201C43.1728 50.1081 42.9756 50.1535 42.7758 50.153L42.7764 50.1524Z" fill="white"/>
<path d="M78.9904 74.5828C78.7318 73.9694 78.2992 73.4453 77.7458 73.0752C77.1925 72.705 76.5428 72.5051 75.877 72.5001H13.7235C12.8301 72.5006 11.9735 72.8555 11.3418 73.4871C10.71 74.1186 10.3549 74.9749 10.3545 75.868V154.47C10.3549 155.363 10.71 156.219 11.3418 156.85C11.9735 157.482 12.8301 157.837 13.7235 157.837H75.877C76.7702 157.836 77.6264 157.481 78.2579 156.85C78.8895 156.218 79.2448 155.362 79.246 154.47V75.868C79.2474 75.4269 79.1605 74.9899 78.9904 74.5828ZM78.4979 154.47C78.4965 155.164 78.2201 155.829 77.7292 156.32C77.2384 156.811 76.573 157.087 75.8787 157.088H13.7235C13.0289 157.088 12.3627 156.813 11.8715 156.321C11.3803 155.83 11.1044 155.164 11.1044 154.47V75.868C11.1057 75.174 11.3821 74.5088 11.873 74.0181C12.3639 73.5274 13.0293 73.2511 13.7235 73.2497H75.877C76.4008 73.2519 76.912 73.4101 77.3454 73.7041C77.7787 73.9981 78.1146 74.4146 78.31 74.9004C78.3481 74.997 78.3809 75.0957 78.4085 75.1958C78.4681 75.4163 78.4984 75.6436 78.4985 75.872L78.4979 154.47Z" fill="#CCCCCC"/>
<path d="M66.0181 91.058H47.2971C46.8998 91.058 46.5189 90.9002 46.238 90.6195C45.9571 90.3387 45.7993 89.9578 45.7993 89.5607C45.7993 89.1636 45.9571 88.7828 46.238 88.502C46.5189 88.2212 46.8998 88.0635 47.2971 88.0635H66.0175C66.4147 88.0635 66.7957 88.2212 67.0766 88.502C67.3575 88.7828 67.5152 89.1636 67.5152 89.5607C67.5152 89.9578 67.3575 90.3387 67.0766 90.6195C66.7957 90.9002 66.4147 91.058 66.0175 91.058H66.0181Z" fill="#CCCCCC"/>
<path d="M66.0181 98.9186H47.2971C46.8998 98.9186 46.5189 98.7608 46.238 98.48C45.9571 98.1992 45.7993 97.8184 45.7993 97.4213C45.7993 97.0242 45.9571 96.6434 46.238 96.3626C46.5189 96.0818 46.8998 95.924 47.2971 95.924H66.0175C66.4147 95.924 66.7957 96.0818 67.0766 96.3626C67.3575 96.6434 67.5152 97.0242 67.5152 97.4213C67.5152 97.8184 67.3575 98.1992 67.0766 98.48C66.7957 98.7608 66.4147 98.9186 66.0175 98.9186H66.0181Z" fill="#CCCCCC"/>
<path d="M37.6909 103.394H24.01C23.5633 103.394 23.135 103.216 22.8191 102.9C22.5033 102.585 22.3256 102.156 22.3252 101.71V85.5705C22.3256 85.1239 22.5033 84.6958 22.8191 84.38C23.135 84.0643 23.5633 83.8867 24.01 83.8862H37.6909C38.1376 83.8868 38.5657 84.0645 38.8816 84.3802C39.1974 84.6959 39.3751 85.124 39.3757 85.5705V101.71C39.3752 102.156 39.1976 102.585 38.8817 102.9C38.5659 103.216 38.1376 103.394 37.6909 103.394Z" fill="#CCCCCC"/>
<path d="M65.8878 115.013H23.5793C23.1821 115.013 22.8011 114.855 22.5202 114.575C22.2393 114.294 22.0815 113.913 22.0815 113.516C22.0815 113.119 22.2393 112.738 22.5202 112.457C22.8011 112.176 23.1821 112.019 23.5793 112.019H65.8878C66.285 112.019 66.666 112.176 66.9469 112.457C67.2278 112.738 67.3856 113.119 67.3856 113.516C67.3856 113.913 67.2278 114.294 66.9469 114.575C66.666 114.855 66.285 115.013 65.8878 115.013Z" fill="#CCCCCC"/>
<path d="M65.8878 122.876H23.5793C23.1821 122.876 22.8011 122.718 22.5202 122.437C22.2393 122.157 22.0815 121.776 22.0815 121.379C22.0815 120.982 22.2393 120.601 22.5202 120.32C22.8011 120.039 23.1821 119.882 23.5793 119.882H65.8878C66.285 119.882 66.666 120.039 66.9469 120.32C67.2278 120.601 67.3856 120.982 67.3856 121.379C67.3856 121.776 67.2278 122.157 66.9469 122.437C66.666 122.718 66.285 122.876 65.8878 122.876Z" fill="#CCCCCC"/>
<path d="M65.8878 130.734H23.5793C23.1821 130.734 22.8011 130.576 22.5202 130.295C22.2393 130.014 22.0815 129.633 22.0815 129.236C22.0815 128.839 22.2393 128.458 22.5202 128.178C22.8011 127.897 23.1821 127.739 23.5793 127.739H65.8878C66.285 127.739 66.666 127.897 66.9469 128.178C67.2278 128.458 67.3856 128.839 67.3856 129.236C67.3856 129.633 67.2278 130.014 66.9469 130.295C66.666 130.576 66.285 130.734 65.8878 130.734Z" fill="#CCCCCC"/>
<path d="M65.8878 138.596H23.5793C23.1821 138.596 22.8011 138.438 22.5202 138.157C22.2393 137.877 22.0815 137.496 22.0815 137.099C22.0815 136.701 22.2393 136.321 22.5202 136.04C22.8011 135.759 23.1821 135.601 23.5793 135.601H65.8878C66.285 135.601 66.666 135.759 66.9469 136.04C67.2278 136.321 67.3856 136.701 67.3856 137.099C67.3856 137.496 67.2278 137.877 66.9469 138.157C66.666 138.438 66.285 138.596 65.8878 138.596Z" fill="#CCCCCC"/>
<path d="M65.8878 146.454H23.5793C23.1821 146.454 22.8011 146.296 22.5202 146.016C22.2393 145.735 22.0815 145.354 22.0815 144.957C22.0815 144.56 22.2393 144.179 22.5202 143.898C22.8011 143.617 23.1821 143.46 23.5793 143.46H65.8878C66.285 143.46 66.666 143.617 66.9469 143.898C67.2278 144.179 67.3856 144.56 67.3856 144.957C67.3856 145.354 67.2278 145.735 66.9469 146.016C66.666 146.296 66.285 146.454 65.8878 146.454Z" fill="#CCCCCC"/>
<path d="M0.450652 158.166H87.8121C87.931 158.166 88.045 158.119 88.129 158.035C88.213 157.951 88.2602 157.837 88.2602 157.718C88.2602 157.599 88.213 157.485 88.129 157.401C88.045 157.317 87.931 157.27 87.8121 157.27H0.450652C0.391807 157.27 0.333472 157.281 0.278978 157.303C0.224484 157.325 0.174901 157.358 0.133055 157.4C0.0912087 157.441 0.0579258 157.49 0.0350979 157.544C0.0122701 157.599 0.000341456 157.657 7.22812e-06 157.716C-0.000327 157.774 0.0109329 157.833 0.0331432 157.887C0.0553534 157.942 0.0880846 157.991 0.129458 158.033C0.170831 158.075 0.22004 158.108 0.274278 158.131C0.328516 158.154 0.386716 158.166 0.445561 158.166H0.450652Z" fill="#CCCCCC"/>
<path d="M283.148 57.8497C290.023 57.8497 295.596 52.2785 295.596 45.406C295.596 38.5336 290.023 32.9623 283.148 32.9623C276.274 32.9623 270.701 38.5336 270.701 45.406C270.701 52.2785 276.274 57.8497 283.148 57.8497Z" fill="#CCCCCC"/>
<path d="M281.914 50.1524C281.634 50.1529 281.362 50.0624 281.137 49.8945L281.124 49.8843L278.198 47.6451C277.933 47.4328 277.761 47.1249 277.72 46.7874C277.678 46.4499 277.771 46.1097 277.978 45.8397C278.185 45.5698 278.489 45.3917 278.826 45.3436C279.163 45.2954 279.505 45.3812 279.779 45.5823L281.674 47.0349L286.151 41.1973C286.361 40.9239 286.671 40.745 287.012 40.6999C287.354 40.6548 287.7 40.7472 287.973 40.9568L287.973 40.9571L287.946 40.9946L287.974 40.9576C288.247 41.1676 288.426 41.4772 288.471 41.8187C288.516 42.1602 288.424 42.5055 288.214 42.7791L282.948 49.6458C282.826 49.8041 282.669 49.9321 282.49 50.0201C282.31 50.1081 282.113 50.1535 281.914 50.153L281.914 50.1524Z" fill="white"/>
<path d="M318.128 74.5828C317.869 73.9694 317.436 73.4453 316.883 73.0752C316.33 72.705 315.68 72.5051 315.014 72.5001H252.861C251.967 72.5006 251.111 72.8555 250.479 73.4871C249.847 74.1186 249.492 74.9749 249.492 75.868V154.47C249.492 155.363 249.847 156.219 250.479 156.85C251.111 157.482 251.967 157.837 252.861 157.837H315.014C315.907 157.836 316.764 157.481 317.395 156.85C318.027 156.218 318.382 155.362 318.383 154.47V75.868C318.385 75.4269 318.298 74.9899 318.128 74.5828ZM317.635 154.47C317.634 155.164 317.357 155.829 316.866 156.32C316.376 156.811 315.71 157.087 315.016 157.088H252.861C252.517 157.088 252.176 157.021 251.858 156.889C251.541 156.757 251.252 156.565 251.009 156.321C250.765 156.078 250.573 155.79 250.441 155.472C250.309 155.154 250.242 154.814 250.242 154.47V75.868C250.243 75.174 250.519 74.5088 251.01 74.0181C251.501 73.5274 252.166 73.2511 252.861 73.2497H315.014C315.538 73.2519 316.049 73.4101 316.483 73.7041C316.916 73.9981 317.252 74.4146 317.447 74.9004C317.485 74.997 317.518 75.0957 317.546 75.1958C317.605 75.4163 317.636 75.6436 317.636 75.872L317.635 154.47Z" fill="#CCCCCC"/>
<path d="M305.155 91.058H286.434C286.037 91.058 285.656 90.9002 285.375 90.6195C285.094 90.3387 284.937 89.9578 284.937 89.5607C284.937 89.1636 285.094 88.7828 285.375 88.502C285.656 88.2212 286.037 88.0635 286.434 88.0635H305.155C305.552 88.0635 305.933 88.2212 306.214 88.502C306.495 88.7828 306.652 89.1636 306.652 89.5607C306.652 89.9578 306.495 90.3387 306.214 90.6195C305.933 90.9002 305.552 91.058 305.155 91.058H305.155Z" fill="#CCCCCC"/>
<path d="M305.155 98.9186H286.434C286.037 98.9186 285.656 98.7608 285.375 98.48C285.094 98.1992 284.937 97.8184 284.937 97.4213C284.937 97.0242 285.094 96.6434 285.375 96.3626C285.656 96.0818 286.037 95.924 286.434 95.924H305.155C305.552 95.924 305.933 96.0818 306.214 96.3626C306.495 96.6434 306.652 97.0242 306.652 97.4213C306.652 97.8184 306.495 98.1992 306.214 98.48C305.933 98.7608 305.552 98.9186 305.155 98.9186H305.155Z" fill="#CCCCCC"/>
<path d="M276.829 103.394H263.148C262.701 103.394 262.273 103.216 261.957 102.9C261.641 102.585 261.463 102.156 261.463 101.71V85.5705C261.463 85.1239 261.641 84.6958 261.957 84.38C262.273 84.0643 262.701 83.8867 263.148 83.8862H276.829C277.275 83.8868 277.704 84.0645 278.019 84.3802C278.335 84.6959 278.513 85.124 278.513 85.5705V101.71C278.513 102.156 278.335 102.585 278.019 102.9C277.704 103.216 277.275 103.394 276.829 103.394Z" fill="#CCCCCC"/>
<path d="M305.025 115.013H262.717C262.32 115.013 261.939 114.855 261.658 114.575C261.377 114.294 261.219 113.913 261.219 113.516C261.219 113.119 261.377 112.738 261.658 112.457C261.939 112.176 262.32 112.019 262.717 112.019H305.025C305.423 112.019 305.804 112.176 306.084 112.457C306.365 112.738 306.523 113.119 306.523 113.516C306.523 113.913 306.365 114.294 306.084 114.575C305.804 114.855 305.423 115.013 305.025 115.013Z" fill="#CCCCCC"/>
<path d="M305.025 122.876H262.717C262.32 122.876 261.939 122.718 261.658 122.437C261.377 122.157 261.219 121.776 261.219 121.379C261.219 120.982 261.377 120.601 261.658 120.32C261.939 120.039 262.32 119.882 262.717 119.882H305.025C305.423 119.882 305.804 120.039 306.084 120.32C306.365 120.601 306.523 120.982 306.523 121.379C306.523 121.776 306.365 122.157 306.084 122.437C305.804 122.718 305.423 122.876 305.025 122.876Z" fill="#CCCCCC"/>
<path d="M305.025 130.734H262.717C262.32 130.734 261.939 130.576 261.658 130.295C261.377 130.014 261.219 129.633 261.219 129.236C261.219 128.839 261.377 128.458 261.658 128.178C261.939 127.897 262.32 127.739 262.717 127.739H305.025C305.423 127.739 305.804 127.897 306.084 128.178C306.365 128.458 306.523 128.839 306.523 129.236C306.523 129.633 306.365 130.014 306.084 130.295C305.804 130.576 305.423 130.734 305.025 130.734Z" fill="#CCCCCC"/>
<path d="M305.025 138.596H262.717C262.32 138.596 261.939 138.438 261.658 138.157C261.377 137.877 261.219 137.496 261.219 137.099C261.219 136.701 261.377 136.321 261.658 136.04C261.939 135.759 262.32 135.601 262.717 135.601H305.025C305.423 135.601 305.804 135.759 306.084 136.04C306.365 136.321 306.523 136.701 306.523 137.099C306.523 137.496 306.365 137.877 306.084 138.157C305.804 138.438 305.423 138.596 305.025 138.596Z" fill="#CCCCCC"/>
<path d="M305.025 146.454H262.717C262.32 146.454 261.939 146.296 261.658 146.016C261.377 145.735 261.219 145.354 261.219 144.957C261.219 144.56 261.377 144.179 261.658 143.898C261.939 143.617 262.32 143.46 262.717 143.46H305.025C305.423 143.46 305.804 143.617 306.084 143.898C306.365 144.179 306.523 144.56 306.523 144.957C306.523 145.354 306.365 145.735 306.084 146.016C305.804 146.296 305.423 146.454 305.025 146.454Z" fill="#CCCCCC"/>
<path d="M239.588 158.166H326.95C327.069 158.166 327.183 158.119 327.267 158.035C327.351 157.951 327.398 157.837 327.398 157.718C327.398 157.599 327.351 157.485 327.267 157.401C327.183 157.317 327.069 157.27 326.95 157.27H239.588C239.529 157.27 239.471 157.281 239.417 157.303C239.362 157.325 239.313 157.358 239.271 157.4C239.229 157.441 239.196 157.49 239.173 157.544C239.15 157.599 239.138 157.657 239.138 157.716C239.137 157.774 239.149 157.833 239.171 157.887C239.193 157.942 239.226 157.991 239.267 158.033C239.308 158.075 239.358 158.108 239.412 158.131C239.466 158.154 239.524 158.166 239.583 158.166H239.588Z" fill="#CCCCCC"/>
<path d="M107.614 217.465H218.642C218.793 217.465 218.938 217.405 219.045 217.299C219.152 217.192 219.212 217.047 219.212 216.896C219.212 216.745 219.152 216.6 219.045 216.494C218.938 216.387 218.793 216.327 218.642 216.327H107.614C107.463 216.327 107.318 216.387 107.212 216.494C107.105 216.6 107.045 216.745 107.045 216.896C107.045 217.047 107.105 217.192 107.212 217.299C107.318 217.405 107.463 217.465 107.614 217.465Z" fill="#3F3D56"/>
</g>
<defs>
<clipPath id="clip0">
<rect width="476" height="249" fill="white"/>
</clipPath>
</defs>
</svg>
