<svg width="27" height="31" viewBox="0 0 27 31" fill="none" xmlns="http://www.w3.org/2000/svg">
<path d="M27 0H0V16.7989C0.502326 25.3888 9.299 29.8454 13.6346 31C24.0399 28.1598 26.8804 20.0605 27 16.3659V0Z" fill="#0096DB"/>
<path d="M18.85 9.65L15.35 6.15C15.25 6.05 15.15 6 15 6H10C9.45 6 9 6.45 9 7V19C9 19.55 9.45 20 10 20H18C18.55 20 19 19.55 19 19V10C19 9.85 18.95 9.75 18.85 9.65ZM15 7.2L17.8 10H15V7.2ZM18 19H10V7H14V10C14 10.55 14.45 11 15 11H18V19Z" fill="white"/>
<path d="M11 16H17V17H11V16Z" fill="white"/>
<path d="M11 13H17V14H11V13Z" fill="white"/>
</svg>
