<svg width="27" height="31" viewBox="0 0 27 31" fill="none" xmlns="http://www.w3.org/2000/svg">
<path d="M27 0H0V16.7989C0.502326 25.3888 9.299 29.8454 13.6346 31C24.0399 28.1598 26.8804 20.0605 27 16.3659V0Z" fill="#0096DB"/>
<path d="M16.625 9.875V9.125C16.625 9.05625 16.5688 9 16.5 9H10.5C10.4313 9 10.375 9.05625 10.375 9.125V9.875C10.375 9.94375 10.4313 10 10.5 10H16.5C16.5688 10 16.625 9.94375 16.625 9.875ZM10.5 11.25C10.4313 11.25 10.375 11.3063 10.375 11.375V12.125C10.375 12.1937 10.4313 12.25 10.5 12.25H13.375C13.4437 12.25 13.5 12.1937 13.5 12.125V11.375C13.5 11.3063 13.4437 11.25 13.375 11.25H10.5ZM12.75 18.3125H9.125V7.3125H17.875V12.6875C17.875 12.7562 17.9312 12.8125 18 12.8125H18.875C18.9438 12.8125 19 12.7562 19 12.6875V6.6875C19 6.41094 18.7766 6.1875 18.5 6.1875H8.5C8.22344 6.1875 8 6.41094 8 6.6875V18.9375C8 19.2141 8.22344 19.4375 8.5 19.4375H12.75C12.8187 19.4375 12.875 19.3813 12.875 19.3125V18.4375C12.875 18.3687 12.8187 18.3125 12.75 18.3125ZM19.7141 19.1172L18.2563 17.6594C18.6047 17.1984 18.8125 16.6234 18.8125 16C18.8125 14.4812 17.5813 13.25 16.0625 13.25C14.5437 13.25 13.3125 14.4812 13.3125 16C13.3125 17.5188 14.5437 18.75 16.0625 18.75C16.6219 18.75 17.1406 18.5828 17.575 18.2969L19.0547 19.7766C19.0797 19.8016 19.1109 19.8125 19.1422 19.8125C19.1734 19.8125 19.2063 19.8 19.2297 19.7766L19.7141 19.2922C19.7256 19.2807 19.7347 19.2671 19.741 19.2521C19.7472 19.2371 19.7504 19.2209 19.7504 19.2047C19.7504 19.1884 19.7472 19.1723 19.741 19.1573C19.7347 19.1423 19.7256 19.1287 19.7141 19.1172ZM16.0625 17.75C15.0953 17.75 14.3125 16.9672 14.3125 16C14.3125 15.0328 15.0953 14.25 16.0625 14.25C17.0297 14.25 17.8125 15.0328 17.8125 16C17.8125 16.9672 17.0297 17.75 16.0625 17.75Z" fill="white"/>
</svg>
