<svg width="27" height="31" viewBox="0 0 27 31" fill="none" xmlns="http://www.w3.org/2000/svg">
<path d="M27 0H0V16.7989C0.502326 25.3888 9.299 29.8454 13.6346 31C24.0399 28.1598 26.8804 20.0605 27 16.3659V0Z" fill="#0096DB"/>
<path d="M7.16663 8.3959C7.16769 8.2427 7.22898 8.09608 7.33726 7.98769C7.44553 7.87931 7.5921 7.81787 7.74529 7.81665H18.2546C18.5743 7.81665 18.8333 8.07623 18.8333 8.3959V17.7374C18.8322 17.8906 18.7709 18.0372 18.6627 18.1456C18.5544 18.254 18.4078 18.3154 18.2546 18.3167H7.74529C7.59177 18.3165 7.44458 18.2554 7.33608 18.1468C7.22757 18.0382 7.16663 17.8909 7.16663 17.7374V8.3959ZM8.33329 8.98332V17.15H17.6666V8.98332H8.33329ZM9.49996 10.15H13V13.65H9.49996V10.15ZM10.6666 11.3167V12.4833H11.8333V11.3167H10.6666ZM9.49996 14.8167H16.5V15.9833H9.49996V14.8167ZM14.1666 10.15H16.5V11.3167H14.1666V10.15ZM14.1666 12.4833H16.5V13.65H14.1666V12.4833Z" fill="white"/>
</svg>
