<svg width="28" height="28" viewBox="0 0 28 28" fill="none" xmlns="http://www.w3.org/2000/svg">
<path d="M25 0H3C2.20435 0 1.44129 0.316071 0.87868 0.87868C0.31607 1.44129 0 2.20435 0 3L0 25C0 25.7956 0.31607 26.5587 0.87868 27.1213C1.44129 27.6839 2.20435 28 3 28H25C25.7956 28 26.5587 27.6839 27.1213 27.1213C27.6839 26.5587 28 25.7956 28 25V3C28 2.20435 27.6839 1.44129 27.1213 0.87868C26.5587 0.316071 25.7956 0 25 0ZM23.9756 19.2106L23.0381 23.2731C22.9905 23.4797 22.8743 23.664 22.7085 23.796C22.5426 23.928 22.337 23.9999 22.125 24C12.125 24 4 15.8931 4 5.875C4.00744 5.66503 4.08207 5.463 4.21292 5.29862C4.34377 5.13425 4.52392 5.01621 4.72687 4.96187L8.78938 4.02437C8.85867 4.00972 8.92919 4.00156 9 4C9.18129 4.00915 9.35683 4.06666 9.50839 4.16657C9.65995 4.26647 9.782 4.40512 9.86187 4.56812L11.7369 8.94312C11.7828 9.06108 11.8084 9.18598 11.8125 9.3125C11.7972 9.59003 11.6738 9.85052 11.4688 10.0381L9.10063 11.9756C10.5355 15.0168 12.9832 17.4645 16.0244 18.8994L17.9619 16.5312C18.1495 16.3262 18.41 16.2028 18.6875 16.1875C18.814 16.1916 18.9389 16.2171 19.0569 16.2631L23.4319 18.1381C23.595 18.2179 23.7337 18.3399 23.8336 18.4915C23.9335 18.6431 23.991 18.8187 24 19C23.9988 19.0708 23.9906 19.1414 23.9756 19.2106Z" fill="#0096DB"/>
</svg>
