<svg width="28" height="36" viewBox="0 0 28 36" fill="none" xmlns="http://www.w3.org/2000/svg">
<path d="M7.63636 26.0909V27.3636C7.63636 27.536 7.57339 27.6851 7.44744 27.8111C7.3215 27.937 7.17235 28 7 28H5.72727C5.55492 28 5.40578 27.937 5.27983 27.8111C5.15388 27.6851 5.09091 27.536 5.09091 27.3636V26.0909C5.09091 25.9186 5.15388 25.7694 5.27983 25.6435C5.40578 25.5175 5.55492 25.4545 5.72727 25.4545H7C7.17235 25.4545 7.3215 25.5175 7.44744 25.6435C7.57339 25.7694 7.63636 25.9186 7.63636 26.0909ZM7.63636 21V22.2727C7.63636 22.4451 7.57339 22.5942 7.44744 22.7202C7.3215 22.8461 7.17235 22.9091 7 22.9091H5.72727C5.55492 22.9091 5.40578 22.8461 5.27983 22.7202C5.15388 22.5942 5.09091 22.4451 5.09091 22.2727V21C5.09091 20.8277 5.15388 20.6785 5.27983 20.5526C5.40578 20.4266 5.55492 20.3636 5.72727 20.3636H7C7.17235 20.3636 7.3215 20.4266 7.44744 20.5526C7.57339 20.6785 7.63636 20.8277 7.63636 21ZM12.7273 21V22.2727C12.7273 22.4451 12.6643 22.5942 12.5384 22.7202C12.4124 22.8461 12.2633 22.9091 12.0909 22.9091H10.8182C10.6458 22.9091 10.4967 22.8461 10.3707 22.7202C10.2448 22.5942 10.1818 22.4451 10.1818 22.2727V21C10.1818 20.8277 10.2448 20.6785 10.3707 20.5526C10.4967 20.4266 10.6458 20.3636 10.8182 20.3636H12.0909C12.2633 20.3636 12.4124 20.4266 12.5384 20.5526C12.6643 20.6785 12.7273 20.8277 12.7273 21ZM7.63636 15.9091V17.1818C7.63636 17.3542 7.57339 17.5033 7.44744 17.6293C7.3215 17.7552 7.17235 17.8182 7 17.8182H5.72727C5.55492 17.8182 5.40578 17.7552 5.27983 17.6293C5.15388 17.5033 5.09091 17.3542 5.09091 17.1818V15.9091C5.09091 15.7367 5.15388 15.5876 5.27983 15.4616C5.40578 15.3357 5.55492 15.2727 5.72727 15.2727H7C7.17235 15.2727 7.3215 15.3357 7.44744 15.4616C7.57339 15.5876 7.63636 15.7367 7.63636 15.9091ZM22.9091 26.0909V27.3636C22.9091 27.536 22.8461 27.6851 22.7202 27.8111C22.5942 27.937 22.4451 28 22.2727 28H21C20.8277 28 20.6785 27.937 20.5526 27.8111C20.4266 27.6851 20.3636 27.536 20.3636 27.3636V26.0909C20.3636 25.9186 20.4266 25.7694 20.5526 25.6435C20.6785 25.5175 20.8277 25.4545 21 25.4545H22.2727C22.4451 25.4545 22.5942 25.5175 22.7202 25.6435C22.8461 25.7694 22.9091 25.9186 22.9091 26.0909ZM17.8182 21V22.2727C17.8182 22.4451 17.7552 22.5942 17.6293 22.7202C17.5033 22.8461 17.3542 22.9091 17.1818 22.9091H15.9091C15.7367 22.9091 15.5876 22.8461 15.4616 22.7202C15.3357 22.5942 15.2727 22.4451 15.2727 22.2727V21C15.2727 20.8277 15.3357 20.6785 15.4616 20.5526C15.5876 20.4266 15.7367 20.3636 15.9091 20.3636H17.1818C17.3542 20.3636 17.5033 20.4266 17.6293 20.5526C17.7552 20.6785 17.8182 20.8277 17.8182 21ZM12.7273 15.9091V17.1818C12.7273 17.3542 12.6643 17.5033 12.5384 17.6293C12.4124 17.7552 12.2633 17.8182 12.0909 17.8182H10.8182C10.6458 17.8182 10.4967 17.7552 10.3707 17.6293C10.2448 17.5033 10.1818 17.3542 10.1818 17.1818V15.9091C10.1818 15.7367 10.2448 15.5876 10.3707 15.4616C10.4967 15.3357 10.6458 15.2727 10.8182 15.2727H12.0909C12.2633 15.2727 12.4124 15.3357 12.5384 15.4616C12.6643 15.5876 12.7273 15.7367 12.7273 15.9091ZM7.63636 10.8182V12.0909C7.63636 12.2633 7.57339 12.4124 7.44744 12.5384C7.3215 12.6643 7.17235 12.7273 7 12.7273H5.72727C5.55492 12.7273 5.40578 12.6643 5.27983 12.5384C5.15388 12.4124 5.09091 12.2633 5.09091 12.0909V10.8182C5.09091 10.6458 5.15388 10.4967 5.27983 10.3707C5.40578 10.2448 5.55492 10.1818 5.72727 10.1818H7C7.17235 10.1818 7.3215 10.2448 7.44744 10.3707C7.57339 10.4967 7.63636 10.6458 7.63636 10.8182ZM22.9091 21V22.2727C22.9091 22.4451 22.8461 22.5942 22.7202 22.7202C22.5942 22.8461 22.4451 22.9091 22.2727 22.9091H21C20.8277 22.9091 20.6785 22.8461 20.5526 22.7202C20.4266 22.5942 20.3636 22.4451 20.3636 22.2727V21C20.3636 20.8277 20.4266 20.6785 20.5526 20.5526C20.6785 20.4266 20.8277 20.3636 21 20.3636H22.2727C22.4451 20.3636 22.5942 20.4266 22.7202 20.5526C22.8461 20.6785 22.9091 20.8277 22.9091 21ZM17.8182 15.9091V17.1818C17.8182 17.3542 17.7552 17.5033 17.6293 17.6293C17.5033 17.7552 17.3542 17.8182 17.1818 17.8182H15.9091C15.7367 17.8182 15.5876 17.7552 15.4616 17.6293C15.3357 17.5033 15.2727 17.3542 15.2727 17.1818V15.9091C15.2727 15.7367 15.3357 15.5876 15.4616 15.4616C15.5876 15.3357 15.7367 15.2727 15.9091 15.2727H17.1818C17.3542 15.2727 17.5033 15.3357 17.6293 15.4616C17.7552 15.5876 17.8182 15.7367 17.8182 15.9091ZM12.7273 10.8182V12.0909C12.7273 12.2633 12.6643 12.4124 12.5384 12.5384C12.4124 12.6643 12.2633 12.7273 12.0909 12.7273H10.8182C10.6458 12.7273 10.4967 12.6643 10.3707 12.5384C10.2448 12.4124 10.1818 12.2633 10.1818 12.0909V10.8182C10.1818 10.6458 10.2448 10.4967 10.3707 10.3707C10.4967 10.2448 10.6458 10.1818 10.8182 10.1818H12.0909C12.2633 10.1818 12.4124 10.2448 12.5384 10.3707C12.6643 10.4967 12.7273 10.6458 12.7273 10.8182ZM7.63636 5.72727V7C7.63636 7.17235 7.57339 7.3215 7.44744 7.44744C7.3215 7.57339 7.17235 7.63636 7 7.63636H5.72727C5.55492 7.63636 5.40578 7.57339 5.27983 7.44744C5.15388 7.3215 5.09091 7.17235 5.09091 7V5.72727C5.09091 5.55492 5.15388 5.40578 5.27983 5.27983C5.40578 5.15388 5.55492 5.09091 5.72727 5.09091H7C7.17235 5.09091 7.3215 5.15388 7.44744 5.27983C7.57339 5.40578 7.63636 5.55492 7.63636 5.72727ZM22.9091 15.9091V17.1818C22.9091 17.3542 22.8461 17.5033 22.7202 17.6293C22.5942 17.7552 22.4451 17.8182 22.2727 17.8182H21C20.8277 17.8182 20.6785 17.7552 20.5526 17.6293C20.4266 17.5033 20.3636 17.3542 20.3636 17.1818V15.9091C20.3636 15.7367 20.4266 15.5876 20.5526 15.4616C20.6785 15.3357 20.8277 15.2727 21 15.2727H22.2727C22.4451 15.2727 22.5942 15.3357 22.7202 15.4616C22.8461 15.5876 22.9091 15.7367 22.9091 15.9091ZM17.8182 10.8182V12.0909C17.8182 12.2633 17.7552 12.4124 17.6293 12.5384C17.5033 12.6643 17.3542 12.7273 17.1818 12.7273H15.9091C15.7367 12.7273 15.5876 12.6643 15.4616 12.5384C15.3357 12.4124 15.2727 12.2633 15.2727 12.0909V10.8182C15.2727 10.6458 15.3357 10.4967 15.4616 10.3707C15.5876 10.2448 15.7367 10.1818 15.9091 10.1818H17.1818C17.3542 10.1818 17.5033 10.2448 17.6293 10.3707C17.7552 10.4967 17.8182 10.6458 17.8182 10.8182ZM12.7273 5.72727V7C12.7273 7.17235 12.6643 7.3215 12.5384 7.44744C12.4124 7.57339 12.2633 7.63636 12.0909 7.63636H10.8182C10.6458 7.63636 10.4967 7.57339 10.3707 7.44744C10.2448 7.3215 10.1818 7.17235 10.1818 7V5.72727C10.1818 5.55492 10.2448 5.40578 10.3707 5.27983C10.4967 5.15388 10.6458 5.09091 10.8182 5.09091H12.0909C12.2633 5.09091 12.4124 5.15388 12.5384 5.27983C12.6643 5.40578 12.7273 5.55492 12.7273 5.72727ZM22.9091 10.8182V12.0909C22.9091 12.2633 22.8461 12.4124 22.7202 12.5384C22.5942 12.6643 22.4451 12.7273 22.2727 12.7273H21C20.8277 12.7273 20.6785 12.6643 20.5526 12.5384C20.4266 12.4124 20.3636 12.2633 20.3636 12.0909V10.8182C20.3636 10.6458 20.4266 10.4967 20.5526 10.3707C20.6785 10.2448 20.8277 10.1818 21 10.1818H22.2727C22.4451 10.1818 22.5942 10.2448 22.7202 10.3707C22.8461 10.4967 22.9091 10.6458 22.9091 10.8182ZM17.8182 5.72727V7C17.8182 7.17235 17.7552 7.3215 17.6293 7.44744C17.5033 7.57339 17.3542 7.63636 17.1818 7.63636H15.9091C15.7367 7.63636 15.5876 7.57339 15.4616 7.44744C15.3357 7.3215 15.2727 7.17235 15.2727 7V5.72727C15.2727 5.55492 15.3357 5.40578 15.4616 5.27983C15.5876 5.15388 15.7367 5.09091 15.9091 5.09091H17.1818C17.3542 5.09091 17.5033 5.15388 17.6293 5.27983C17.7552 5.40578 17.8182 5.55492 17.8182 5.72727ZM22.9091 5.72727V7C22.9091 7.17235 22.8461 7.3215 22.7202 7.44744C22.5942 7.57339 22.4451 7.63636 22.2727 7.63636H21C20.8277 7.63636 20.6785 7.57339 20.5526 7.44744C20.4266 7.3215 20.3636 7.17235 20.3636 7V5.72727C20.3636 5.55492 20.4266 5.40578 20.5526 5.27983C20.6785 5.15388 20.8277 5.09091 21 5.09091H22.2727C22.4451 5.09091 22.5942 5.15388 22.7202 5.27983C22.8461 5.40578 22.9091 5.55492 22.9091 5.72727ZM17.8182 33.0909H25.4545V2.54545H2.54545V33.0909H10.1818V28.6364C10.1818 28.464 10.2448 28.3149 10.3707 28.1889C10.4967 28.063 10.6458 28 10.8182 28H17.1818C17.3542 28 17.5033 28.063 17.6293 28.1889C17.7552 28.3149 17.8182 28.464 17.8182 28.6364V33.0909ZM28 1.27273V34.3636C28 34.7083 27.8741 35.0066 27.6222 35.2585C27.3703 35.5104 27.072 35.6364 26.7273 35.6364H1.27273C0.92803 35.6364 0.629735 35.5104 0.377841 35.2585C0.125947 35.0066 0 34.7083 0 34.3636V1.27273C0 0.92803 0.125947 0.629735 0.377841 0.377841C0.629735 0.125947 0.92803 0 1.27273 0H26.7273C27.072 0 27.3703 0.125947 27.6222 0.377841C27.8741 0.629735 28 0.92803 28 1.27273Z" fill="#0096DB"/>
</svg>
