<svg width="420" height="412" viewBox="0 0 420 412" fill="none" xmlns="http://www.w3.org/2000/svg">
<path d="M196.419 365.284L32.3834 272.544V281.749L196.419 375.32L404.196 257.318V245.207L196.419 365.284Z" fill="#6BA7D0"/>
<path d="M291.594 159.872C291.594 162.433 289.759 165.548 287.502 166.793C286.373 167.416 285.314 167.485 284.609 167.07L284.327 166.863C283.833 166.378 283.551 165.824 283.48 165.202V165.063C283.48 164.994 283.48 164.994 283.48 164.925V164.509V164.302V164.025V163.818L283.551 163.541L283.622 163.334L283.693 163.057L283.763 162.85V162.711C283.835 162.572 283.835 162.365 283.905 162.226L283.975 162.157V162.018C284.47 160.842 285.175 159.665 286.021 158.766L286.163 158.627L286.304 158.489L286.516 158.35L286.656 158.211L286.727 158.142L286.868 158.003L287.08 157.865L287.292 157.726H287.363H287.433H287.505H287.575H287.646H287.717H287.788H287.859H287.93H288L288.282 157.587C288.353 157.587 288.423 157.518 288.495 157.518H288.565C288.636 157.518 288.706 157.448 288.777 157.448H288.848C289.482 157.31 290.117 157.379 290.682 157.656C291.171 157.796 291.594 158.627 291.594 159.872ZM71.258 185.826L70.341 186.586C69.4947 186.102 65.6846 183.818 65.049 183.68C61.1689 182.503 57.0767 186.586 55.172 189.424C53.0559 192.607 51.7154 196.345 51.3626 200.22C49.2458 201.812 47.9053 204.373 47.2704 206.934C44.0252 207.833 41.9084 214.2 44.0252 216.138L49.3872 219.183C48.8223 218.699 48.3995 217.799 48.3995 216.554C48.3995 214.062 49.8814 211.224 51.7154 210.187C51.9975 210.049 52.2089 209.91 52.491 209.91C53.1259 207.211 54.6785 204.581 56.5832 203.197C57.0774 196.899 60.8161 190.117 65.4025 187.487C69.4947 185.203 72.8813 186.864 73.9397 191.293C74.8567 190.047 75.9151 189.078 77.0442 188.456C78.314 187.763 79.4431 187.625 80.4308 187.902L75.2102 184.926C74.0097 184.372 72.3164 185.064 71.258 185.826ZM332.585 221.953C332.585 221.883 332.656 221.814 332.656 221.744C332.727 221.606 332.797 221.536 332.868 221.398C332.939 221.328 332.939 221.26 333.009 221.19C333.08 221.121 333.15 220.982 333.221 220.914C333.292 220.844 333.362 220.776 333.432 220.706C333.503 220.636 333.645 220.498 333.715 220.43C333.785 220.361 333.855 220.291 333.927 220.222C334.138 220.083 334.279 219.945 334.491 219.807C334.632 219.737 334.703 219.669 334.844 219.599C334.985 219.53 335.056 219.461 335.196 219.391C335.338 219.322 335.479 219.253 335.62 219.184C335.761 219.114 335.831 219.045 335.973 219.045C336.113 218.976 336.255 218.907 336.466 218.838C336.608 218.768 336.678 218.768 336.819 218.699C336.96 218.63 337.101 218.56 337.242 218.56C336.96 218.146 336.748 217.661 336.536 217.246C333.997 218.353 332.374 220.083 332.374 222.091C332.374 222.229 332.374 222.437 332.374 222.575C332.515 222.299 332.515 222.16 332.585 221.953ZM100.82 120.839C102.936 118.002 105.405 115.648 108.016 114.126C110.979 112.465 113.73 112.119 115.988 112.88L103.712 105.959C100.82 104.714 96.7982 106.375 94.2579 108.105L92.0704 109.836C90.095 108.728 81.1343 103.468 79.7945 103.053C70.6224 100.285 61.2389 109.905 56.7946 116.549C51.7147 124.093 48.6809 132.744 47.8346 141.742C42.8254 145.479 39.7209 151.5 38.3097 157.383C30.7609 159.459 25.7517 174.338 30.8309 178.907L43.3189 186.104C41.9077 184.997 40.9907 182.852 40.9907 179.945C40.9907 174.201 44.448 167.488 48.7516 165.065C49.3865 164.719 49.9507 164.512 50.5156 164.373C51.9268 158.075 55.5955 151.915 60.0398 148.732C61.1689 133.991 69.9875 118.072 80.7822 111.982C90.3078 106.582 98.3501 110.596 100.82 120.839ZM348.46 218.285C348.671 218.354 348.883 218.423 349.095 218.492C349.166 218.492 349.306 218.562 349.376 218.562C349.518 218.632 349.658 218.632 349.871 218.701C350.011 218.77 350.082 218.77 350.223 218.839C350.364 218.908 350.435 218.908 350.576 218.977C350.717 219.047 350.788 219.047 350.929 219.115C351 219.185 351.141 219.185 351.211 219.253C351.352 219.323 351.422 219.392 351.564 219.461C351.635 219.531 351.705 219.531 351.775 219.599C351.987 219.738 352.199 219.877 352.41 220.015C352.482 220.084 352.552 220.084 352.622 220.153C352.693 220.223 352.763 220.291 352.904 220.361C352.975 220.43 353.045 220.499 353.116 220.569C353.187 220.638 353.257 220.707 353.328 220.776C353.399 220.846 353.469 220.915 353.54 220.984C353.611 221.054 353.681 221.122 353.681 221.192C353.751 221.262 353.821 221.33 353.821 221.4C353.893 221.469 353.893 221.538 353.963 221.608C354.033 221.677 354.033 221.815 354.103 221.884C354.103 221.954 354.174 222.023 354.174 222.023C354.246 222.161 354.246 222.299 354.316 222.507C354.316 222.369 354.386 222.161 354.386 222.023C354.386 219.185 350.93 216.831 346.273 216.071C346.132 216.555 345.92 217.177 345.779 217.732C346.696 217.801 347.543 218.008 348.389 218.216C348.319 218.215 348.389 218.285 348.46 218.285ZM95.317 194.546C95.5291 194.615 95.5991 194.615 95.7405 194.684C95.7405 194.684 95.8112 194.684 95.8112 194.754H95.8819C95.9526 194.754 95.9526 194.823 96.0233 194.823L106.959 201.052V194.339L101.173 191.086L94.8942 194.616L94.9649 194.546H95.1063H95.317V194.546ZM355.585 224.721C355.514 224.859 355.444 224.998 355.373 225.136C355.303 225.205 355.233 225.344 355.161 225.413C355.09 225.551 354.95 225.689 354.88 225.827C354.808 225.897 354.738 225.966 354.668 226.104C354.527 226.242 354.386 226.381 354.245 226.52C354.174 226.588 354.103 226.658 354.033 226.727C353.892 226.866 353.751 227.004 353.539 227.142C353.468 227.212 353.398 227.28 353.327 227.35C353.115 227.488 352.904 227.626 352.692 227.765C352.622 227.834 352.552 227.834 352.481 227.903C351.916 228.249 351.281 228.595 350.646 228.871C350.646 228.871 350.575 228.871 350.575 228.941C350.293 229.079 349.941 229.149 349.658 229.288C349.587 229.288 349.446 229.357 349.376 229.357C349.094 229.426 348.882 229.496 348.6 229.564C348.459 229.564 348.389 229.634 348.247 229.634C347.965 229.704 347.754 229.772 347.472 229.842C347.33 229.842 347.19 229.911 347.049 229.911C346.767 229.981 346.555 229.981 346.273 230.05C346.132 230.05 345.99 230.119 345.85 230.119C345.568 230.119 345.285 230.189 345.003 230.189C344.862 230.189 344.721 230.189 344.65 230.189C344.227 230.189 343.804 230.258 343.381 230.258C342.957 230.258 342.534 230.258 342.111 230.189C341.97 230.189 341.829 230.189 341.758 230.189C341.476 230.189 341.193 230.119 340.911 230.119C340.771 230.119 340.63 230.05 340.488 230.05C340.206 229.98 339.995 229.98 339.713 229.911C339.571 229.911 339.431 229.842 339.29 229.842C339.008 229.772 338.796 229.704 338.584 229.704C338.443 229.704 338.302 229.634 338.231 229.634C337.95 229.564 337.737 229.496 337.455 229.426C337.385 229.426 337.244 229.357 337.173 229.357C336.891 229.218 336.538 229.149 336.256 229.011H336.185C335.479 228.734 334.916 228.388 334.28 228.042L334.208 227.973C333.926 227.835 333.714 227.627 333.502 227.489C333.431 227.489 333.431 227.42 333.361 227.42C333.149 227.281 332.938 227.074 332.726 226.935C332.655 226.935 332.655 226.866 332.585 226.866C332.373 226.658 332.233 226.451 332.021 226.312L331.95 226.242C331.385 225.55 330.962 224.858 330.68 224.097L333.29 239.669C333.29 243.199 337.805 245.967 343.379 245.967C348.953 245.967 353.468 243.13 353.468 239.669L356.078 224.097C355.868 224.098 355.727 224.375 355.585 224.721ZM231.131 36.9577L239.809 41.8715L239.527 41.8021L239.245 41.7328L238.963 41.6634L238.68 41.5941H238.398H238.328H238.046H237.693L237.411 41.6634L237.058 41.7328L236.776 41.8021L236.494 41.9408L236.212 42.0795L235.93 42.2176L153.595 88.8642L153.313 89.0029L153.172 89.1416L153.031 89.211L152.89 89.2803L152.748 89.3497L152.466 89.5577L152.184 89.7651L151.972 89.9725L151.761 90.1799L151.619 90.3186L151.549 90.3879L151.478 90.4573L151.337 90.596L151.125 90.8034L150.914 91.0107L150.702 91.2874L150.49 91.4948L150.35 91.7022L150.279 91.7715L150.137 91.9789L149.997 92.2556L149.855 92.5324L149.714 92.8091L149.573 93.0858L149.431 93.3626L149.29 93.6393L149.219 93.916L149.148 94.1927L149.078 94.4695L149.007 94.7462L148.936 95.0229V95.0923L148.866 95.369L148.795 95.6457L148.724 95.9918V96.2685V96.6146V96.9607V270.744V271.09L148.795 271.437L148.866 271.783L148.936 272.059L149.007 272.335L149.148 272.612L149.289 272.889L149.43 273.166L149.572 273.442L149.713 273.718L149.925 273.926L150.136 274.134L150.348 274.342L150.56 274.55L141.882 269.636L141.6 269.428L141.388 269.221H141.106L140.895 268.944L140.683 268.668L140.542 268.39L140.4 268.114L140.259 267.838L140.118 267.561L140.047 267.284L139.976 266.938L139.906 266.592L139.835 266.246V265.9V211.848V92.1169V91.7709V91.4248L139.906 91.0787L139.976 90.802L140.047 90.4559L140.118 90.1792L140.188 89.9024L140.259 89.6257L140.33 89.349L140.4 89.0723L140.542 88.7955L140.683 88.5188L140.824 88.2421L140.965 87.9654L141.107 87.6886L141.248 87.4119L141.39 87.1352L141.53 86.8584L141.742 86.5817L141.883 86.305L142.095 86.0283L142.307 85.8209L142.518 85.5442L142.73 85.3361L142.941 85.1287L143.153 84.9214L143.435 84.7133L143.717 84.5059L143.999 84.2986L144.281 84.0912L144.563 83.9525L144.845 83.8138L227.11 37.2358L227.392 37.0978L227.674 36.9591L228.027 36.8204L228.309 36.751L228.591 36.6817L228.943 36.6123H229.226H229.578H229.86L230.143 36.6817L230.425 36.751L230.707 36.8204L231.131 36.9577ZM146.185 120.769V120.7V120.631V120.561L146.115 120.492L146.044 120.423L145.973 120.353L145.902 120.284L145.832 120.215L143.644 118.969L143.574 118.9H143.503H143.432H143.361H143.291H143.22H143.149L143.079 118.969L142.162 119.522L142.232 119.453L142.303 119.384H142.374H142.444H142.515H142.586L142.657 119.453L142.727 119.522L144.915 120.768L144.985 120.837L145.056 120.907L145.127 120.976L145.198 121.046L145.268 121.115L145.339 121.184V121.254V121.323V128.313V128.383V128.452L145.268 128.521L145.198 128.591L145.127 128.66L145.056 128.729L144.985 128.799L144.915 128.868L144.985 128.799L145.832 128.314L145.902 128.245L145.973 128.175L146.044 128.106L146.115 128.036L146.185 127.967L146.256 127.898V127.828V127.759V120.769H146.185V120.769ZM146.185 109.696V109.626V109.557V109.488L146.115 109.418L146.044 109.349L145.973 109.279L145.902 109.21L145.832 109.141L143.644 107.895L143.574 107.826H143.503H143.432H143.361H143.291H143.22H143.149L143.079 107.895L142.162 108.449L142.232 108.379L142.303 108.31H142.374H142.444H142.515H142.586L142.657 108.379L142.727 108.449L144.915 109.694L144.985 109.764L145.056 109.833L145.127 109.902L145.198 109.972L145.268 110.041L145.339 110.11V110.18V110.249V117.239V117.309V117.378L145.268 117.447L145.198 117.517L145.127 117.586L145.056 117.655L144.985 117.725L144.915 117.794L144.985 117.725L145.832 117.24L145.902 117.171L145.973 117.101L146.044 117.032L146.115 116.963L146.185 116.893L146.256 116.824V116.755V116.685V109.695H146.185V109.696ZM165.305 77.791L163.753 76.8908C163.118 76.5447 162.342 76.5447 161.707 76.8908L152.041 82.358C151.336 82.7041 151.336 83.673 152.041 84.0884L153.523 84.988C154.158 85.334 154.934 85.334 155.569 84.988L165.234 79.5207C166.011 79.106 166.011 78.1371 165.305 77.791ZM123.185 292.131L122.55 291.993L121.916 291.854L121.281 291.646L120.575 291.37L119.94 291.093L119.235 290.747L119.164 290.678L119.093 290.608L118.952 290.538L118.881 290.469L118.74 290.399L118.669 290.33L118.528 290.26L118.457 290.191L118.315 290.121L118.174 290.052L118.033 289.982L117.963 289.913L117.821 289.843L117.681 289.774L117.539 289.705L117.468 289.635L116.763 289.15L116.128 288.666L115.493 288.182L114.858 287.627L114.223 287.074L113.588 286.451L112.953 285.828L112.319 285.206L111.754 284.513L111.189 283.821L110.625 283.129L110.061 282.437L109.567 281.745L109.073 280.983L108.578 280.222L108.084 279.462L107.661 278.7L107.238 277.87L106.885 277.039L106.532 276.209L106.18 275.378L105.827 274.548L105.545 273.717L105.263 272.887L105.051 272.056L104.84 271.226L104.698 270.395L104.557 269.565L104.416 268.734L104.345 267.904L104.274 267.073V266.242V265.412L104.345 264.651L104.416 263.89L104.557 263.198L104.698 262.506L104.91 261.882L105.121 261.26L105.403 260.706C103.781 260.568 102.299 260.914 101.029 261.606L100.606 261.882L100.394 262.021C100.323 262.09 100.183 262.16 100.112 262.228L99.7592 262.506L99.4064 262.92L99.0536 263.336V263.405C98.7715 263.82 98.4887 264.236 98.2773 264.72L98.2066 264.928L97.9245 265.482L97.7131 266.105L97.501 266.727L97.3596 267.42L97.2889 267.766C97.2182 267.974 97.2182 268.25 97.2182 268.458L97.1475 268.805L97.0768 269.565V270.396C97.0768 270.81 97.0768 271.226 97.1475 271.641V271.987L97.2182 272.402C97.2182 272.679 97.2889 273.025 97.3589 273.302L97.4296 273.648L97.5003 273.925C97.6417 274.755 97.8531 275.655 98.0652 276.486L98.2059 276.97L98.3473 277.316C98.4887 277.73 98.6294 278.077 98.7708 278.493L98.8415 278.631V278.7C98.9829 279.115 99.1943 279.531 99.3357 280.015L99.4771 280.292L99.8299 281.122L100.183 281.953L100.606 282.784L101.029 283.544L101.24 283.891C101.382 284.167 101.593 284.445 101.735 284.721L101.947 285.067L102.229 285.482C102.37 285.69 102.511 285.966 102.723 286.174L103.005 286.589L103.216 286.866C103.428 287.212 103.711 287.489 103.922 287.835L104.063 288.042L104.558 288.596C104.628 288.666 104.628 288.666 104.699 288.734L105.263 289.357L105.545 289.703C105.757 289.98 106.04 290.188 106.251 290.465L106.462 290.672L106.604 290.811C106.886 291.088 107.098 291.295 107.38 291.503L107.733 291.78L108.015 292.056C108.791 292.679 109.568 293.301 110.414 293.787C110.555 293.856 110.625 293.925 110.767 293.994C110.908 294.064 111.049 294.133 111.119 294.202H111.19L111.332 294.272C111.543 294.41 111.826 294.548 112.037 294.618L112.108 294.687C113.166 295.172 114.154 295.587 115.071 295.795L115.424 295.864H115.565C117.188 296.21 118.67 296.141 120.01 295.726L120.504 295.518C122.056 294.826 123.327 293.649 124.103 291.919H123.962L123.185 292.131ZM98.7736 250.605L99.6199 250.535L100.466 250.466H101.312L102.229 250.535L102.653 250.605C103.006 250.674 103.359 250.674 103.711 250.743L104.064 250.813L104.981 251.021L105.899 251.297C106.252 251.435 106.604 251.505 106.957 251.643V246.383L106.182 246.454L105.405 246.592L104.629 246.8L103.923 247.076L103.218 247.352L102.512 247.698L95.1749 251.851L95.8805 251.505L96.5861 251.229L96.8682 251.159C97.3624 251.021 97.8559 250.882 98.3501 250.744L98.7736 250.605ZM140.894 285.14L140.753 283.963L140.611 282.787L140.4 281.61L140.188 280.434L139.906 279.257L139.623 278.081L139.271 276.904L138.918 275.727L138.494 274.551L138.001 273.374L137.507 272.197L137.012 271.02L136.448 269.844L135.883 268.667L135.248 267.49L134.614 266.383L133.908 265.276L133.202 264.169L132.497 263.062L131.72 261.955L130.945 260.917L130.099 259.879L129.252 258.84L128.406 257.871L127.56 256.903L126.713 256.002L125.796 255.102L124.879 254.272L123.962 253.441L123.044 252.68V221.467V189.216V189.077V188.938V188.8V188.661L122.973 188.523L122.903 188.384L122.832 188.245L122.761 188.107L122.69 187.968L122.62 187.829L122.549 187.691L122.478 187.553L122.408 187.414L122.337 187.275L122.266 187.137L122.196 186.998L122.054 186.859L121.913 186.652L121.772 186.513L121.631 186.374L121.489 186.236L121.348 186.028L121.206 185.89L121.065 185.751L120.924 185.613L120.783 185.474L120.642 185.335L120.5 185.197L120.289 185.058L120.077 184.919L119.865 184.781L119.654 184.643L119.512 184.573L119.301 184.434L119.09 184.296L118.878 184.227L118.666 184.088L118.455 183.95L118.243 183.812L118.031 183.742L117.82 183.604L117.608 183.465L117.467 183.327L117.256 183.258L117.044 183.119L116.832 182.98L116.691 182.911L116.479 182.772L116.338 182.703L116.2 182.642L115.988 182.503L115.847 182.434L115.706 182.364L115.564 182.295L115.423 182.225L115.282 182.156L115.14 182.087L115 182.017L114.858 181.948L114.717 181.879L114.575 181.809L114.434 181.74L114.293 181.671L114.152 181.601L102.864 175.234L102.722 175.164L102.581 175.095H102.439H102.299H102.157L102.016 175.164L101.875 175.234L94.5372 179.387H94.6079H94.6786H94.7493H94.8907H95.0321H95.1028C95.1735 179.387 95.2442 179.387 95.2442 179.387H95.3149L95.4563 179.456L95.8798 179.664L106.674 185.823C106.886 185.962 107.239 186.1 107.52 186.308H107.591C107.661 186.308 107.732 186.377 107.732 186.377L107.803 186.446L107.944 186.516L108.086 186.585L108.156 186.654C108.227 186.724 108.298 186.724 108.368 186.793C108.509 186.863 108.721 187.001 108.862 187.07H108.933H109.003C109.074 187.139 109.215 187.209 109.285 187.209H109.356L109.498 187.278C109.85 187.485 110.274 187.693 110.627 187.901L110.697 187.97C110.909 188.109 111.121 188.247 111.332 188.316H111.403L111.615 188.455C111.756 188.524 111.826 188.594 111.968 188.662L112.179 188.801L112.391 188.94L112.603 189.078L112.743 189.217L112.885 189.356L113.026 189.495L113.168 189.633L113.238 189.771L113.309 189.841L113.45 189.979L113.591 190.117L113.733 190.325V190.395C113.803 190.464 113.803 190.533 113.874 190.602L113.945 190.741L114.085 190.88L114.227 191.087L114.297 191.156C114.297 191.226 114.368 191.226 114.368 191.295L114.439 191.433L114.51 191.572L114.58 191.71L114.651 191.849L114.722 191.988L114.792 192.127L114.863 192.265V192.403C114.863 192.473 114.863 192.473 114.934 192.542V192.611L115.004 192.75L115.075 192.889V192.958C115.075 193.027 115.075 193.097 115.075 193.165V193.235V193.373V193.512V256.837L115.993 257.599L116.487 258.014C117.757 259.12 118.956 260.297 120.085 261.612L120.438 262.027L121.284 262.996L121.566 263.411C123.118 265.349 124.6 267.356 125.87 269.501L126.434 270.47L127.069 271.577L127.28 271.923C127.562 272.407 127.775 272.892 128.057 273.376L128.339 273.93L128.762 274.831C128.903 275.107 129.044 275.453 129.185 275.73L129.396 276.284L129.538 276.63C130.243 278.361 130.878 280.161 131.373 281.96L131.443 282.306L131.725 283.483L132.007 284.659L132.078 285.144C132.149 285.49 132.22 285.836 132.29 286.113L132.431 287.081L132.572 288.258V288.604C132.643 289.158 132.643 289.711 132.714 290.196V290.542V291.719V292.964L132.643 293.518C132.572 294.694 132.432 295.733 132.22 296.77L132.079 297.463L132.008 297.739C131.797 298.569 131.514 299.33 131.162 300.092L131.091 300.3L130.668 301.131L130.597 301.269C129.751 302.792 128.622 304.107 127.352 305.076L134.689 300.923L135.324 300.369L135.959 299.746L136.594 299.124L137.159 298.431L137.653 297.67L138.147 296.84L138.57 296.009L138.923 295.109L139.276 294.14L139.558 293.172L139.769 292.133L139.98 291.026L140.122 289.919L140.193 288.743V287.497V286.32L140.894 285.14Z" fill="#EDEDED"/>
<path d="M235.01 135.095C234.657 135.442 234.376 135.788 234.093 136.203C233.599 136.964 233.388 137.725 233.317 138.071L210.6 125.268C210.317 125.06 210.106 124.852 209.964 124.645C210.106 124.784 210.317 124.852 210.6 124.784C210.811 124.645 210.881 124.438 210.881 124.23L210.741 123.33L213.774 123.537C213.915 123.537 214.127 123.468 214.197 123.33L235.01 135.095ZM235.293 136.688C235.011 137.103 235.011 138.003 235.011 138.003C235.011 138.003 235.082 138.072 235.152 138.072C235.293 137.587 235.575 136.965 235.999 136.411C236.14 136.204 236.281 135.996 236.422 135.857L236.14 135.719C235.717 136.064 235.434 136.48 235.293 136.688ZM239.456 140.079C239.737 140.148 240.09 138.902 240.302 138.625C240.373 138.486 240.443 138.418 240.514 138.279L239.949 138.002C239.737 138.279 239.032 139.802 239.456 140.079ZM237.551 137.033C237.198 137.587 237.198 138.971 237.48 139.109C237.762 139.247 237.973 137.517 238.326 137.033L238.397 136.964L237.833 136.618C237.692 136.826 237.621 136.964 237.551 137.033ZM216.103 137.379C194.09 149.837 201.993 145.407 179.98 157.865V167.415C202.063 154.819 194.02 159.387 216.103 146.791V137.379ZM216.103 153.851C194.09 166.309 201.993 161.879 179.98 174.336V183.887C202.063 171.291 194.02 175.859 216.103 163.263V153.851ZM216.103 170.323C194.09 182.78 201.993 178.351 179.98 190.809V200.36C202.063 187.763 194.02 192.332 216.103 179.736V170.323ZM274.45 161.257L274.379 161.187C273.109 159.596 274.026 157.173 274.026 157.173L241.995 139.04C241.995 139.11 241.924 139.11 241.924 139.11C241.642 139.732 241.712 142.016 241.712 142.709L243.335 143.747H243.264L267.04 157.173L274.589 161.395C274.52 161.395 274.52 161.325 274.45 161.257ZM193.738 207.695L165.305 223.821V237.525L193.738 221.329V221.468L231.272 200.082V186.518L202.839 202.644L193.738 207.695ZM280.8 151.844L280.518 151.705L280.236 151.636C280.095 151.636 279.883 151.566 279.742 151.566C279.671 151.566 279.671 151.566 279.601 151.566C279.46 151.566 279.319 151.566 279.178 151.636C279.037 151.636 278.825 151.705 278.684 151.774H278.613C277.767 152.051 276.92 152.674 276.214 153.435H276.144C265.137 147.206 254.131 140.977 243.196 134.749C240.796 133.364 238.398 132.049 235.999 130.665L227.322 125.751L226.969 125.543C226.687 125.405 226.404 125.197 226.052 125.058L225.417 124.712L225.205 124.574C224.782 124.366 224.358 124.09 223.936 123.881L223.583 123.674L223.159 123.467C223.089 123.397 223.019 123.397 222.948 123.328L223.371 123.535L222.595 123.121C222.454 123.051 222.313 122.982 222.242 122.913L221.748 122.636L221.184 122.29C219.843 121.528 218.503 120.767 217.162 120.006L217.021 119.937C217.092 119.867 217.092 119.867 217.162 119.799C217.233 119.66 217.233 119.452 217.162 119.314L215.116 116.338L216.033 116.199C216.315 116.199 216.457 115.992 216.457 115.714C216.457 115.645 216.457 115.576 216.457 115.576C216.457 115.506 216.385 115.506 216.385 115.438C216.385 115.368 216.315 115.368 216.245 115.368C216.245 115.368 216.174 115.368 216.174 115.299C216.315 115.368 216.456 115.438 216.667 115.507L243.195 130.525L280.8 151.844Z" fill="#DEDEDE"/>
<path d="M238.044 127.621V62.565C238.044 59.2429 234.446 57.2358 231.483 58.8274L158.249 100.353C155.568 101.876 153.875 104.713 153.875 107.759V248.876C153.875 252.198 157.473 254.204 160.437 252.544L233.67 211.088C236.351 209.565 238.044 206.727 238.044 203.682V152.259V148.523C237.691 148.937 237.269 149.492 236.775 150.114L235.857 148.107C234.023 143.678 232.753 144.162 233.317 138.418C233.317 138.418 233.317 138.28 233.388 138.072L210.6 125.269C210.317 125.061 210.106 124.853 209.964 124.646L204.32 117.448L203.333 116.133L202.698 115.372C202.133 116.133 201.569 116.825 200.934 117.448L203.897 131.774L194.231 137.241L195.854 120.285C193.243 120.632 191.339 118.832 191.339 115.441C191.339 111.081 194.514 105.752 198.394 103.537C202.274 101.322 205.449 103.052 205.449 107.482C205.449 109.281 204.955 111.219 204.038 113.019L206.86 113.572L215.961 115.233C216.032 115.233 216.103 115.233 216.103 115.302C216.103 115.302 216.031 115.302 216.031 115.233C216.173 115.302 216.313 115.372 216.525 115.441L238.044 127.621ZM179.909 174.337C201.921 161.88 194.02 166.309 216.032 153.852V163.265C193.949 175.86 201.992 171.292 179.909 183.889V174.337ZM179.909 190.809C201.921 178.351 194.02 182.78 216.032 170.323V179.736C193.949 192.332 201.992 187.764 179.909 200.36V190.809ZM231.272 199.944L193.738 221.329V221.191L165.305 237.386V223.683L193.738 207.557L202.91 202.367L231.343 186.241V199.945H231.272V199.944ZM216.103 137.379V146.792C194.02 159.388 202.063 154.82 179.981 167.416V157.865C201.921 145.408 194.09 149.837 216.103 137.379ZM186.118 78.7593V77.0289C186.118 76.3368 186.471 75.714 187.106 75.2985L203.967 65.7477C204.602 65.4016 205.449 65.817 205.449 66.5779V68.3083C205.449 69.0004 205.097 69.6232 204.462 69.9693L187.6 79.5902C186.964 80.0056 186.118 79.5208 186.118 78.7593ZM211.728 232.541V234.756C211.728 235.656 211.235 236.487 210.459 236.971L188.87 249.152C188.024 249.636 186.965 249.014 186.965 248.045V245.829C186.965 244.93 187.459 244.099 188.235 243.684L209.824 231.434C210.67 230.949 211.728 231.573 211.728 232.541Z" fill="white"/>
<path d="M306.975 208.665C305.493 209.703 300.413 208.042 299.708 207.627C299.214 207.349 298.226 207.003 297.732 206.45C297.662 206.034 297.591 205.62 297.45 205.135C297.662 204.581 298.085 204.235 298.085 204.235C298.085 204.235 297.027 202.92 297.52 202.09C298.015 201.259 299.708 199.114 299.708 199.114C299.919 199.252 300.131 199.39 300.342 199.528C300.342 199.528 300.413 199.528 300.413 199.598C300.625 199.736 300.766 199.806 300.978 199.874C300.978 199.874 301.049 199.874 301.049 199.944C301.26 200.013 301.472 200.082 301.683 200.151C302.53 200.428 303.448 200.497 304.224 200.497C304.224 200.497 304.224 200.497 304.294 200.497C304.506 200.497 304.647 200.497 304.788 200.428C305.705 200.358 306.482 200.082 306.905 199.943C306.905 203.682 308.456 207.627 306.975 208.665ZM242.913 135.373C242.631 135.511 241.361 136.826 240.514 138.21C240.443 138.349 240.373 138.418 240.302 138.556C240.162 138.833 239.809 140.079 239.456 140.01C239.032 139.733 239.667 138.28 239.95 137.864C240.302 137.31 241.996 135.027 241.996 135.027C242.208 134.404 241.502 134.058 241.149 134.127C240.867 134.265 239.315 135.58 238.327 136.964L238.256 137.033C237.903 137.517 237.691 139.248 237.409 139.109C237.128 138.97 237.128 137.587 237.481 137.033C237.551 136.964 237.621 136.825 237.763 136.687C238.397 135.856 239.597 134.403 239.597 134.403C239.809 133.781 239.103 133.365 238.75 133.503C238.468 133.573 237.269 134.679 236.281 135.856C236.14 136.064 235.999 136.272 235.858 136.411C235.435 137.033 235.223 137.587 235.011 138.072C234.94 138.072 234.87 138.002 234.87 138.002C234.87 138.002 234.87 137.103 235.152 136.687C235.293 136.479 235.575 136.064 235.928 135.718C236.422 135.164 236.916 134.611 236.916 134.611C237.056 134.126 236.493 133.849 236.281 133.919C236.14 133.988 235.505 134.472 234.94 135.095C234.588 135.441 234.305 135.787 234.023 136.202C233.529 136.963 233.317 137.725 233.247 138.071C233.247 138.278 233.176 138.417 233.176 138.417C232.541 144.161 233.882 143.677 235.716 148.106L236.634 150.113C237.128 149.421 237.551 148.937 237.903 148.521C238.891 147.345 239.597 146.722 241.925 145.407C241.784 145.268 241.572 144.576 241.784 144.161C241.925 143.815 242.278 143.607 242.913 143.677C242.983 143.677 243.053 143.677 243.124 143.746H243.195L241.573 142.708C241.573 142.016 241.502 139.732 241.784 139.109L241.856 139.04C242.278 138.348 243.69 136.202 243.69 136.202C243.971 135.511 243.195 135.234 242.913 135.373ZM289.055 146.169C288.42 146.239 287.785 146.1 287.221 145.961C287.079 145.892 287.008 145.892 286.868 145.823H286.796C286.726 145.753 286.585 145.753 286.515 145.685C286.444 145.685 286.444 145.685 286.374 145.615C286.303 145.546 286.162 145.546 286.091 145.477C286.021 145.477 286.021 145.407 285.951 145.407C285.88 145.338 285.81 145.338 285.739 145.269L285.668 145.199C285.597 145.13 285.527 145.13 285.456 145.06L285.385 144.991C285.314 144.922 285.244 144.852 285.174 144.852C285.174 144.852 285.174 144.852 285.102 144.852C284.538 144.437 284.115 144.091 283.833 143.952C282.916 143.606 282.563 144.575 282.563 144.575C282.634 143.745 280.941 142.014 280.941 142.014C281.153 142.014 282.776 142.637 283.551 142.014C284.257 141.392 283.269 136.27 282.211 135.786C281.082 135.301 280.305 138.277 279.389 137.377C278.471 136.477 278.613 134.886 278.33 132.948C278.33 132.809 278.259 132.671 278.259 132.532C278.259 132.463 278.259 132.394 278.188 132.325C278.188 132.256 278.188 132.186 278.118 132.117C278.118 131.979 278.047 131.91 278.047 131.771C278.047 131.702 278.047 131.702 277.976 131.633C277.976 131.563 277.905 131.494 277.905 131.425C277.905 131.425 277.905 131.425 277.905 131.356C277.694 130.803 277.411 130.318 277.059 129.695C276.987 129.626 276.987 129.556 276.917 129.418C276.353 129.556 275.013 130.11 274.942 132.186C274.871 134.747 274.942 135.439 274.942 135.854C274.942 136.339 273.178 137.654 273.108 138.484C273.037 139.384 275.154 140.491 275.154 140.491C275.154 140.491 274.942 142.152 275.295 143.883C276.354 148.52 276.494 147.966 279.951 146.998C279.951 146.998 280.727 148.659 280.304 149.697L279.458 150.942L280.939 151.773L283.62 153.296C285.172 152.673 289.122 150.32 289.264 149.766C289.405 149.281 289.335 146.859 289.264 146.029C289.125 146.169 289.055 146.169 289.055 146.169Z" fill="#FFD2BB"/>
<path d="M297.52 205.204C296.18 197.868 296.321 188.871 296.462 183.681L299.566 185.411C300.201 187.211 300.766 189.079 300.766 190.602C300.837 193.508 300.343 196.415 299.99 198.007C299.849 198.769 299.709 199.253 299.709 199.253C299.709 199.253 298.015 201.399 297.521 202.229C297.028 203.059 298.086 204.375 298.086 204.375C298.086 204.375 297.662 204.651 297.52 205.204ZM105.476 261.194L105.194 261.748L104.982 262.371L104.77 262.993L104.629 263.686L104.488 264.378L104.418 265.139L104.347 265.9V266.731V267.561L104.418 268.391L104.488 269.222L104.629 270.053L104.77 270.883L104.912 271.713L105.123 272.544L105.335 273.375L105.617 274.205L105.899 275.036L106.252 275.866L106.604 276.697L106.957 277.527L107.31 278.358L107.734 279.188L108.156 279.949L108.651 280.711L109.145 281.472L109.639 282.232L110.133 282.925L110.697 283.617L111.262 284.31L111.826 285.002L112.391 285.694L113.026 286.317L113.66 286.939L114.295 287.562L114.93 288.116L115.565 288.67L116.2 289.154L116.835 289.639L117.541 290.123L117.611 290.192L117.753 290.262L117.894 290.332L118.035 290.401L118.105 290.47L118.247 290.54L118.388 290.61L118.529 290.679L118.6 290.748L118.741 290.818L118.812 290.887L118.953 290.957L119.024 291.027L119.165 291.096L119.236 291.165L119.307 291.235L120.012 291.581L120.647 291.857L121.353 292.134L121.988 292.342L122.623 292.48L123.257 292.619L123.892 292.688H124.034C124.739 291.235 125.163 289.366 125.163 287.22C125.163 278.569 118.883 267.981 111.123 263.551C109.075 261.955 107.169 261.332 105.476 261.194ZM347.401 212.748C347.26 213.094 347.12 213.44 346.978 213.717C346.978 213.786 346.907 213.925 346.837 214.132C352.27 215.1 356.292 218.214 356.292 221.953C356.292 222.506 356.221 223.129 356.01 223.683L353.399 239.255C353.399 242.785 348.884 245.553 343.31 245.553C337.737 245.553 333.222 242.715 333.222 239.255L330.611 223.683C330.752 224.098 330.964 224.513 331.246 224.929C330.681 224.028 330.329 222.991 330.329 221.953C330.329 219.184 332.516 216.761 335.831 215.308C335.62 214.754 335.479 214.132 335.479 213.647C335.056 209.494 335.056 207.765 331.316 204.65C327.577 201.605 327.507 204.581 324.19 203.266C320.944 201.951 320.028 199.806 320.028 197.868C320.028 197.591 320.099 197.314 320.099 197.106L308.387 190.393C307.964 194.477 307.541 198.076 307.329 199.322C307.258 199.668 307.258 199.806 307.258 199.806C307.258 199.806 306.905 200.014 306.27 200.152C306.552 200.083 306.764 200.014 306.905 199.945C306.835 203.544 308.386 207.489 306.905 208.527C305.423 209.565 300.343 207.904 299.638 207.489C299.144 207.212 298.157 206.866 297.663 206.312C298.157 208.666 298.792 210.811 299.638 212.541L297.451 214.064C297.804 219.67 298.792 236.765 298.792 237.388C298.792 238.148 301.684 278.013 301.684 278.013H301.613C301.613 278.083 302.601 280.781 298.792 281.889C294.911 282.996 293.217 279.328 292.23 276.975C292.23 276.975 289.197 276.629 286.374 275.522C283.553 274.484 283.129 271.715 283.058 269.64C282.988 267.632 284.328 266.456 286.021 265.695C287.009 265.211 288.702 267.01 290.749 268.671C290.961 267.286 291.171 265.349 291.101 262.927C291.031 257.598 286.021 234.206 286.021 234.206C286.021 234.206 284.399 229.222 282.917 225.069C281.012 231.714 278.472 240.849 277.767 243.894C276.638 248.739 272.052 278.43 272.052 278.43C272.052 278.43 271.77 278.637 271.347 278.914C271.347 280.367 271.347 283.135 271.347 283.69C271.276 284.382 269.724 285.627 269.724 285.627C269.724 285.627 263.656 286.249 263.304 285.627C263.022 284.934 262.881 283.412 262.881 283.412C262.881 283.412 258.365 285.557 254.062 285.349C249.758 285.142 244.678 281.059 244.889 278.013C245.101 274.967 246.794 277.321 252.65 277.183C258.083 276.975 260.764 275.798 261.54 275.522C261.469 275.176 261.469 274.967 261.469 274.967C261.469 274.967 264.361 251.367 264.361 246.315C264.361 242.508 267.677 224.584 269.371 215.725C267.112 214.41 265.349 213.371 265.067 213.164C265.067 213.164 275.438 184.027 272.757 171.639C272.757 171.639 257.517 173.369 256.53 173.576C255.965 173.714 248.416 164.856 242.913 158.212V220.016C242.913 223.406 241.079 226.59 238.045 228.32L155.71 274.967C152.465 276.837 148.373 274.483 148.373 270.815V271.161L148.443 271.507L148.514 271.853L148.585 272.13L148.656 272.406L148.796 272.683L148.938 272.96L149.079 273.236L149.22 273.513L149.362 273.79L149.573 273.997L149.785 274.205L149.997 274.413L150.208 274.621L141.53 269.708L141.248 269.5L141.037 269.291L141.107 269.222L140.896 268.945L140.684 268.669L140.543 268.392L140.402 268.116L140.26 267.839L140.119 267.562L140.048 267.286L139.978 266.94L139.907 266.594L139.836 266.247V265.901V211.849L123.115 221.469V252.544L124.032 253.305L124.949 254.136L125.867 254.966L126.784 255.866L127.63 256.767L128.477 257.735L129.323 258.704L130.169 259.743L131.016 260.781L131.792 261.819L132.567 262.926L133.273 264.033L133.979 265.141L134.684 266.247L135.319 267.354L135.954 268.531L136.519 269.708L137.083 270.885L137.577 272.061L138.072 273.238L138.566 274.415L138.989 275.591L139.341 276.768L139.694 277.944L139.976 279.121L140.258 280.297L140.47 281.474L140.681 282.651L140.823 283.828L140.964 285.004L141.035 286.181V287.358V288.603L140.964 289.78L140.823 290.886L140.611 291.994L140.4 293.032L140.118 294.001L139.765 294.97L139.412 295.87L138.989 296.7L138.494 297.531L138.001 298.292L137.436 298.984L136.801 299.607L136.166 300.368L135.531 300.921L128.194 305.074C124.314 307.912 118.74 308.12 112.39 304.936C111.896 304.728 111.473 304.452 111.049 304.243C110.555 303.967 110.062 303.69 109.568 303.413C97.7858 295.87 88.4023 279.605 88.4023 266.179C88.4023 258.289 91.6482 253.029 96.7281 251.229L96.446 251.299L95.7404 251.576L95.0348 251.922L102.372 247.769L103.078 247.423L103.783 247.147L104.489 246.87L105.265 246.662L106.041 246.524L106.817 246.455V230.675L32.3834 272.544L196.419 365.284L404.196 245.207L347.401 212.748Z" fill="#EDEDED"/>
<path d="M243.054 146.723C243.336 147.069 243.619 147.415 243.83 147.692C243.83 147.692 241.502 148.591 240.232 150.529C239.597 151.498 239.103 152.467 238.75 153.228C238.397 152.813 238.185 152.536 237.974 152.259V148.522C238.962 147.346 239.667 146.723 241.996 145.408C242.066 145.408 242.56 146.1 243.054 146.723ZM203.333 112.948L201.64 112.672C201.428 112.672 201.287 112.741 201.146 112.879C201.075 113.018 201.075 113.225 201.216 113.432L203.333 116.132L204.321 117.447V117.377L204.392 117.101L204.462 116.824L204.533 116.616L204.674 116.408L204.815 116.132L204.956 115.924L205.098 115.716L205.239 115.509L205.381 115.302L205.522 115.093L205.663 114.886L205.804 114.679L205.946 114.471L206.087 114.263L206.228 114.056L206.37 113.917L206.581 113.779L206.652 113.709L203.829 113.156L203.333 112.948ZM264.784 280.157C262.457 278.912 261.892 276.627 261.68 275.658C260.904 275.935 258.223 277.181 252.79 277.319C246.935 277.458 245.17 275.105 245.029 278.15C244.817 281.195 249.897 285.209 254.201 285.486C258.505 285.694 263.021 283.549 263.021 283.549C263.021 283.549 263.162 285.072 263.444 285.764C263.726 286.387 269.864 285.764 269.864 285.764C269.864 285.764 271.417 284.518 271.487 283.826C271.487 283.272 271.487 280.504 271.487 279.051C270.075 279.88 267.042 281.403 264.784 280.157ZM301.683 278.15C294.134 278.565 293.994 276.973 290.254 271.367C290.254 271.367 290.536 270.537 290.748 268.876C288.702 267.215 287.008 265.415 286.021 265.9C284.327 266.731 282.916 267.838 283.058 269.845C283.129 271.852 283.552 274.62 286.373 275.727C289.196 276.834 292.229 277.18 292.229 277.18C293.217 279.534 294.91 283.202 298.791 282.094C302.671 280.918 301.683 278.219 301.683 278.15ZM284.327 166.931C283.834 166.447 283.552 165.893 283.481 165.27C283.481 165.201 283.481 165.132 283.481 165.132C283.481 165.062 283.481 165.062 283.481 164.993C283.41 164.301 283.481 163.539 283.692 162.778C283.763 162.64 283.763 162.432 283.834 162.294C283.834 162.224 283.905 162.155 283.905 162.086C284.398 160.909 285.104 159.732 285.951 158.833C286.021 158.763 286.091 158.625 286.233 158.556C286.303 158.487 286.444 158.349 286.515 158.279L286.586 158.21C286.868 157.933 287.22 157.725 287.503 157.587C287.503 157.587 287.503 157.587 287.574 157.587C287.715 157.518 287.785 157.449 287.927 157.449C287.997 157.449 288.067 157.38 288.138 157.38H288.21C288.28 157.38 288.35 157.31 288.421 157.31H288.492C289.127 157.172 289.761 157.241 290.326 157.518L290.044 157.379H289.974L286.728 155.579L286.657 155.51L283.341 153.642C279.532 151.704 274.099 160.147 277.133 163.192L283.906 166.999L284.327 166.931Z" fill="white"/>
<path d="M243.054 146.723C242.56 146.1 242.066 145.408 242.066 145.408C241.926 145.269 241.713 144.578 241.926 144.162C242.066 143.816 242.419 143.609 243.054 143.678V146.723ZM308.738 174.268C309.656 176.275 309.091 184.026 308.456 190.462C308.034 194.546 307.61 198.145 307.398 199.39C307.327 199.736 307.327 199.875 307.327 199.875C307.327 199.875 306.34 200.36 304.858 200.498C304.717 200.498 304.506 200.498 304.364 200.567C304.364 200.567 304.364 200.567 304.293 200.567C303.518 200.567 302.671 200.498 301.754 200.221C301.542 200.152 301.33 200.082 301.119 200.014C301.119 200.014 301.048 200.014 301.048 199.944C300.836 199.875 300.695 199.736 300.483 199.668C300.483 199.668 300.413 199.668 300.413 199.598C300.201 199.46 299.989 199.322 299.778 199.184C299.778 199.184 299.918 198.699 300.06 197.938C300.341 196.346 300.835 193.44 300.835 190.533C300.835 189.011 300.271 187.141 299.636 185.342C298.437 182.158 296.814 179.252 296.814 179.252C296.814 179.252 296.673 180.913 296.602 183.612C296.39 188.802 296.32 197.8 297.661 205.136C297.732 205.551 297.802 206.036 297.942 206.451C298.437 208.804 299.071 210.95 299.918 212.68L297.731 214.202C298.084 219.808 299.071 236.903 299.071 237.526C299.071 238.287 301.964 278.152 301.964 278.152H301.893C294.344 278.566 294.203 276.975 290.464 271.369C290.464 271.369 290.746 270.538 290.958 268.877C291.169 267.493 291.381 265.555 291.311 263.133C291.24 257.804 286.231 234.412 286.231 234.412C286.231 234.412 284.608 229.428 283.126 225.276C281.221 231.92 278.68 241.055 277.976 244.1C276.847 248.946 272.261 278.636 272.261 278.636C272.261 278.636 271.979 278.844 271.555 279.12C270.215 279.951 267.181 281.474 264.923 280.227C262.595 278.982 262.03 276.698 261.819 275.729C261.747 275.383 261.747 275.175 261.747 275.175C261.747 275.175 264.641 251.575 264.641 246.522C264.641 242.715 267.956 224.791 269.65 215.931C267.392 214.617 265.628 213.579 265.346 213.371C265.346 213.371 275.717 184.233 273.036 171.845C273.036 171.845 257.797 173.576 256.809 173.783C256.244 173.922 248.695 165.063 243.193 158.419V220.222C243.193 223.613 241.358 226.796 238.324 228.527L155.989 275.174C152.744 277.043 148.652 274.689 148.652 271.021V97.1689C148.652 96.5461 148.723 95.9233 148.864 95.3005V95.2311C149.075 94.1235 149.57 93.0159 150.134 92.047L150.275 91.8397L150.346 91.7703C150.417 91.6316 150.557 91.4936 150.628 91.3549C150.839 91.0781 151.122 90.7321 151.404 90.5247L151.475 90.4553L151.546 90.386C151.899 90.0399 152.321 89.6938 152.816 89.3477L152.957 89.2784L153.098 89.209C153.24 89.1397 153.38 89.0017 153.521 88.9323L235.715 42.2163C236.491 41.7315 237.337 41.5935 238.184 41.5935H238.255C240.795 41.6629 243.053 43.6006 243.053 46.3686V130.526L216.525 115.508L238.043 127.689V62.6337C238.043 59.3116 234.445 57.3044 231.482 58.8968L158.248 100.353C155.567 101.876 153.874 104.713 153.874 107.759V248.876C153.874 252.198 157.473 254.204 160.436 252.544L233.669 211.088C236.35 209.565 238.043 206.727 238.043 203.682V152.259C238.255 152.536 238.538 152.814 238.82 153.228C239.172 152.467 239.666 151.498 240.301 150.529C241.571 148.522 243.9 147.692 243.9 147.692C244.04 147.83 244.182 147.968 244.182 148.038C244.393 148.177 253.564 156.55 257.657 161.464L257.728 161.534C257.728 161.534 257.728 161.534 257.799 161.534C258.292 161.326 262.384 159.25 266.9 157.035L267.112 157.174L274.661 161.396L274.802 161.465L274.52 161.257L274.449 161.188C273.179 159.596 274.096 157.173 274.096 157.173L241.995 139.04C242.418 138.348 243.829 136.202 243.829 136.202C243.97 135.51 243.195 135.234 242.912 135.372C242.63 135.51 241.359 136.825 240.513 138.21L239.948 137.933C240.301 137.379 241.994 135.096 241.994 135.096C242.206 134.473 241.501 134.127 241.148 134.195C240.866 134.334 239.313 135.649 238.325 137.033L237.761 136.687C238.395 135.856 239.595 134.403 239.595 134.403C239.807 133.781 239.102 133.365 238.749 133.503C238.467 133.573 237.267 134.679 236.279 135.856L235.997 135.718C236.491 135.164 236.985 134.611 236.985 134.611C237.126 134.126 236.562 133.849 236.35 133.919C236.209 133.988 235.574 134.472 235.01 135.095L214.126 123.26C214.055 123.399 213.844 123.468 213.703 123.468L210.669 123.26L210.811 124.16C210.881 124.368 210.74 124.645 210.528 124.714C210.317 124.783 210.034 124.783 209.894 124.575L204.249 117.377V117.308L204.32 117.031L204.391 116.755L204.462 116.547L204.603 116.34L204.744 116.063L204.886 115.856L205.027 115.648L205.169 115.441L205.31 115.233L205.451 115.026L205.592 114.818L205.733 114.61L205.875 114.403L206.016 114.195L206.158 113.988L206.299 113.849L206.51 113.711L206.581 113.641L215.683 115.302C215.753 115.302 215.823 115.302 215.823 115.372C215.894 115.372 215.894 115.441 215.964 115.441C215.964 115.51 216.035 115.51 216.035 115.58C216.035 115.649 216.035 115.718 216.035 115.718C216.035 115.995 215.823 116.134 215.612 116.203L214.695 116.342L216.741 119.318C216.812 119.457 216.882 119.664 216.741 119.803C216.67 119.941 216.459 120.08 216.317 120.08C216.459 120.08 216.53 120.08 216.6 120.01L216.741 120.08L217.658 120.634L218.576 121.118L219.493 121.672L220.41 122.157L220.764 122.364L221.328 122.71L221.822 122.987L221.963 123.056L222.245 123.195L222.739 123.472L223.162 123.679L223.515 123.886L224.079 124.232L224.785 124.648L224.997 124.787L225.632 125.133L225.914 125.34L226.478 125.686L226.831 125.894L235.509 130.807L242.705 134.891L273.96 152.608L275.582 153.509L275.653 153.578C275.582 153.647 275.582 153.647 275.512 153.717C275.582 153.647 275.582 153.578 275.653 153.578C276.359 152.817 277.205 152.194 278.052 151.917H278.123C278.263 151.847 278.475 151.847 278.616 151.778C278.757 151.778 278.898 151.709 279.04 151.709C279.11 151.709 279.11 151.709 279.18 151.709C279.322 151.709 279.533 151.709 279.674 151.778L279.956 151.847L280.238 151.986L283.06 153.578C279.25 151.64 273.818 160.083 276.851 163.129L283.625 166.935L283.766 167.073L284.048 167.281C284.754 167.696 285.812 167.627 286.94 167.004C289.199 165.689 291.033 162.644 291.033 160.083C291.033 158.838 290.61 158.008 289.904 157.523L289.622 157.384H289.551L286.306 155.584L286.235 155.515L282.848 153.577C284.401 152.954 288.351 150.601 288.492 150.048C288.492 149.978 288.563 149.909 288.563 149.771C288.563 149.771 290.115 151.086 290.75 151.917C300.343 155.512 304.788 165.34 308.738 174.268ZM186.118 78.7593C186.118 79.5209 186.964 80.005 187.6 79.5902L204.462 70.0394C205.096 69.6933 205.449 69.0011 205.449 68.3783V66.6479C205.449 65.8864 204.603 65.4023 203.967 65.817L187.106 75.3679C186.471 75.714 186.118 76.4061 186.118 77.0983V78.7593ZM211.728 232.541C211.728 231.573 210.67 230.949 209.824 231.434L188.234 243.684C187.459 244.099 186.964 244.93 186.964 245.829V248.045C186.964 249.014 188.023 249.636 188.869 249.152L210.458 236.901C211.234 236.417 211.728 235.657 211.728 234.687V232.541H211.728ZM83.111 191.847C83.111 191.708 83.111 191.64 83.0403 191.501C82.7582 189.909 81.9819 188.732 80.9942 188.179C80.9942 188.179 80.9235 188.179 80.9235 188.11H80.8528C80.7114 188.04 80.5707 187.971 80.4293 187.902C79.4416 187.556 78.3132 187.695 77.0427 188.456C75.9143 189.079 74.8552 190.117 73.9382 191.293C72.8798 186.933 69.4225 185.203 65.4017 187.487C60.8153 190.117 57.0059 196.899 56.5824 203.197C54.6777 204.581 53.1258 207.211 52.4902 209.911C52.2081 209.979 51.996 210.049 51.7146 210.187C49.8799 211.225 48.3987 214.063 48.3987 216.554C48.3987 217.799 48.7515 218.699 49.3864 219.184C50.0213 219.668 50.7976 219.738 51.7853 219.184L57.218 216.138L65.4724 211.432L77.1134 204.857C77.3248 204.718 77.5362 204.58 77.7483 204.442C79.3709 203.334 80.7821 201.397 81.8405 199.251C81.8405 199.181 81.9112 199.181 81.9112 199.113C81.9112 199.043 81.9819 198.974 81.9819 198.905C82.7582 197.036 83.2517 195.029 83.2517 193.091C83.2517 192.677 83.2517 192.261 83.181 191.846C83.111 191.916 83.111 191.847 83.111 191.847ZM61.5223 178.905L80.7828 167.97L108.016 152.606C108.369 152.398 108.722 152.191 109.075 151.983C112.884 149.492 116.271 145.201 118.599 140.286C120.856 135.58 122.268 130.32 122.268 125.337C122.268 123.883 122.126 122.499 121.915 121.253C121.28 117.793 119.728 115.232 117.682 113.779C117.47 113.64 117.329 113.502 117.118 113.433C117.047 113.433 116.976 113.363 116.976 113.363C116.694 113.225 116.341 113.087 116.059 112.948C113.802 112.187 111.05 112.533 108.087 114.193C105.477 115.647 103.007 118 100.89 120.906C98.4214 110.663 90.3777 106.649 80.9242 111.979C70.2002 118.069 61.3102 134.057 60.1818 148.729C55.7368 151.912 52.1388 158.071 50.6569 164.37C50.0927 164.508 49.5285 164.785 48.8929 165.062C44.5893 167.484 41.132 174.197 41.132 179.942C41.132 183.541 42.4725 185.963 44.5893 186.724C44.73 186.793 44.8714 186.793 45.0121 186.863C45.0828 186.863 45.1535 186.932 45.2235 186.932H45.2942C46.3526 187.071 47.6224 186.793 48.8922 186.102L61.5223 178.905ZM152.111 84.0886L153.593 84.9881C154.228 85.3342 155.004 85.3342 155.639 84.9881L165.305 79.5209C165.94 79.1748 165.94 78.2059 165.305 77.8598L163.753 76.9603C163.118 76.6142 162.342 76.6142 161.707 76.9603L152.041 82.4275C151.476 82.7736 151.476 83.6731 152.111 84.0886ZM133.556 290.124C133.556 290.608 133.626 291.162 133.626 291.647C133.626 292.269 133.626 292.892 133.556 293.446C133.485 294.622 133.344 295.661 133.133 296.698C133.062 297.045 132.992 297.321 132.922 297.667C132.709 298.497 132.427 299.258 132.075 300.021C131.934 300.367 131.722 300.713 131.581 301.059C131.581 301.128 131.51 301.197 131.51 301.266C130.664 302.789 129.535 304.104 128.265 305.073C124.385 307.911 118.811 308.118 112.461 304.935C111.967 304.727 111.544 304.45 111.121 304.242C110.627 303.966 110.133 303.689 109.639 303.412C97.8565 295.868 88.473 279.604 88.473 266.177C88.473 258.288 91.7182 253.028 96.7981 251.228C97.2923 251.089 97.7858 250.951 98.28 250.813C99.6205 250.536 101.102 250.467 102.654 250.675C103.007 250.744 103.36 250.744 103.713 250.813C104.418 250.951 105.195 251.089 105.9 251.367C106.253 251.505 106.606 251.575 106.959 251.713V246.454V230.674V210.05L95.9525 203.821V203.752C95.0355 203.198 94.2592 201.953 94.2592 200.915C94.2592 200.845 94.2592 200.845 94.2592 200.777V196.07C94.2592 195.655 94.4006 194.894 94.9648 194.686C95.1062 194.617 95.2469 194.617 95.459 194.686C95.6004 194.686 95.6704 194.755 95.8118 194.825C95.8118 194.825 95.8825 194.825 95.8825 194.894C95.8825 194.894 95.8825 194.894 95.9532 194.894C96.0239 194.894 96.0239 194.963 96.0946 194.963L107.031 201.192V194.479L101.245 191.226L96.0246 188.25V188.181C95.1069 187.696 94.3313 186.381 94.3313 185.344C94.3313 185.274 94.3313 185.205 94.3313 185.205V180.499C94.3313 180.429 94.3313 180.36 94.3313 180.291C94.3313 179.738 94.5427 179.322 94.8955 179.184H94.9662C95.1076 179.184 95.1783 179.114 95.319 179.184C95.3897 179.184 95.4604 179.184 95.4604 179.184C95.5311 179.184 95.6018 179.253 95.6718 179.253L96.0953 179.46L106.96 185.62C107.171 185.758 107.525 185.897 107.806 186.105C107.806 186.105 107.877 186.105 107.877 186.174C107.948 186.174 108.018 186.243 108.018 186.243C108.088 186.313 108.159 186.313 108.23 186.382C108.3 186.451 108.37 186.451 108.441 186.521C108.512 186.59 108.583 186.59 108.653 186.659C108.794 186.729 109.005 186.867 109.147 186.936C109.147 186.936 109.217 186.936 109.217 187.005C109.288 187.075 109.429 187.144 109.5 187.144C109.57 187.214 109.641 187.214 109.711 187.282C110.064 187.49 110.487 187.698 110.84 187.905L110.911 187.974C111.122 188.112 111.334 188.251 111.546 188.32C111.616 188.39 111.687 188.39 111.828 188.459C111.969 188.529 112.039 188.597 112.181 188.667C112.463 188.805 112.745 189.013 112.957 189.22C113.168 189.427 113.38 189.566 113.592 189.773L113.662 189.843C113.804 189.982 113.945 190.189 114.085 190.328C114.156 190.397 114.156 190.466 114.227 190.535C114.368 190.742 114.509 190.881 114.579 191.088C114.579 191.158 114.65 191.158 114.65 191.227C114.932 191.643 115.073 192.057 115.214 192.473C115.214 192.542 115.214 192.542 115.285 192.611C115.356 192.749 115.356 192.887 115.426 193.026C115.426 193.096 115.426 193.165 115.426 193.234C115.426 193.372 115.426 193.441 115.426 193.58V256.906C115.921 257.321 116.414 257.736 116.838 258.152C118.107 259.259 119.307 260.436 120.436 261.75C120.93 262.304 121.494 262.927 121.988 263.55C123.539 265.487 125.021 267.494 126.291 269.64C126.785 270.471 127.279 271.301 127.702 272.132C127.984 272.616 128.197 273.1 128.478 273.585C128.69 274.069 128.972 274.553 129.184 275.038C129.324 275.314 129.466 275.66 129.606 275.938C129.747 276.215 129.888 276.492 129.959 276.838C130.665 278.568 131.3 280.368 131.794 282.167C132.076 283.205 132.358 284.312 132.57 285.351C132.641 285.697 132.711 286.043 132.782 286.32C132.923 287.15 133.064 287.981 133.134 288.811C133.486 289.016 133.556 289.569 133.556 290.124ZM125.019 286.732C125.019 278.081 118.74 267.492 110.979 263.063C109.004 261.955 107.099 261.332 105.406 261.193C103.783 261.055 102.301 261.401 101.032 262.093C100.82 262.232 100.609 262.37 100.397 262.509C100.326 262.578 100.185 262.647 100.115 262.717C99.6912 263.063 99.3384 263.409 98.9856 263.823C98.9856 263.823 98.9856 263.823 98.9856 263.893C98.7035 264.308 98.4214 264.723 98.2093 265.208C97.7865 266.107 97.4337 267.145 97.2216 268.253C97.1509 268.461 97.1509 268.737 97.1509 268.945C97.0802 269.568 97.0095 270.191 97.0095 270.883C97.0095 271.298 97.0095 271.713 97.0802 272.129C97.0802 272.336 97.1509 272.613 97.1509 272.821C97.1509 273.098 97.2216 273.444 97.2923 273.721C97.2923 273.929 97.363 274.136 97.363 274.275C97.5044 275.105 97.7158 276.005 97.9279 276.835C97.9986 277.112 98.0693 277.389 98.1393 277.665C98.2807 278.081 98.4214 278.427 98.5628 278.842C98.5628 278.912 98.6335 278.98 98.6335 279.05C98.7749 279.465 98.9863 279.881 99.1277 280.365C99.6919 281.68 100.327 282.925 101.032 284.172C101.174 284.448 101.385 284.726 101.527 285.002C101.668 285.278 101.879 285.487 102.021 285.763C102.162 285.971 102.303 286.247 102.515 286.455C102.656 286.663 102.797 286.87 103.009 287.078C103.221 287.424 103.503 287.701 103.715 288.047C103.926 288.323 104.138 288.601 104.35 288.808C104.42 288.877 104.42 288.877 104.491 288.946C104.773 289.292 105.055 289.569 105.337 289.915C105.549 290.192 105.831 290.4 106.043 290.676C106.184 290.814 106.254 290.884 106.396 291.022C106.678 291.298 106.89 291.507 107.171 291.715C107.383 291.922 107.595 292.061 107.806 292.268C108.583 292.891 109.358 293.514 110.205 293.999C110.347 294.068 110.417 294.137 110.558 294.207C110.699 294.276 110.84 294.345 110.911 294.415C110.981 294.415 111.052 294.484 111.052 294.484C111.264 294.622 111.546 294.761 111.758 294.83C111.828 294.83 111.828 294.899 111.899 294.899C112.958 295.384 113.945 295.8 114.862 296.007C115.004 296.076 115.215 296.076 115.356 296.145C116.979 296.491 118.461 296.422 119.801 296.007C120.013 295.937 120.154 295.868 120.366 295.799C121.918 295.107 123.188 293.93 123.964 292.2C124.666 290.746 125.019 288.947 125.019 286.732ZM346.837 214.201C346.695 214.616 346.414 215.309 346.202 216.139C350.858 216.831 354.315 219.253 354.315 222.091C354.315 222.229 354.315 222.437 354.245 222.575C353.821 225.759 349.095 228.251 343.38 228.251C337.665 228.251 332.938 225.759 332.515 222.575C332.515 222.437 332.515 222.229 332.515 222.091C332.515 220.153 334.137 218.423 336.678 217.246C336.395 216.623 336.113 216.001 335.902 215.447C332.586 216.9 330.399 219.323 330.399 222.091C330.399 223.475 330.963 224.79 331.951 225.967L332.022 226.036C332.163 226.244 332.375 226.451 332.587 226.59C332.587 226.59 332.657 226.66 332.727 226.66C332.94 226.868 333.15 227.006 333.362 227.144C333.433 227.144 333.433 227.214 333.503 227.214C333.715 227.352 333.997 227.56 334.209 227.698L334.28 227.767C334.844 228.113 335.479 228.46 336.185 228.736H336.256C336.538 228.874 336.89 229.013 337.173 229.082C337.245 229.082 337.385 229.152 337.455 229.152C337.737 229.221 337.949 229.29 338.231 229.36C338.372 229.36 338.513 229.429 338.584 229.429C338.796 229.499 339.078 229.567 339.29 229.567C339.431 229.567 339.571 229.637 339.713 229.637C339.995 229.707 340.206 229.707 340.488 229.775C340.63 229.775 340.77 229.845 340.911 229.845C341.193 229.845 341.476 229.914 341.758 229.914C341.899 229.914 342.04 229.914 342.111 229.914C342.534 229.914 342.957 229.984 343.381 229.984C343.804 229.984 344.227 229.984 344.65 229.914C344.791 229.914 344.932 229.914 345.003 229.914C345.285 229.914 345.568 229.845 345.85 229.845C345.99 229.845 346.132 229.775 346.272 229.775C346.555 229.706 346.767 229.706 347.049 229.637C347.189 229.637 347.33 229.567 347.472 229.567C347.754 229.498 347.965 229.429 348.247 229.36C348.389 229.36 348.459 229.29 348.6 229.29C348.882 229.22 349.094 229.152 349.376 229.082C349.447 229.082 349.588 229.013 349.658 229.013C349.94 228.874 350.293 228.806 350.575 228.667C350.575 228.667 350.646 228.667 350.646 228.598C351.281 228.321 351.916 227.975 352.481 227.628C352.551 227.559 352.621 227.559 352.692 227.49C352.904 227.352 353.115 227.214 353.327 227.075C353.398 227.006 353.468 226.937 353.539 226.868C353.68 226.729 353.892 226.59 354.033 226.452C354.103 226.383 354.174 226.314 354.245 226.244C354.385 226.106 354.527 225.968 354.668 225.83C354.738 225.76 354.809 225.691 354.88 225.552C355.02 225.414 355.091 225.276 355.162 225.137C355.232 225.068 355.302 224.93 355.373 224.861C355.444 224.723 355.515 224.585 355.585 224.446C355.797 224.1 355.938 223.754 356.079 223.477C356.291 222.923 356.361 222.37 356.361 221.747C356.291 218.285 352.269 215.17 346.837 214.201ZM201.64 112.602L203.333 112.879L204.039 113.018C204.956 111.218 205.45 109.212 205.45 107.481C205.45 103.121 202.275 101.391 198.395 103.536C194.515 105.751 191.339 111.08 191.339 115.44C191.339 118.831 193.174 120.631 195.854 120.285L194.232 137.241L203.897 131.773L200.934 117.448C201.569 116.825 202.134 116.133 202.698 115.371L203.333 116.133L201.216 113.433C201.075 113.295 201.075 113.087 201.146 112.88C201.287 112.672 201.428 112.602 201.64 112.602ZM338.582 207.765C337.665 215.447 341.545 220.015 346.061 225.205C346.061 225.275 346.132 225.275 346.132 225.343C346.132 225.274 346.061 225.274 346.061 225.205C343.591 220.222 339.852 214.685 339.993 209.218C339.993 209.148 340.064 208.664 340.064 207.903C340.135 207.211 340.346 206.45 340.558 205.688C341.405 202.92 343.451 199.944 345.638 196.76L345.99 196.275C351 189.701 357.843 189.008 365.181 187.417C358.62 187.14 355.445 186.932 349.377 191.085C351.494 187.486 353.116 183.611 353.116 179.458C353.116 174.336 349.871 170.876 346.837 167.554C343.733 164.232 340.77 161.048 341.97 156.481C342.745 153.712 343.734 151.775 344.65 150.183C348.671 142.639 346.978 139.871 342.534 133.158C345.074 138.625 347.332 142.016 343.239 149.492C342.322 151.222 341.264 153.16 340.488 156.136C339.782 158.627 340.135 160.703 341.053 162.641C334.914 160.357 334.209 157.52 331.81 152.329C331.669 159.111 335.478 162.849 342.181 164.579C343.169 165.963 344.368 167.278 345.638 168.593C348.531 171.707 351.494 174.891 351.494 179.459C351.494 185.272 348.036 190.532 344.65 195.447C344.297 195.931 343.944 196.346 343.662 196.9C342.11 199.253 340.629 201.467 339.641 203.613C338.089 195.239 331.88 191.086 323.555 191.779C330.68 191.916 338.935 195.584 338.582 207.765ZM146.185 120.562V120.492L146.114 120.423L146.044 120.353L145.973 120.284L145.902 120.215L145.832 120.145L143.644 118.9L143.573 118.83H143.503H143.432H143.361H143.291H143.22H143.149L143.079 118.9L142.162 119.454L142.232 119.385L142.303 119.315H142.374H142.444H142.515H142.586L142.656 119.385L142.727 119.454L144.915 120.7L144.985 120.769L145.056 120.838L145.127 120.908L145.197 120.977L145.268 121.046L145.339 121.116V121.185V121.254V128.245V128.314V128.383L145.268 128.453L145.197 128.522L145.127 128.591L145.056 128.661L144.985 128.73L145.832 128.245L145.902 128.176L145.973 128.107L146.044 128.037L146.114 127.968L146.185 127.899L146.256 127.829V127.76V127.691V120.7V120.631L146.185 120.562ZM146.185 109.488V109.419L146.114 109.35L146.044 109.28L145.973 109.211L145.902 109.142L145.832 109.072L143.644 107.827L143.573 107.757H143.503H143.432H143.361H143.291H143.22H143.149L143.079 107.827L142.162 108.38L142.232 108.311L142.303 108.241H142.374H142.444H142.515H142.586L142.656 108.311L142.727 108.38L144.915 109.626L144.985 109.695L145.056 109.764L145.127 109.834L145.197 109.903L145.268 109.972L145.339 110.042V110.111V110.181V117.171V117.24V117.31L145.268 117.379L145.197 117.448L145.127 117.518L145.056 117.587L144.985 117.656L145.832 117.171L145.902 117.102L145.973 117.033L146.044 116.963L146.114 116.894L146.185 116.825L146.256 116.755V116.686V116.617V109.626V109.557L146.185 109.488Z" fill="#0096DB"/>
<path d="M277.766 131.427C277.766 131.497 277.837 131.566 277.837 131.635C277.837 131.703 277.837 131.704 277.908 131.773C277.978 131.912 277.978 131.981 277.978 132.119C277.978 132.189 278.05 132.258 278.05 132.327C278.05 132.396 278.05 132.465 278.12 132.534C278.12 132.673 278.191 132.811 278.191 132.95C278.473 134.818 278.332 136.479 279.25 137.379C280.167 138.279 280.943 135.303 282.072 135.788C283.2 136.272 284.188 141.394 283.412 142.016C282.706 142.639 281.013 142.016 280.801 142.016C280.801 142.016 282.495 143.747 282.424 144.577C282.424 144.577 282.777 143.608 283.693 143.954C283.975 144.093 284.469 144.439 284.963 144.854C284.963 144.854 284.963 144.854 285.034 144.854C285.104 144.924 285.175 144.993 285.246 144.993L285.316 145.062C285.387 145.132 285.457 145.132 285.529 145.201L285.599 145.27C285.67 145.34 285.74 145.34 285.811 145.409C285.882 145.409 285.882 145.478 285.952 145.478C286.023 145.548 286.093 145.548 286.234 145.617C286.234 145.617 286.305 145.617 286.375 145.687C286.446 145.756 286.587 145.756 286.657 145.825H286.728C286.869 145.894 286.94 145.894 287.08 145.963C287.645 146.102 288.21 146.171 288.915 146.171C289.197 146.171 289.479 146.102 289.762 146.102C293.077 145.479 297.099 138.351 297.311 133.298C297.311 133.298 297.382 130.738 295.546 129.561C295.546 129.561 296.393 125.409 295.193 123.955C293.924 122.501 291.313 121.809 290.891 120.979C290.467 120.149 284.964 119.733 282.071 120.979C279.178 122.225 277.273 121.464 276.568 120.217C276.568 120.217 276.145 119.871 275.722 120.633C274.24 123.263 274.592 125.131 275.862 127.9C276.215 128.731 276.568 129.353 276.85 129.838C277.272 130.39 277.554 130.874 277.766 131.427Z" fill="#013D4E"/>
</svg>
