<svg width="507" height="507" viewBox="0 0 507 507" fill="none" xmlns="http://www.w3.org/2000/svg">
<path d="M284.959 277.329C284.934 277.633 284.959 277.887 284.985 278.165V278.14C283.793 277.887 282.805 278.267 282.171 278.698C281.765 277.785 281.537 276.746 281.41 275.783C282.957 275.073 284.706 275.884 284.706 275.884C284.706 275.884 284.807 275.884 284.959 275.884C284.985 276.315 284.985 276.797 284.959 277.329ZM284.351 274.971C284.554 275.047 284.706 275.098 284.858 275.174C284.63 273.856 284.173 273.425 284.173 273.425C282.931 273.45 281.968 273.197 281.258 272.817C281.233 273.425 281.258 274.287 281.36 275.25C282.069 274.794 283.109 274.515 284.351 274.971ZM285.213 278.977C285.213 279.002 285.213 279.002 285.213 278.977C284.554 278.774 283.413 278.596 282.374 279.154C282.551 279.484 282.729 279.788 282.957 280.092C284.173 281.638 285.238 281.055 285.948 280.244C285.669 279.864 285.39 279.458 285.213 278.977ZM303.034 286.911C302.578 286.354 302.121 285.796 301.69 285.289C301.817 285.441 301.944 285.593 302.096 285.745C301.564 285.745 300.854 285.948 300.423 286.987C300.372 287.114 300.321 287.241 300.271 287.342L299.561 286.582C299.89 286.201 300.702 285.365 301.462 285.061L301.69 285.314L300.474 284.072C300.347 283.971 300.22 283.92 300.144 283.92C299.434 283.895 298.953 284.985 298.04 284.959L301.234 288.381L301.133 288.255C301.589 287.773 302.375 287.038 303.034 286.911ZM304.53 288.584C304.276 288.331 304.023 288.052 303.744 287.722C303.262 287.646 302.4 287.672 301.868 288.736C302.578 289.117 303.718 289.649 304.2 289.446C304.53 289.269 304.58 288.914 304.53 288.584ZM177.475 283.438L122.339 251.624V264.35L177.475 296.189L276.695 238.898V226.173L177.475 283.438ZM305.898 233.271L306.938 243.233C306.938 243.233 303.769 246.022 299.51 245.591L299.764 248.328L299.789 249.444C298.015 249.926 292.995 250.813 289.497 247.416C290.105 243.918 290.486 238.645 290.688 235.07C292.26 235.831 295.708 237.073 299.789 236.059C302.882 235.299 304.808 234.158 305.898 233.271Z" fill="#90A7B5"/>
<path d="M288.686 250.559C288.99 249.951 289.269 248.81 289.497 247.416C292.995 250.813 298.015 249.951 299.789 249.444L299.84 251.244C294.136 254.666 288.686 250.559 288.686 250.559ZM299.51 245.591L299.764 248.329C299.764 248.329 306.329 247.543 307.217 245.794L306.938 243.233C306.938 243.233 303.769 246.022 299.51 245.591ZM307.267 292.184C306.355 294.111 303.287 293.781 302.299 293.883C301.31 293.984 298.648 290.79 296.747 290.131C294.846 289.446 294.592 289.091 294.592 289.091C293.223 283.895 295.733 283.54 295.733 283.54C295.733 284.376 297.077 284.934 298.015 284.985C298.04 284.985 298.04 284.985 298.065 284.985L301.259 288.407C301.259 288.407 303.516 289.776 304.2 289.472C304.555 289.32 304.58 288.939 304.555 288.61C304.58 288.635 304.631 288.686 304.656 288.711C306 290.004 308.18 290.232 307.267 292.184ZM299.84 283.945H299.865C299.865 283.945 299.865 283.945 299.84 283.945ZM300.22 283.92C300.245 283.92 300.271 283.945 300.271 283.945C300.245 283.92 300.22 283.92 300.22 283.92ZM300.474 284.047C300.398 283.996 300.347 283.971 300.296 283.945C300.347 283.971 300.398 283.996 300.474 284.047ZM300.474 284.047C300.803 284.275 301.209 284.731 301.69 285.289L300.474 284.047ZM299.967 283.92H299.992C299.992 283.895 299.992 283.92 299.967 283.92ZM303.338 287.241C303.338 287.266 303.338 287.266 303.338 287.241C303.338 287.266 303.338 287.266 303.338 287.241ZM301.868 285.492C301.817 285.416 301.766 285.365 301.69 285.289C301.766 285.365 301.817 285.416 301.868 285.492ZM302.045 285.694C301.995 285.618 301.944 285.568 301.868 285.492C301.944 285.568 301.995 285.644 302.045 285.694ZM302.223 285.923C302.172 285.847 302.096 285.77 302.045 285.72C302.121 285.77 302.172 285.847 302.223 285.923ZM302.806 286.607C302.603 286.379 302.425 286.151 302.223 285.923C302.425 286.151 302.628 286.379 302.806 286.607ZM287.317 283.159C286.582 285.035 286.227 285.973 282.678 285.061C279.129 284.148 279.458 279.712 278.242 278.089C277.025 276.467 276.062 275.529 276.036 274.515C276.011 273.501 277.43 270.434 279.281 270.662C279.281 270.662 279.763 271.955 281.258 272.766C281.208 274.388 281.334 277.963 282.957 280.041C284.173 281.588 285.238 281.005 285.948 280.194C286.785 281.309 287.748 282.069 287.317 283.159ZM266.555 227.82L180.34 277.582L192.077 270.789V215.526L204.6 208.301V263.615L218.745 255.452L218.644 200.214L266.555 227.82ZM173.014 226.528L182.266 221.179L132.479 249.951L180.365 277.608L172.963 273.324L173.014 226.528ZM290.917 225.945C293.883 222.522 302.4 221.559 304.758 221.356C304.377 218.821 304.048 216.464 304.048 216.464L303.541 213.219C298.141 211.85 290.384 217.909 290.384 217.909C291.246 221.204 290.967 223.815 290.917 225.945ZM408.186 139.095L421.368 146.7C421.976 147.055 422.356 147.714 422.356 148.399L422.331 163.584C422.331 165.105 420.683 166.042 419.39 165.282L406.234 157.677C405.625 157.322 405.245 156.688 405.245 155.979V140.794C405.22 139.298 406.867 138.335 408.186 139.095ZM386.055 129.361V144.546C386.055 145.255 386.435 145.889 387.044 146.244L400.2 153.849C401.519 154.61 403.141 153.672 403.141 152.151L403.166 136.966C403.166 136.256 402.786 135.622 402.178 135.268L388.996 127.663C387.678 126.902 386.055 127.84 386.055 129.361ZM304.048 216.514C304.048 216.489 304.048 216.489 304.048 216.464C304.048 216.489 304.048 216.514 304.048 216.514ZM304.631 220.444C304.631 220.368 304.606 220.291 304.606 220.241C304.606 220.291 304.606 220.368 304.631 220.444ZM304.682 220.9C304.656 220.773 304.656 220.672 304.631 220.545C304.656 220.672 304.656 220.773 304.682 220.9ZM304.555 219.962V219.937C304.555 219.962 304.555 219.962 304.555 219.962ZM304.099 216.895C304.099 216.869 304.099 216.844 304.099 216.844C304.099 216.869 304.099 216.869 304.099 216.895ZM294.744 205.867C294.744 205.867 294.744 205.893 294.77 205.893C294.77 205.893 294.77 205.893 294.744 205.867ZM294.871 206.019C294.846 205.994 294.846 205.994 294.82 205.969C294.846 205.969 294.846 205.994 294.871 206.019ZM294.871 206.019C294.897 206.045 294.897 206.045 294.922 206.07C294.922 206.045 294.897 206.045 294.871 206.019ZM294.744 205.867V205.842V205.867ZM299.079 203.789C298.648 203.637 298.243 203.459 297.863 203.206C297.964 203.637 298.065 204.067 298.141 204.448C298.344 204.346 298.572 204.194 298.826 204.067C298.953 204.422 299.029 204.727 299.105 205.031C299.029 204.676 298.902 204.296 298.75 203.865C298.75 203.89 298.877 203.839 299.079 203.789ZM302.502 203.231L302.527 203.206C302.527 203.206 302.527 203.206 302.502 203.231ZM300.752 204.017C300.727 204.017 300.676 204.017 300.651 204.017C300.676 204.042 300.702 204.017 300.752 204.017ZM300.271 204.017C300.169 204.017 300.068 203.991 299.967 203.991C300.068 204.017 300.169 204.017 300.271 204.017ZM299.105 205.056C299.105 205.081 299.105 205.107 299.105 205.107C299.13 205.234 299.155 205.36 299.181 205.462C299.181 205.487 299.181 205.512 299.206 205.538C299.231 205.639 299.231 205.741 299.257 205.817C299.257 205.842 299.257 205.893 299.257 205.918C299.257 205.994 299.257 206.07 299.282 206.146C299.282 206.172 299.282 206.197 299.282 206.222C299.282 206.324 299.282 206.4 299.282 206.476C299.282 206.501 299.282 206.526 299.282 206.552C299.282 206.602 299.257 206.679 299.257 206.729C299.257 206.755 299.257 206.78 299.231 206.78C299.206 206.856 299.206 206.907 299.181 206.983V207.008C299.155 207.059 299.13 207.109 299.105 207.16C299.105 207.186 299.079 207.186 299.079 207.186C299.054 207.236 299.029 207.262 298.978 207.312C298.927 207.363 298.902 207.388 298.851 207.414C298.851 207.414 298.826 207.414 298.826 207.439C298.8 207.439 298.8 207.464 298.775 207.464C297.761 207.971 295.657 206.653 294.998 206.07C295.936 206.957 300.169 209.492 299.105 205.056ZM299.738 203.966C299.713 203.966 299.688 203.966 299.662 203.941C299.688 203.941 299.713 203.966 299.738 203.966ZM303.465 194.739C303.49 194.789 303.49 194.815 303.516 194.865C303.516 194.815 303.49 194.764 303.465 194.739ZM303.592 195.018C303.617 195.068 303.642 195.119 303.642 195.17C303.617 195.119 303.617 195.068 303.592 195.018ZM301.969 203.662C301.995 203.662 302.02 203.637 302.02 203.637C302.02 203.637 301.995 203.637 301.969 203.662ZM303.338 194.434C303.338 194.46 303.363 194.485 303.363 194.511C303.363 194.485 303.338 194.46 303.338 194.434ZM303.845 195.93C303.82 195.854 303.82 195.778 303.794 195.727C303.82 195.778 303.845 195.854 303.845 195.93ZM426.615 174.56V256.618L386.334 233.372C381.999 230.862 376.574 234.006 376.574 239V264.046L310.107 225.666C309.802 225.108 309.574 224.626 309.498 224.297C309.219 223.08 305.468 218.238 304.048 216.464C306.482 215.526 307.521 213.041 307.521 213.041C307.521 213.041 304.631 210.506 304.656 207.262C304.682 202.8 303.085 202.876 302.73 202.952L302.704 202.977C303.87 201.507 304.048 198.693 303.845 195.93C303.921 196.285 303.972 196.691 303.972 197.046C303.946 198.465 304.859 195.22 304.149 193.42C307.546 191.494 305.442 186.576 305.442 186.576C305.442 186.576 304.251 182.343 300.347 184.497C296.443 186.652 298.065 189.593 298.065 189.593C295.657 188.325 294.542 190.962 294.542 190.962C294.542 190.962 293.528 190.531 292.488 191.849C291.424 193.167 292.336 194.587 292.336 194.587C292.083 195.17 292.184 195.803 292.387 196.31C292.007 196.26 291.652 196.437 291.601 197.223C291.5 199.023 293.705 199.048 293.705 199.048C293.705 199.048 293.883 199.302 294.187 199.707C294.313 201.102 294.592 204.397 294.339 205.538C293.984 205.462 293.553 205.512 293.553 205.512C293.553 205.512 287.089 208.909 286.734 209.087C286.506 209.188 286.024 210.43 285.618 211.52L238.62 184.421V65.8593L426.615 174.56ZM293.756 205.436C293.857 205.436 293.933 205.462 294.009 205.512C293.933 205.462 293.857 205.436 293.756 205.436ZM248.76 120.184L281.258 138.943L346.281 176.487V163.964L248.76 107.687V120.184ZM346.281 196.184V183.661L248.76 127.384V139.907L281.258 158.666L346.281 196.184ZM351.148 215.703C351.148 214.917 350.717 214.182 350.033 213.802L326.356 200.138C324.886 199.276 323.035 200.341 323.035 202.039V213.143C323.035 213.929 323.466 214.664 324.15 215.044L347.827 228.708C349.298 229.57 351.148 228.505 351.148 226.806V215.703ZM410.746 204.676C410.746 202.749 409.732 200.975 408.059 200.037L384.61 186.5C381.036 184.421 376.549 187.007 376.549 191.139V218.213C376.549 220.139 377.563 221.914 379.236 222.852L402.685 236.389C406.259 238.467 410.746 235.882 410.746 231.75V204.676ZM303.769 195.626C303.744 195.499 303.693 195.398 303.668 195.296C303.718 195.398 303.744 195.499 303.769 195.626ZM294.795 205.918C294.795 205.918 294.82 205.943 294.82 205.969C294.795 205.943 294.795 205.918 294.795 205.918ZM300.981 203.991C301.006 203.991 301.057 203.991 301.082 203.966C301.057 203.991 301.031 203.991 300.981 203.991ZM301.69 203.789C301.716 203.789 301.741 203.763 301.741 203.763C301.741 203.789 301.716 203.789 301.69 203.789ZM294.491 205.614H294.466H294.491Z" fill="#EDEDED"/>
<path d="M477.848 322.452V337.408L264.172 460.762L29.1525 325.063V310.107L264.172 445.805L477.848 322.452ZM410.746 204.676V231.75C410.746 235.882 406.284 238.467 402.685 236.389L379.236 222.852C377.563 221.889 376.549 220.114 376.549 218.213V191.139C376.549 187.007 381.01 184.421 384.61 186.5L408.059 200.037C409.732 201 410.746 202.775 410.746 204.676ZM386.283 204.397C386.283 207.997 388.818 212.382 391.936 214.207C395.08 216.007 397.615 214.562 397.64 210.963C397.665 207.363 395.105 202.977 391.987 201.152C388.844 199.352 386.309 200.797 386.283 204.397ZM404.586 233.803C402.583 226.857 397.691 219.937 391.936 216.616C386.182 213.295 381.264 214.537 379.236 219.176L404.586 233.803ZM376.574 239V302.907C376.574 305.239 377.816 307.394 379.819 308.535L435.158 340.501C439.493 343.011 444.918 339.867 444.918 334.873V270.966C444.918 268.634 443.676 266.479 441.673 265.338L386.334 233.372C381.999 230.862 376.574 233.98 376.574 239ZM346.611 316.52C345.14 315.354 344.456 313.605 344.583 313.301C344.785 312.768 344.583 291.17 344.557 289.674C344.557 289.624 344.583 289.573 344.608 289.522L345.47 288.458C345.521 288.382 345.546 288.28 345.495 288.179C345.419 288.052 345.242 288.027 345.115 288.128C342.022 291.221 340.932 296.265 340.374 300.803C339.538 307.394 339.031 314.34 341.718 320.399C342.909 323.086 344.608 325.671 346.382 328.13C346.509 328.308 346.813 328.232 346.813 328.004C346.788 325.874 346.763 321.641 346.712 316.723C346.687 316.621 346.661 316.545 346.611 316.52ZM324.987 325.747C324.987 325.925 324.835 326.026 324.683 325.976L323.136 325.418C323.035 325.393 322.984 325.291 322.984 325.19C323.111 323.086 324.328 302.172 324.911 293.553C325.519 284.478 328.891 284.579 329.525 284.123C329.144 284.376 328.739 284.655 328.333 285.01C324.531 288.255 324.81 317.103 324.987 325.747ZM365.319 291.576L351.731 299.409L360.781 304.631L374.369 296.798L365.319 291.576Z" fill="#0096DB"/>
<path d="M346.281 163.989V176.512L281.284 138.969L248.785 120.21V107.687L346.281 163.989ZM248.76 127.384V139.907L281.258 158.666L346.281 196.184V183.661L248.76 127.384ZM204.651 208.276V263.589L218.796 255.427L218.694 200.189L204.651 208.276ZM173.014 226.528L172.938 273.324L180.34 277.608L192.077 270.814V215.526L173.014 226.528ZM386.283 204.397C386.283 207.997 388.818 212.382 391.936 214.208C395.08 216.007 397.615 214.562 397.64 210.963C397.64 207.363 395.105 202.977 391.987 201.152C388.844 199.352 386.309 200.797 386.283 204.397ZM379.236 219.151L404.586 233.778C402.583 226.832 397.691 219.911 391.936 216.59C386.182 213.295 381.264 214.537 379.236 219.151Z" fill="white"/>
<path d="M345.267 271.423C345.267 271.448 345.267 271.448 345.267 271.473C345.267 271.473 345.267 271.448 345.267 271.423ZM341.236 273.527C341.262 273.527 341.287 273.501 341.312 273.501C341.262 273.527 341.262 273.527 341.236 273.527ZM345.698 276.695C345.698 276.721 345.673 276.721 345.673 276.746C345.673 276.721 345.673 276.721 345.698 276.695ZM345.166 271.676C345.166 271.651 345.191 271.651 345.191 271.625C345.191 271.625 345.166 271.651 345.166 271.676ZM345.597 276.873C345.597 276.898 345.571 276.898 345.571 276.924C345.597 276.898 345.597 276.898 345.597 276.873ZM345.064 271.803C345.064 271.828 345.039 271.828 345.014 271.854C345.039 271.828 345.064 271.803 345.064 271.803ZM344.887 271.98C344.861 272.006 344.861 272.006 344.836 272.031C344.861 272.006 344.861 271.98 344.887 271.98ZM337.282 276.315C337.282 276.34 337.307 276.366 337.307 276.391C337.307 276.366 337.307 276.34 337.282 276.315ZM345.267 271.372C345.267 271.347 345.267 271.347 345.267 271.321C345.267 271.347 345.267 271.372 345.267 271.372ZM345.901 278.647C345.951 278.647 346.002 278.622 346.053 278.597C346.002 278.622 345.951 278.647 345.901 278.647ZM346.205 278.47C346.154 278.521 346.104 278.571 346.053 278.597C346.104 278.571 346.154 278.521 346.205 278.47ZM346.484 278.343C346.484 278.368 346.484 278.368 346.484 278.343C346.484 278.368 346.484 278.368 346.484 278.343ZM346.078 276.366C346.053 276.366 346.053 276.366 346.078 276.366C346.053 276.366 346.078 276.366 346.078 276.366ZM346.889 278.571C346.915 278.571 346.94 278.597 346.965 278.597C346.915 278.597 346.889 278.597 346.889 278.571ZM345.926 276.442C345.901 276.442 345.901 276.467 345.875 276.467C345.901 276.467 345.926 276.467 345.926 276.442ZM344.785 272.056C344.76 272.082 344.76 272.082 344.735 272.107C344.735 272.082 344.76 272.082 344.785 272.056ZM346.281 278.394C346.256 278.394 346.256 278.394 346.281 278.394C346.256 278.394 346.256 278.394 346.281 278.394ZM344.405 272.31C344.38 272.31 344.354 272.335 344.329 272.335C344.354 272.335 344.38 272.31 344.405 272.31ZM344.608 272.183C344.633 272.158 344.659 272.158 344.659 272.132C344.659 272.158 344.633 272.158 344.608 272.183ZM343.112 272.868C343.087 272.868 343.062 272.893 343.036 272.893C343.062 272.893 343.087 272.893 343.112 272.868ZM342.377 273.121C342.352 273.121 342.326 273.146 342.301 273.146C342.326 273.146 342.352 273.146 342.377 273.121ZM342.757 272.994C342.732 272.994 342.707 273.02 342.681 273.02C342.681 273.02 342.707 273.02 342.757 272.994ZM342.935 272.944C342.909 272.944 342.884 272.969 342.859 272.969C342.859 272.969 342.909 272.944 342.935 272.944ZM342.555 273.07C342.529 273.07 342.504 273.096 342.479 273.096C342.504 273.096 342.529 273.07 342.555 273.07ZM341.541 273.425C341.566 273.425 341.591 273.4 341.617 273.4C341.591 273.4 341.566 273.4 341.541 273.425ZM341.388 273.476C341.414 273.476 341.439 273.451 341.465 273.451C341.439 273.451 341.414 273.476 341.388 273.476ZM341.769 273.349C341.743 273.349 341.743 273.375 341.718 273.375C341.743 273.349 341.769 273.349 341.769 273.349ZM341.946 273.273C341.921 273.273 341.921 273.273 341.895 273.298C341.921 273.298 341.946 273.273 341.946 273.273ZM344.05 272.487C344.076 272.487 344.101 272.462 344.126 272.462C344.101 272.462 344.076 272.462 344.05 272.487ZM344.202 272.411C344.228 272.411 344.253 272.386 344.278 272.386C344.228 272.386 344.228 272.411 344.202 272.411ZM343.29 272.817C343.264 272.817 343.239 272.842 343.214 272.842C343.239 272.817 343.264 272.817 343.29 272.817ZM343.949 272.513C343.923 272.513 343.898 272.538 343.873 272.538C343.898 272.538 343.923 272.538 343.949 272.513ZM346.864 278.571C346.839 278.571 346.839 278.546 346.813 278.546C346.813 278.546 346.839 278.546 346.864 278.571ZM344.532 272.208C344.507 272.234 344.481 272.234 344.456 272.259C344.507 272.234 344.532 272.234 344.532 272.208ZM344.937 271.93C344.963 271.904 344.963 271.904 344.988 271.879C344.963 271.904 344.963 271.904 344.937 271.93ZM343.366 272.766C343.391 272.766 343.416 272.741 343.442 272.741C343.442 272.741 343.391 272.766 343.366 272.766ZM343.619 272.665C343.594 272.665 343.569 272.69 343.543 272.69C343.569 272.69 343.594 272.69 343.619 272.665ZM343.721 272.639C343.746 272.639 343.771 272.614 343.797 272.614C343.771 272.614 343.746 272.614 343.721 272.639ZM345.242 271.524C345.242 271.549 345.216 271.549 345.216 271.575C345.216 271.549 345.242 271.549 345.242 271.524ZM338.372 274.262C338.397 274.262 338.397 274.287 338.423 274.287C338.397 274.287 338.397 274.287 338.372 274.262ZM346.382 276.239H346.408C346.408 276.239 346.408 276.239 346.382 276.239ZM337.409 273.729C337.358 273.704 337.332 273.704 337.282 273.679C337.332 273.704 337.358 273.729 337.409 273.729ZM338.676 274.49C338.701 274.49 338.701 274.515 338.727 274.515C338.701 274.515 338.701 274.49 338.676 274.49ZM337.459 273.755C337.535 273.78 337.586 273.805 337.662 273.856C337.611 273.831 337.535 273.78 337.459 273.755ZM338.955 274.718L338.93 274.693C338.93 274.718 338.955 274.718 338.955 274.718ZM339.614 275.631C339.614 275.631 339.614 275.656 339.614 275.631C339.614 275.656 339.614 275.631 339.614 275.631ZM337.13 273.653C337.155 273.653 337.18 273.679 337.231 273.679C337.18 273.653 337.155 273.653 337.13 273.653ZM339.538 275.453C339.538 275.479 339.538 275.479 339.538 275.453C339.538 275.479 339.538 275.479 339.538 275.453ZM336.876 273.628C336.902 273.628 336.927 273.628 336.952 273.628C336.901 273.628 336.876 273.628 336.876 273.628ZM336.547 273.958C336.547 273.983 336.547 274.034 336.547 274.059C336.521 274.034 336.547 274.008 336.547 273.958ZM336.572 273.831C336.572 273.805 336.597 273.805 336.597 273.78C336.597 273.805 336.597 273.805 336.572 273.831ZM336.572 273.856C336.572 273.882 336.547 273.907 336.547 273.932C336.547 273.907 336.572 273.882 336.572 273.856ZM337.409 276.543C337.409 276.518 337.383 276.518 337.383 276.493C337.383 276.518 337.409 276.543 337.409 276.543ZM336.978 273.628C337.003 273.628 337.028 273.628 337.054 273.628C337.028 273.628 337.003 273.628 336.978 273.628ZM337.358 276.467C337.358 276.442 337.332 276.442 337.332 276.417C337.358 276.442 337.358 276.467 337.358 276.467ZM336.775 273.653C336.8 273.653 336.8 273.653 336.825 273.628C336.8 273.628 336.775 273.653 336.775 273.653ZM339.665 275.783C339.665 275.808 339.665 275.808 339.665 275.783C339.665 275.808 339.665 275.808 339.665 275.783ZM336.724 273.653C336.699 273.653 336.699 273.679 336.673 273.679C336.699 273.679 336.724 273.679 336.724 273.653ZM336.623 273.755C336.623 273.729 336.648 273.729 336.648 273.704C336.648 273.729 336.648 273.729 336.623 273.755ZM338.068 274.084L338.042 274.059L338.068 274.084ZM340.298 274.515V274.541C340.273 274.541 340.273 274.515 340.298 274.515ZM340.349 274.312C340.349 274.287 340.349 274.287 340.374 274.262C340.374 274.287 340.374 274.287 340.349 274.312ZM340.222 274.794V274.769V274.794ZM340.197 275.022C340.197 275.048 340.197 275.048 340.197 275.073C340.197 275.073 340.197 275.048 340.197 275.022ZM340.197 275.352V275.326C340.197 275.352 340.197 275.352 340.197 275.352ZM339.69 275.935C339.715 275.935 339.715 275.96 339.69 275.935C339.715 275.96 339.715 275.935 339.69 275.935ZM345.774 276.594C345.799 276.569 345.799 276.569 345.825 276.543C345.799 276.569 345.774 276.594 345.774 276.594ZM340.78 273.755L340.805 273.729C340.805 273.729 340.78 273.729 340.78 273.755ZM340.628 273.882L340.603 273.907L340.628 273.882ZM345.521 277.126C345.47 277.38 345.47 277.583 345.47 277.785C345.47 277.608 345.495 277.38 345.521 277.126ZM340.197 275.631C340.197 275.605 340.197 275.605 340.197 275.58C340.197 275.605 340.197 275.631 340.197 275.631ZM339.715 277.608H339.944C339.817 277.608 339.715 277.507 339.715 277.38V277.608ZM339.715 276.188C339.715 276.188 339.715 276.163 339.715 276.188C339.715 276.163 339.715 276.188 339.715 276.188ZM340.222 275.935C340.222 275.91 340.222 275.91 340.222 275.884C340.197 275.91 340.222 275.91 340.222 275.935ZM340.324 276.721C340.324 276.695 340.324 276.695 340.324 276.67C340.324 276.695 340.324 276.721 340.324 276.721ZM340.273 276.467C340.273 276.442 340.273 276.442 340.273 276.417C340.273 276.442 340.273 276.467 340.273 276.467ZM345.14 271.701C345.14 271.727 345.115 271.727 345.115 271.752C345.115 271.752 345.14 271.727 345.14 271.701ZM292.691 235.857H292.716C292.691 235.857 292.691 235.857 292.691 235.857ZM294.947 236.338C294.897 236.338 294.871 236.338 294.846 236.313C294.871 236.338 294.897 236.338 294.947 236.338ZM293.249 236.009C293.198 236.009 293.173 235.983 293.122 235.983C293.173 235.983 293.223 236.009 293.249 236.009ZM293.68 236.11C293.705 236.11 293.73 236.11 293.73 236.135C293.73 236.135 293.705 236.11 293.68 236.11ZM295.632 236.414C295.581 236.414 295.53 236.414 295.48 236.414C295.53 236.414 295.581 236.414 295.632 236.414ZM294.39 236.262C294.339 236.262 294.288 236.237 294.237 236.237C294.288 236.237 294.339 236.237 294.39 236.262ZM300.321 248.253C300.296 248.253 300.271 248.253 300.245 248.253C300.296 248.253 300.296 248.253 300.321 248.253ZM302.882 235.045C302.831 235.071 302.78 235.096 302.704 235.121C302.755 235.096 302.806 235.071 302.882 235.045ZM296.24 236.44C296.189 236.44 296.139 236.44 296.088 236.44C296.139 236.44 296.189 236.44 296.24 236.44ZM299.941 248.303C299.967 248.303 299.967 248.303 299.992 248.303C299.992 248.303 299.967 248.303 299.941 248.303ZM299.84 248.329H299.865C299.865 248.329 299.865 248.329 299.84 248.329ZM303.49 234.766C303.541 234.741 303.592 234.716 303.617 234.69C303.592 234.716 303.541 234.741 303.49 234.766ZM303.972 234.513C303.947 234.538 303.896 234.538 303.87 234.564C303.921 234.538 303.947 234.538 303.972 234.513ZM304.251 234.361C304.276 234.361 304.276 234.336 304.301 234.336C304.276 234.336 304.276 234.361 304.251 234.361ZM303.11 234.944C303.161 234.919 303.211 234.893 303.262 234.868C303.211 234.893 303.161 234.919 303.11 234.944ZM300.474 248.227C300.499 248.227 300.524 248.227 300.524 248.227C300.524 248.227 300.499 248.227 300.474 248.227ZM305.493 226.046C305.467 225.894 305.442 225.742 305.417 225.564C305.442 225.742 305.467 225.894 305.493 226.046ZM291.398 235.4C291.373 235.4 291.373 235.375 291.348 235.375C291.373 235.375 291.373 235.4 291.398 235.4ZM291.779 235.552C291.804 235.552 291.804 235.552 291.829 235.578C291.804 235.552 291.779 235.552 291.779 235.552ZM305.391 225.412C305.391 225.362 305.366 225.286 305.366 225.235C305.366 225.286 305.391 225.336 305.391 225.412ZM292.26 235.704C292.235 235.704 292.184 235.679 292.159 235.679C292.184 235.704 292.235 235.704 292.26 235.704ZM300.093 248.303C300.119 248.303 300.119 248.303 300.144 248.303C300.119 248.278 300.119 248.278 300.093 248.303ZM299.84 251.269C299.688 251.371 299.51 251.447 299.358 251.548C299.51 251.447 299.688 251.371 299.84 251.269ZM297.761 252.207C297.913 252.157 298.065 252.106 298.217 252.055C298.065 252.106 297.913 252.157 297.761 252.207ZM295.809 252.588C295.885 252.588 295.961 252.562 296.037 252.562C295.961 252.562 295.885 252.562 295.809 252.588ZM296.823 252.435C296.925 252.41 297.026 252.385 297.127 252.385C297.026 252.385 296.925 252.41 296.823 252.435ZM297.305 252.334C297.406 252.309 297.508 252.283 297.609 252.258C297.508 252.283 297.406 252.309 297.305 252.334ZM296.646 252.461C296.494 252.486 296.367 252.511 296.24 252.537C296.367 252.511 296.519 252.486 296.646 252.461ZM296.975 236.44C296.925 236.44 296.874 236.44 296.849 236.44C296.874 236.44 296.925 236.44 296.975 236.44ZM297.66 236.414C297.609 236.414 297.558 236.414 297.482 236.414C297.533 236.414 297.584 236.414 297.66 236.414ZM299.13 236.211C299.079 236.211 299.003 236.237 298.953 236.237C299.003 236.237 299.079 236.237 299.13 236.211ZM298.37 236.338C298.344 236.338 298.319 236.338 298.268 236.364C298.319 236.338 298.344 236.338 298.37 236.338ZM302.983 247.771C303.009 247.771 303.059 247.746 303.085 247.746C303.059 247.746 303.034 247.746 302.983 247.771ZM302.045 247.948C302.02 247.948 301.969 247.974 301.944 247.974C301.995 247.974 302.02 247.974 302.045 247.948ZM302.299 247.923C302.324 247.923 302.375 247.898 302.4 247.898C302.349 247.898 302.324 247.898 302.299 247.923ZM301.64 248.05C301.665 248.05 301.69 248.05 301.716 248.025C301.69 248.025 301.665 248.025 301.64 248.05ZM302.628 247.847C302.654 247.847 302.704 247.822 302.73 247.822C302.704 247.822 302.679 247.822 302.628 247.847ZM299.206 251.599C299.079 251.65 298.978 251.7 298.851 251.776C298.978 251.726 299.105 251.675 299.206 251.599ZM301.335 248.101C301.335 248.101 301.361 248.101 301.335 248.101C301.361 248.101 301.335 248.101 301.335 248.101ZM300.727 248.202C300.752 248.202 300.752 248.202 300.778 248.202C300.752 248.202 300.752 248.202 300.727 248.202ZM298.319 252.004C298.446 251.954 298.572 251.903 298.699 251.852C298.572 251.903 298.446 251.954 298.319 252.004ZM299.814 248.329C299.789 248.329 299.789 248.329 299.814 248.329C299.789 248.329 299.789 248.329 299.814 248.329ZM303.44 247.644C303.414 247.644 303.389 247.67 303.363 247.67C303.389 247.67 303.414 247.67 303.44 247.644ZM334.265 277.887C334.24 277.887 334.214 277.887 334.189 277.887C334.214 277.861 334.24 277.861 334.265 277.887ZM336.318 277.938C336.344 277.938 336.369 277.938 336.369 277.912C336.369 277.938 336.344 277.938 336.318 277.938ZM336.496 277.887C336.471 277.887 336.445 277.912 336.445 277.912C336.471 277.912 336.471 277.887 336.496 277.887ZM336.572 277.861C336.597 277.861 336.597 277.836 336.623 277.836C336.597 277.836 336.572 277.861 336.572 277.861ZM336.8 277.735C336.825 277.735 336.825 277.709 336.851 277.709C336.825 277.709 336.8 277.735 336.8 277.735ZM302.273 235.299C302.324 235.273 302.4 235.248 302.451 235.223C302.4 235.248 302.349 235.273 302.273 235.299ZM335.989 278.014C335.964 278.014 335.938 278.014 335.913 278.014C335.938 278.014 335.964 278.014 335.989 278.014ZM336.952 277.608C336.927 277.633 336.927 277.633 336.902 277.659C336.902 277.633 336.927 277.633 336.952 277.608ZM336.242 277.963C336.217 277.963 336.192 277.963 336.192 277.988C336.217 277.963 336.242 277.963 336.242 277.963ZM335.837 278.014C335.811 278.014 335.786 278.014 335.761 278.014C335.811 278.014 335.837 278.014 335.837 278.014ZM336.116 277.988C336.09 277.988 336.065 277.988 336.04 277.988C336.09 277.988 336.09 277.988 336.116 277.988ZM337.18 277.329C337.206 277.304 337.206 277.278 337.231 277.253C337.206 277.304 337.18 277.329 337.18 277.329ZM337.434 276.594C337.459 276.645 337.459 276.695 337.459 276.771C337.459 276.746 337.485 276.721 337.485 276.695C337.459 276.67 337.459 276.645 337.434 276.594C337.409 276.594 337.409 276.569 337.434 276.594ZM339.715 276.391C339.715 276.417 339.715 276.417 339.715 276.417V276.898V276.442C339.69 276.417 339.69 276.391 339.715 276.391ZM340.451 277.304C340.476 277.456 340.374 277.583 340.222 277.583H340.527C340.527 277.608 340.501 277.481 340.451 277.304ZM337.003 277.557C337.028 277.532 337.028 277.532 337.054 277.507C337.028 277.532 337.003 277.557 337.003 277.557ZM340.425 277.152V277.126C340.4 277.126 340.425 277.152 340.425 277.152ZM337.383 276.898C337.383 276.873 337.409 276.847 337.409 276.822C337.409 276.847 337.409 276.873 337.383 276.898ZM337.332 277.05C337.332 277.025 337.358 277 337.358 276.974C337.358 277 337.332 277.025 337.332 277.05ZM337.13 277.405C337.104 277.431 337.104 277.456 337.079 277.456C337.104 277.431 337.104 277.431 337.13 277.405ZM335.71 278.014C335.685 278.014 335.659 278.014 335.634 278.014C335.659 278.014 335.685 278.014 335.71 278.014ZM337.282 277.126C337.282 277.152 337.256 277.177 337.256 277.202C337.256 277.177 337.282 277.152 337.282 277.126ZM336.724 277.785C336.699 277.785 336.699 277.811 336.673 277.811C336.699 277.785 336.724 277.785 336.724 277.785ZM335.558 278.014C335.533 278.014 335.507 278.014 335.482 278.014C335.507 278.014 335.533 278.014 335.558 278.014ZM180.365 277.608L172.963 273.324L180.365 277.608L192.102 270.814L180.365 277.608ZM333.631 277.811C333.606 277.811 333.581 277.811 333.53 277.811C333.581 277.811 333.606 277.811 333.631 277.811ZM204.651 263.589L207.591 261.891L218.771 255.427L204.651 263.589ZM333.809 277.811C333.783 277.811 333.758 277.811 333.733 277.811C333.733 277.811 333.783 277.811 333.809 277.811ZM333.479 277.811C333.429 277.811 333.378 277.811 333.327 277.811C333.403 277.785 333.429 277.785 333.479 277.811ZM302.02 235.375C301.944 235.4 301.893 235.426 301.817 235.451C301.893 235.426 301.969 235.4 302.02 235.375ZM300.524 235.882C300.474 235.907 300.398 235.907 300.347 235.933C300.398 235.907 300.474 235.882 300.524 235.882ZM301.564 235.552C301.488 235.578 301.437 235.603 301.361 235.628C301.437 235.603 301.488 235.578 301.564 235.552ZM300.854 235.78C300.93 235.755 300.981 235.73 301.057 235.73C301.006 235.73 300.93 235.755 300.854 235.78ZM301.69 285.289L301.462 285.036C300.702 285.34 299.891 286.202 299.561 286.557L300.271 287.317C300.321 287.216 300.372 287.114 300.423 286.962C300.854 285.923 301.564 285.72 302.096 285.72C302.096 285.72 302.096 285.72 302.071 285.695C301.944 285.568 301.817 285.441 301.69 285.289ZM335.102 277.988C335.076 277.988 335.051 277.988 335.026 277.988C335.076 277.988 335.102 277.988 335.102 277.988ZM334.95 277.963C334.924 277.963 334.899 277.963 334.874 277.963C334.924 277.963 334.924 277.963 334.95 277.963ZM335.406 278.014C335.38 278.014 335.355 278.014 335.33 278.014C335.381 278.014 335.38 278.014 335.406 278.014ZM333.86 277.836C333.885 277.836 333.91 277.836 333.936 277.836C333.936 277.836 333.885 277.836 333.86 277.836ZM334.797 277.938C334.772 277.938 334.747 277.938 334.721 277.938C334.747 277.938 334.772 277.938 334.797 277.938ZM335.254 277.988C335.228 277.988 335.203 277.988 335.178 277.988C335.228 277.988 335.254 277.988 335.254 277.988ZM334.569 277.912C334.595 277.912 334.595 277.912 334.62 277.912C334.62 277.912 334.595 277.912 334.569 277.912ZM334.113 277.861C334.088 277.861 334.062 277.861 334.037 277.861C334.062 277.836 334.088 277.861 334.113 277.861ZM341.135 273.577H341.11C341.135 273.577 341.135 273.577 341.135 273.577ZM334.367 277.887C334.392 277.887 334.392 277.887 334.417 277.887C334.417 277.887 334.392 277.887 334.367 277.887ZM339.437 275.276C339.437 275.301 339.437 275.301 339.437 275.276C339.437 275.301 339.437 275.301 339.437 275.276ZM346.788 325.342C346.788 325.165 346.788 324.987 346.788 324.784C346.763 324.987 346.788 325.165 346.788 325.342ZM346.788 325.443C346.788 325.646 346.788 325.824 346.788 326.001C346.788 325.824 346.788 325.646 346.788 325.443ZM346.763 323.441C346.763 323.897 346.763 324.303 346.763 324.708C346.763 324.328 346.763 323.897 346.763 323.441ZM346.788 326.026C346.788 326.204 346.788 326.381 346.788 326.559C346.788 326.381 346.788 326.204 346.788 326.026ZM346.788 326.99C346.788 326.888 346.788 326.787 346.788 326.66C346.788 326.762 346.788 326.863 346.788 326.99ZM346.712 319.309C346.712 319.055 346.712 318.776 346.712 318.523C346.712 318.802 346.712 319.055 346.712 319.309ZM346.788 327.497C346.788 327.37 346.788 327.243 346.788 327.117C346.788 327.243 346.788 327.37 346.788 327.497ZM346.763 323.339C346.763 323.111 346.763 322.883 346.763 322.655C346.763 322.908 346.763 323.137 346.763 323.339ZM346.737 320.145C346.737 319.917 346.737 319.689 346.737 319.461C346.737 319.689 346.737 319.917 346.737 320.145ZM346.737 321.92C346.737 322.148 346.737 322.376 346.737 322.604C346.763 322.376 346.763 322.148 346.737 321.92ZM346.737 321.793C346.737 321.337 346.737 320.855 346.712 320.373C346.737 320.855 346.737 321.311 346.737 321.793ZM477.848 322.452L264.172 445.805L29.1525 310.107L122.339 256.314V264.35L177.475 296.19L276.695 238.899V226.173L225.64 196.665L242.752 186.779L285.618 211.546C285.365 212.23 285.162 212.864 285.086 213.092C284.934 213.675 282.5 219.987 282.5 219.987C282.729 220.697 283.312 221.154 284.021 221.432C283.312 223.258 282.729 224.626 282.475 224.931C281.613 225.869 283.667 238.392 283.667 238.392C283.667 238.392 283.464 244.932 284.883 246.022C284.883 246.022 285.162 246.098 285.061 245.312C285.061 245.312 285.796 247.213 285.923 245.768C285.923 245.768 287.038 247.112 286.861 245.768C286.861 245.768 288.077 247.315 288.356 246.427C288.635 245.515 287.216 244.678 287.089 242.904C287.089 242.904 289.041 243.664 289.142 242.448C289.142 242.448 286.911 241.079 286.708 240.622C286.531 240.166 285.973 240.343 285.821 238.29C285.669 236.262 287.469 234.158 287.216 228.378C287.216 228.378 286.911 225.539 286.987 224.779C287.013 224.424 287.469 223.182 288.077 221.838C288.686 221.787 289.091 221.737 289.091 221.737C289.041 221.154 290.384 217.858 290.384 217.858C291.246 221.128 290.967 223.739 290.917 225.894C290.917 226.021 290.917 226.147 290.917 226.274C290.917 226.401 290.917 226.528 290.917 226.654C290.917 226.807 290.917 226.984 290.917 227.136C290.993 229.519 289.776 234.513 289.776 234.513C289.776 234.513 290.105 234.741 290.714 235.02C290.511 238.594 290.105 243.842 289.522 247.365C289.294 248.76 289.015 249.875 288.711 250.509C288.711 250.509 290.79 252.081 293.73 252.486C294.009 253.754 294.161 254.565 294.161 254.565C294.161 254.565 294.187 254.717 294.212 254.996C293.908 255.807 293.3 256.821 292.108 257.708C289.725 259.457 287.621 260.928 286.202 264.401C284.782 267.874 281.106 270.383 280.067 270.763C279.915 270.814 279.712 270.89 279.509 270.992C279.408 270.789 279.357 270.687 279.357 270.687C277.506 270.434 276.087 273.501 276.112 274.541C276.138 275.555 277.101 276.493 278.318 278.115C279.534 279.737 279.205 284.174 282.754 285.086C286.303 285.999 286.683 285.061 287.393 283.185C287.824 282.07 286.861 281.309 286.024 280.244C285.745 279.864 285.466 279.459 285.289 279.002C284.63 278.799 283.489 278.622 282.45 279.154C282.374 279.002 282.298 278.85 282.247 278.698C282.881 278.242 283.869 277.861 285.061 278.14V278.166C285.01 277.912 285.01 277.633 285.035 277.329C285.061 276.771 285.061 276.315 285.035 275.884C284.883 275.884 284.782 275.884 284.782 275.884C284.782 275.884 283.033 275.048 281.486 275.783C281.461 275.605 281.436 275.403 281.41 275.225C282.12 274.819 283.185 274.515 284.427 274.972C284.63 275.048 284.782 275.098 284.934 275.174C284.706 273.856 284.25 273.425 284.25 273.425C284.224 273.425 284.174 273.425 284.148 273.425C284.503 272.361 290.866 267.341 293.097 264.781C292.919 267.062 292.945 269.496 293.173 270.155C293.578 271.296 295.556 279.028 295.302 280.498C295.302 280.498 295.733 282.779 295.48 283.438C295.454 283.515 295.429 283.591 295.378 283.667C294.744 284.022 293.604 285.213 294.618 289.092C294.618 289.092 294.871 289.472 296.772 290.131C298.674 290.815 301.335 294.009 302.324 293.883C303.313 293.756 306.38 294.136 307.293 292.184C308.205 290.232 306.025 290.004 304.656 288.686C304.631 288.661 304.58 288.61 304.555 288.585C304.301 288.331 304.048 288.052 303.769 287.723C303.287 287.647 302.426 287.672 301.893 288.737C301.969 288.787 302.045 288.813 302.121 288.863C301.64 288.61 301.259 288.382 301.259 288.382L301.158 288.255C301.614 287.773 302.4 287.038 303.085 286.911C302.755 286.531 302.451 286.126 302.121 285.771C302.121 285.771 302.121 285.771 302.096 285.745C301.969 285.593 301.842 285.441 301.716 285.289C301.234 284.731 300.803 284.275 300.499 284.047L300.702 284.25L300.499 284.047C300.474 284.022 300.423 283.996 300.398 283.971C300.372 283.945 300.347 283.945 300.296 283.92C300.296 283.92 300.296 283.92 300.321 283.92C300.271 283.895 300.195 283.869 300.144 283.869C299.992 283.869 299.84 283.92 299.688 283.996C299.688 283.971 299.688 283.971 299.688 283.945C299.713 283.362 299.536 273.146 299.536 273.146L299.282 260.649C299.282 260.649 299.307 259.559 299.333 258.165C299.865 257.734 300.6 256.897 301.564 255.351C302.476 253.855 303.237 250.838 303.82 247.543C305.366 247.137 306.836 246.554 307.217 245.794L306.938 243.233L305.898 233.271C306.836 232.536 307.191 231.953 307.141 231.953C307.065 231.953 306.101 228.581 305.746 227.364C305.696 227.238 305.645 226.984 305.594 226.654C305.594 226.629 305.594 226.578 305.569 226.553C305.544 226.401 305.518 226.249 305.493 226.071C307.952 228.708 310.867 231.953 310.867 232.409C310.867 233.195 313.808 236.414 313.808 236.414C313.808 236.414 315.455 238.797 315.937 238.67C316.419 238.544 315.633 237.301 315.633 237.301C315.633 237.301 316.444 238.138 317.002 238.265C317.559 238.417 316.317 236.668 316.317 236.668C316.317 236.668 317.788 237.504 318.269 237.504C318.776 237.53 317.686 236.237 317.686 236.237C319.08 236.642 319.841 236.313 318.878 235.907C317.914 235.502 314.923 232.333 314.923 232.333C317.458 232.789 317.737 231.217 317.205 231.37C316.672 231.522 313.351 230.685 313.351 230.685C313.351 230.685 311.171 227.668 310.081 225.64C310.081 225.64 310.081 225.666 310.107 225.666L376.574 264.046V302.907C376.574 305.239 377.816 307.394 379.819 308.535L435.158 340.501C439.493 343.011 444.918 339.868 444.918 334.874V303.465L477.848 322.452ZM331.172 274.642C331.857 276.315 331.705 277.785 333.327 277.785C333.885 278.825 334.417 279.687 334.671 280.194C334.823 280.498 335.304 280.827 335.989 281.106V282.348L341.414 283.236C341.338 282.931 341.262 282.627 341.211 282.323C343.67 282.627 346.053 282.551 346.687 281.816C347.143 281.309 347.168 280.042 346.991 278.571H346.965C347.143 278.622 347.295 278.546 347.498 278.191C347.903 277.405 347.675 276.619 347.549 276.34C347.523 276.264 347.447 276.214 347.371 276.188C347.194 276.163 346.889 276.138 346.56 276.163C346.56 276.163 346.56 276.163 346.585 276.163C346.078 273.78 345.368 271.499 345.292 271.22C345.292 271.194 345.318 271.169 345.318 271.144C345.622 270.687 347.523 267.468 344.557 264.984C341.591 262.474 338.22 264.933 337.738 265.288C337.687 265.313 337.662 265.339 337.611 265.339C336.952 265.339 332.262 265.541 331.502 268.989C330.665 272.715 330.488 272.969 331.172 274.642ZM362.429 303.693L374.369 296.798L365.319 291.576L351.731 299.409L356.548 302.197L351.681 306.938C352.34 290.765 346.104 288.027 345.875 287.925L344.557 289.548V289.522L345.419 288.458C345.47 288.382 345.495 288.306 345.444 288.23C345.47 288.255 345.495 288.306 345.521 288.331L345.799 288.001C344.709 286.1 341.845 285.137 341.845 285.137C341.845 285.137 341.617 284.25 341.388 283.286L335.964 282.399V283.717C335.964 283.717 333.327 281.639 329.474 284.148C328.84 284.579 325.469 284.503 324.86 293.578C324.277 302.197 323.06 323.086 322.934 325.215C322.934 325.317 322.984 325.418 323.086 325.443L323.618 325.646C323.136 326.99 322.325 329.423 322.579 330.792C322.756 331.781 324.15 333.048 325.291 333.809L327.725 378.628V378.602C327.497 380.529 327.218 383.039 327.269 383.292C327.345 383.698 328.739 384.281 331.046 383.875C333.353 383.47 336.293 378.374 336.699 377.233C337.003 376.397 334.24 376.346 332.719 376.372C333.023 369.73 334.138 334.341 334.848 335.152C335.583 336.014 339.36 382.734 339.538 384.915C339.411 386.106 339.082 389.478 339.563 389.706C340.146 389.959 348.917 390.846 351.528 387.728C354.139 384.61 344.811 384.534 344.811 384.534C344.811 384.534 344.659 384.382 344.456 384.205L347.042 329.246C347.042 329.246 347.016 323.796 346.94 316.85C346.839 316.774 346.737 316.723 346.636 316.647C346.636 316.672 346.636 316.723 346.636 316.748C346.636 316.672 346.611 316.622 346.535 316.571C345.064 315.405 344.38 313.656 344.507 313.351C344.709 312.819 344.507 291.221 344.481 289.725C344.481 289.7 344.481 289.649 344.507 289.624C344.507 289.979 344.735 312.794 344.532 313.326C344.304 313.884 346.611 318.903 351.3 317.255C355.23 315.861 360.604 306.913 362.429 303.693ZM345.546 326.964C345.444 326.812 345.343 326.686 345.242 326.533C345.343 326.66 345.444 326.812 345.546 326.964ZM287.646 221.914C287.646 221.914 287.672 221.914 287.646 221.914C287.672 221.914 287.646 221.914 287.646 221.914ZM346.712 317.661C346.712 317.94 346.712 318.193 346.712 318.447C346.712 318.193 346.712 317.914 346.712 317.661ZM344.887 325.976C344.785 325.824 344.684 325.672 344.583 325.545C344.684 325.672 344.785 325.824 344.887 325.976ZM342.986 322.883C342.909 322.756 342.833 322.604 342.757 322.477C342.833 322.63 342.909 322.756 342.986 322.883ZM342.2 321.438C342.25 321.565 342.326 321.666 342.377 321.793C342.326 321.666 342.276 321.565 342.2 321.438ZM346.23 327.928C346.129 327.776 346.027 327.649 345.926 327.497C346.027 327.649 346.129 327.776 346.23 327.928ZM343.949 324.531C344.05 324.683 344.126 324.835 344.228 324.962C344.126 324.81 344.025 324.683 343.949 324.531ZM343.34 323.517C343.416 323.669 343.518 323.796 343.594 323.948C343.493 323.796 343.416 323.644 343.34 323.517ZM324.987 325.342C324.987 325.317 324.987 325.317 324.987 325.291C324.987 325.317 324.987 325.342 324.987 325.342ZM324.962 323.365C324.962 323.39 324.962 323.415 324.962 323.441C324.962 323.415 324.962 323.39 324.962 323.365ZM324.962 323.846C324.962 323.872 324.962 323.897 324.962 323.922C324.962 323.897 324.962 323.872 324.962 323.846ZM324.936 322.883C324.936 322.858 324.936 322.807 324.936 322.782C324.936 322.807 324.936 322.858 324.936 322.883ZM324.987 324.911C324.987 324.886 324.987 324.886 324.987 324.86C324.987 324.886 324.987 324.911 324.987 324.911ZM324.962 324.353C324.962 324.379 324.962 324.404 324.962 324.429C324.962 324.429 324.962 324.404 324.962 324.353ZM324.936 322.275C324.936 322.249 324.936 322.224 324.936 322.199C324.936 322.224 324.936 322.249 324.936 322.275ZM324.936 321.007C324.936 321.033 324.936 321.058 324.936 321.109C324.936 321.058 324.936 321.033 324.936 321.007ZM324.911 320.348C324.911 320.373 324.911 320.424 324.911 320.449C324.911 320.399 324.911 320.373 324.911 320.348ZM346.712 317.534C346.712 317.281 346.712 317.053 346.712 316.799C346.712 317.053 346.712 317.306 346.712 317.534ZM324.936 321.666V321.641C324.936 321.666 324.936 321.666 324.936 321.666ZM332.719 377.259C332.719 377.259 332.719 377.233 332.719 377.259C332.719 377.233 332.719 377.259 332.719 377.259ZM332.744 377.132C332.744 377.132 332.719 377.132 332.744 377.132C332.719 377.132 332.744 377.132 332.744 377.132ZM346.788 328.714C346.788 328.409 346.788 328.054 346.788 327.598C346.788 327.725 346.788 327.852 346.788 327.978C346.788 328.207 346.509 328.308 346.382 328.131C346.509 328.333 346.661 328.511 346.788 328.714ZM324.911 319.714C324.911 319.74 324.911 319.74 324.911 319.765C324.911 319.74 324.911 319.714 324.911 319.714ZM325.063 328.181C325.063 328.156 325.063 328.156 325.063 328.105C325.063 328.131 325.063 328.156 325.063 328.181ZM325.038 327.902C325.038 327.877 325.038 327.877 325.038 327.902C325.038 327.877 325.038 327.877 325.038 327.902ZM282.146 278.673C282.069 278.495 281.993 278.292 281.917 278.115C281.993 278.292 282.069 278.495 282.146 278.673ZM281.867 277.938C281.841 277.861 281.816 277.76 281.791 277.684C281.816 277.76 281.841 277.836 281.867 277.938ZM282.957 280.092C282.855 279.94 282.754 279.813 282.653 279.661C282.754 279.788 282.855 279.94 282.957 280.092ZM281.664 277.126C281.689 277.228 281.715 277.354 281.74 277.456C281.715 277.354 281.689 277.253 281.664 277.126ZM282.627 279.611C282.526 279.459 282.45 279.306 282.374 279.154C282.45 279.306 282.551 279.459 282.627 279.611ZM291.018 235.223H291.043C291.018 235.248 291.018 235.223 291.018 235.223ZM281.562 276.645C281.588 276.721 281.588 276.771 281.613 276.847C281.588 276.771 281.562 276.721 281.562 276.645ZM295.682 283.489C295.682 283.489 295.708 283.489 295.682 283.489C295.708 283.489 295.682 283.489 295.682 283.489ZM281.284 274.642C281.284 274.718 281.284 274.769 281.309 274.845C281.309 274.769 281.309 274.718 281.284 274.642ZM281.461 276.188C281.461 276.239 281.486 276.315 281.486 276.366C281.486 276.315 281.486 276.264 281.461 276.188ZM281.284 274.439C281.284 274.363 281.284 274.312 281.284 274.262C281.284 274.312 281.284 274.363 281.284 274.439ZM303.668 289.446C303.642 289.446 303.642 289.446 303.617 289.446C303.642 289.446 303.668 289.446 303.668 289.446ZM304.023 289.472H304.048H304.023ZM303.161 289.32C303.186 289.32 303.186 289.32 303.211 289.345C303.186 289.32 303.186 289.32 303.161 289.32ZM302.73 289.142C302.704 289.142 302.679 289.117 302.654 289.117C302.679 289.117 302.704 289.142 302.73 289.142ZM302.933 289.218H302.958C302.932 289.244 302.933 289.218 302.933 289.218ZM302.375 288.99C302.4 289.015 302.451 289.015 302.476 289.041C302.451 289.015 302.426 289.015 302.375 288.99ZM302.273 288.939C302.248 288.914 302.197 288.914 302.172 288.889C302.197 288.889 302.223 288.914 302.273 288.939ZM281.258 273.831C281.258 273.882 281.258 273.958 281.258 274.008C281.258 273.932 281.258 273.882 281.258 273.831ZM337.231 276.214C337.231 276.239 337.256 276.264 337.256 276.29C337.256 276.264 337.256 276.239 337.231 276.214ZM281.132 272.741C281.157 272.766 281.208 272.791 281.233 272.817C281.258 272.842 281.284 272.842 281.309 272.868C281.258 272.791 281.208 272.766 281.132 272.741ZM283.565 273.4C283.717 273.4 283.869 273.4 284.021 273.4C283.869 273.425 283.717 273.425 283.565 273.4ZM282.576 273.273C282.703 273.298 282.855 273.324 282.982 273.349C282.855 273.324 282.703 273.298 282.576 273.273ZM281.258 273.172C281.258 273.146 281.258 273.121 281.258 273.07C281.258 273.121 281.258 273.146 281.258 273.172ZM283.083 273.349C283.21 273.375 283.337 273.375 283.489 273.4C283.337 273.4 283.21 273.375 283.083 273.349ZM295.378 252.613C295.429 252.613 295.505 252.613 295.581 252.613C295.505 252.588 295.429 252.613 295.378 252.613ZM294.998 252.613C295.049 252.613 295.074 252.613 295.125 252.613C295.074 252.613 295.049 252.613 294.998 252.613ZM279.484 271.144C279.458 271.093 279.433 271.068 279.408 271.017C279.458 271.068 279.484 271.093 279.484 271.144ZM293.984 252.562C294.009 252.562 294.035 252.562 294.06 252.562C294.06 252.562 294.009 252.562 293.984 252.562ZM294.44 252.588C294.415 252.588 294.39 252.588 294.364 252.588C294.39 252.588 294.415 252.588 294.44 252.588ZM279.864 271.651C279.839 271.625 279.813 271.6 279.813 271.575C279.813 271.6 279.839 271.625 279.864 271.651ZM279.94 271.752C279.965 271.777 279.991 271.803 280.016 271.828C279.991 271.803 279.965 271.777 279.94 271.752ZM279.611 271.296C279.585 271.27 279.585 271.245 279.56 271.22C279.56 271.245 279.585 271.27 279.611 271.296ZM279.712 271.473C279.687 271.448 279.687 271.423 279.661 271.397C279.687 271.423 279.687 271.448 279.712 271.473ZM281.765 273.045C281.993 273.146 282.272 273.222 282.551 273.273C282.272 273.197 282.019 273.121 281.765 273.045ZM280.118 271.93C280.143 271.955 280.168 271.98 280.194 272.006C280.168 271.98 280.143 271.955 280.118 271.93ZM281.689 272.994C281.613 272.969 281.537 272.918 281.461 272.893C281.512 272.918 281.588 272.969 281.689 272.994ZM280.853 272.563C280.903 272.589 280.954 272.639 281.03 272.665C280.979 272.639 280.903 272.589 280.853 272.563ZM280.295 272.132C280.32 272.158 280.371 272.208 280.422 272.234C280.371 272.183 280.346 272.158 280.295 272.132ZM280.574 272.361C280.625 272.411 280.675 272.437 280.751 272.487C280.701 272.437 280.65 272.411 280.574 272.361ZM281.258 273.4C281.258 273.451 281.258 273.476 281.258 273.527C281.258 273.501 281.258 273.451 281.258 273.4ZM340.628 299.054C340.653 298.953 340.653 298.826 340.679 298.725C340.653 298.826 340.628 298.953 340.628 299.054ZM340.476 299.941C340.501 299.84 340.501 299.764 340.527 299.662C340.501 299.739 340.501 299.84 340.476 299.941ZM328.333 285.01C328.46 284.909 328.587 284.807 328.713 284.706C328.587 284.807 328.46 284.909 328.333 285.01ZM329.525 284.123C329.423 284.199 329.322 284.25 329.22 284.326C329.322 284.275 329.423 284.199 329.525 284.123ZM340.831 297.812C340.805 297.939 340.78 298.065 340.755 298.167C340.78 298.065 340.805 297.939 340.831 297.812ZM340.932 297.305C340.958 297.178 340.983 297.051 341.008 296.925C340.983 297.051 340.958 297.178 340.932 297.305ZM342.124 293.021C342.174 292.894 342.225 292.767 342.276 292.641C342.225 292.767 342.174 292.894 342.124 293.021ZM341.312 295.556C341.338 295.429 341.388 295.302 341.414 295.176C341.388 295.302 341.363 295.429 341.312 295.556ZM341.566 294.694C341.617 294.567 341.642 294.44 341.693 294.314C341.642 294.44 341.591 294.567 341.566 294.694ZM341.11 296.418C341.135 296.291 341.16 296.164 341.211 296.037C341.186 296.164 341.135 296.291 341.11 296.418ZM329.068 284.452C328.992 284.503 328.916 284.579 328.84 284.63C328.916 284.554 328.992 284.503 329.068 284.452ZM325.164 303.44C325.164 303.389 325.164 303.338 325.164 303.313C325.164 303.364 325.164 303.389 325.164 303.44ZM325.291 301.031C325.291 300.981 325.291 300.955 325.291 300.905C325.291 300.93 325.291 300.981 325.291 301.031ZM325.393 299.384C325.393 299.358 325.393 299.308 325.393 299.282C325.393 299.308 325.393 299.358 325.393 299.384ZM325.342 300.068C325.342 300.119 325.342 300.169 325.342 300.22C325.342 300.169 325.342 300.119 325.342 300.068ZM325.443 298.547C325.443 298.572 325.443 298.623 325.443 298.648C325.443 298.623 325.443 298.572 325.443 298.547ZM325.494 297.888C325.494 297.837 325.494 297.787 325.494 297.736C325.494 297.787 325.494 297.837 325.494 297.888ZM325.215 302.476C325.215 302.527 325.215 302.578 325.215 302.628C325.215 302.552 325.215 302.527 325.215 302.476ZM325.266 301.69C325.266 301.716 325.266 301.741 325.266 301.767C325.241 301.741 325.241 301.716 325.266 301.69ZM342.605 291.855C342.555 291.981 342.479 292.108 342.428 292.235C342.504 292.083 342.555 291.981 342.605 291.855ZM325.139 304.2C325.139 304.175 325.139 304.175 325.139 304.149C325.139 304.175 325.139 304.2 325.139 304.2ZM328.156 285.213L328.181 285.188C328.156 285.188 328.156 285.188 328.156 285.213ZM336.572 274.465C336.572 274.439 336.572 274.414 336.547 274.389C336.572 274.414 336.572 274.439 336.572 274.465ZM336.825 275.301C336.851 275.326 336.851 275.377 336.876 275.403C336.851 275.377 336.851 275.326 336.825 275.301ZM336.8 275.25C336.8 275.225 336.775 275.2 336.775 275.149C336.775 275.174 336.8 275.2 336.8 275.25ZM336.724 274.997C336.724 275.022 336.749 275.048 336.749 275.098C336.724 275.048 336.724 275.022 336.724 274.997ZM336.699 274.921C336.699 274.896 336.673 274.87 336.673 274.819C336.673 274.87 336.673 274.896 336.699 274.921ZM336.902 275.453C336.927 275.504 336.927 275.529 336.952 275.58C336.927 275.555 336.902 275.504 336.902 275.453ZM337.155 276.036C337.13 276.011 337.13 275.986 337.104 275.96C337.13 275.986 337.13 276.011 337.155 276.036ZM336.623 274.667C336.623 274.693 336.648 274.718 336.648 274.743C336.648 274.743 336.623 274.718 336.623 274.667ZM336.952 275.605C336.978 275.656 337.003 275.707 337.028 275.757C337.003 275.707 336.978 275.656 336.952 275.605ZM337.18 276.087C337.18 276.112 337.206 276.138 337.206 276.163C337.206 276.138 337.18 276.112 337.18 276.087ZM337.079 275.91C337.054 275.884 337.054 275.833 337.028 275.808C337.054 275.833 337.079 275.859 337.079 275.91ZM336.521 274.084C336.521 274.11 336.521 274.16 336.521 274.186C336.521 274.16 336.521 274.135 336.521 274.084ZM341.946 293.477C341.895 293.604 341.845 293.731 341.819 293.857C341.87 293.731 341.921 293.604 341.946 293.477ZM344.126 289.269C344.202 289.168 344.278 289.066 344.38 288.965C344.278 289.066 344.202 289.168 344.126 289.269ZM344.659 288.635C344.735 288.534 344.836 288.432 344.937 288.331C344.836 288.432 344.735 288.534 344.659 288.635ZM343.214 290.689C343.29 290.562 343.34 290.46 343.416 290.334C343.34 290.46 343.264 290.562 343.214 290.689ZM343.645 289.953C343.721 289.852 343.797 289.725 343.873 289.624C343.797 289.751 343.721 289.852 343.645 289.953ZM336.597 274.617C336.597 274.591 336.572 274.566 336.572 274.541C336.597 274.566 336.597 274.591 336.597 274.617ZM345.47 288.154C345.419 288.078 345.368 288.001 345.318 287.925C345.267 287.976 345.191 288.052 345.14 288.103C345.242 288.052 345.394 288.052 345.47 288.154ZM336.547 274.312C336.547 274.287 336.547 274.262 336.547 274.236C336.547 274.262 336.547 274.287 336.547 274.312ZM325.57 297.102C325.57 297.077 325.57 297.026 325.57 297.001C325.57 297.026 325.57 297.051 325.57 297.102ZM342.808 291.449C342.859 291.322 342.935 291.221 342.986 291.094C342.935 291.196 342.859 291.322 342.808 291.449ZM327.674 285.897L327.649 285.923C327.674 285.923 327.674 285.897 327.674 285.897ZM324.936 311.501C324.936 311.552 324.936 311.577 324.936 311.628C324.936 311.577 324.936 311.526 324.936 311.501ZM324.987 309.169C324.987 309.143 324.987 309.093 324.987 309.067C324.987 309.118 324.987 309.143 324.987 309.169ZM324.962 309.955C324.962 309.929 324.962 309.904 324.962 309.879C324.962 309.879 324.962 309.904 324.962 309.955ZM324.962 310.639C324.962 310.69 324.962 310.74 324.962 310.791C324.962 310.74 324.962 310.69 324.962 310.639ZM325.621 296.342C325.621 296.316 325.621 296.316 325.621 296.291C325.621 296.316 325.621 296.316 325.621 296.342ZM325.012 308.205C325.012 308.256 325.012 308.307 325.012 308.358C325.012 308.307 325.012 308.256 325.012 308.205ZM328.004 285.39C328.004 285.39 327.978 285.416 327.978 285.441C327.978 285.416 328.004 285.39 328.004 285.39ZM325.088 305.746C325.088 305.797 325.088 305.848 325.088 305.924C325.088 305.848 325.088 305.797 325.088 305.746ZM325.063 306.608C325.063 306.634 325.063 306.684 325.063 306.71C325.063 306.684 325.063 306.659 325.063 306.608ZM325.114 304.91C325.114 304.961 325.114 305.011 325.114 305.062C325.114 305.011 325.114 304.961 325.114 304.91ZM324.911 316.115C324.911 316.165 324.911 316.216 324.911 316.267C324.911 316.216 324.911 316.165 324.911 316.115ZM324.911 316.9C324.911 316.951 324.911 316.977 324.911 317.027C324.911 316.977 324.911 316.926 324.911 316.9ZM325.012 326.103C325.012 325.976 325.012 325.874 325.012 325.748V325.773C325.012 325.95 324.86 326.052 324.708 326.001L325.012 326.103ZM324.936 312.312V312.337V312.312ZM324.911 319.131C324.911 319.106 324.911 319.055 324.911 319.03C324.911 319.055 324.911 319.081 324.911 319.131ZM324.911 317.686C324.911 317.661 324.911 317.636 324.911 317.61C324.911 317.636 324.911 317.661 324.911 317.686ZM324.911 318.421C324.911 318.371 324.911 318.345 324.911 318.295C324.911 318.345 324.911 318.371 324.911 318.421ZM324.911 313.985C324.911 313.935 324.911 313.884 324.911 313.833C324.911 313.884 324.911 313.935 324.911 313.985ZM324.911 315.379C324.911 315.405 324.911 315.456 324.911 315.481C324.911 315.456 324.911 315.405 324.911 315.379ZM324.936 313.199C324.936 313.149 324.936 313.098 324.936 313.047C324.936 313.073 324.936 313.149 324.936 313.199ZM324.911 314.72C324.911 314.695 324.911 314.67 324.911 314.67C324.911 314.695 324.911 314.72 324.911 314.72ZM325.038 307.394C325.038 307.42 325.038 307.47 325.038 307.496C325.038 307.47 325.038 307.42 325.038 307.394ZM326.178 291.601C326.178 291.576 326.178 291.55 326.178 291.525C326.178 291.55 326.178 291.576 326.178 291.601ZM326.077 292.184C326.077 292.159 326.077 292.134 326.077 292.108C326.102 292.134 326.102 292.159 326.077 292.184ZM326.28 290.993C326.28 290.967 326.28 290.917 326.305 290.891C326.28 290.917 326.28 290.942 326.28 290.993ZM326.001 292.742C326.001 292.793 326.001 292.818 325.976 292.869C326.001 292.843 326.001 292.793 326.001 292.742ZM326.381 290.283C326.381 290.308 326.381 290.334 326.356 290.359C326.381 290.359 326.381 290.334 326.381 290.283ZM327.522 286.202C327.522 286.227 327.497 286.227 327.497 286.252C327.522 286.227 327.522 286.227 327.522 286.202ZM325.773 294.795C325.773 294.846 325.773 294.871 325.748 294.922C325.773 294.871 325.773 294.846 325.773 294.795ZM325.849 294.136V294.162C325.849 294.162 325.849 294.162 325.849 294.136ZM325.925 293.452C325.925 293.477 325.925 293.528 325.925 293.553C325.925 293.502 325.925 293.477 325.925 293.452ZM325.697 295.53C325.697 295.581 325.697 295.606 325.697 295.657C325.697 295.606 325.697 295.581 325.697 295.53ZM327.218 286.962C327.218 286.962 327.218 286.937 327.243 286.937C327.243 286.937 327.218 286.937 327.218 286.962ZM326.483 289.776V289.801V289.776ZM326.838 288.255C326.838 288.23 326.838 288.23 326.838 288.255C326.838 288.23 326.838 288.23 326.838 288.255ZM326.939 287.824C326.939 287.799 326.939 287.773 326.964 287.748C326.964 287.773 326.964 287.799 326.939 287.824ZM326.736 288.686C326.736 288.711 326.711 288.737 326.711 288.762C326.711 288.737 326.711 288.711 326.736 288.686ZM326.609 289.218C326.609 289.244 326.584 289.269 326.584 289.32C326.584 289.269 326.609 289.244 326.609 289.218ZM327.37 286.557C327.37 286.582 327.37 286.582 327.345 286.607C327.37 286.582 327.37 286.582 327.37 286.557ZM327.091 287.393C327.091 287.368 327.116 287.342 327.116 287.317C327.091 287.342 327.091 287.368 327.091 287.393Z" fill="#EDEDED"/>
<path d="M303.794 247.568C303.211 250.863 302.451 253.88 301.538 255.376C300.575 256.948 299.84 257.784 299.307 258.19C299.282 259.609 299.257 260.674 299.257 260.674L299.51 273.172C299.51 273.172 299.688 283.388 299.662 283.971C299.662 283.996 299.662 283.996 299.662 284.021C299.155 284.3 298.699 284.985 297.964 284.934C297.026 284.883 295.682 284.326 295.682 283.489C295.682 283.489 295.53 283.514 295.302 283.641C295.328 283.54 295.378 283.464 295.404 283.413C295.657 282.754 295.226 280.472 295.226 280.472C295.48 279.002 293.477 271.27 293.097 270.13C292.869 269.47 292.843 267.037 293.021 264.755C290.79 267.316 284.427 272.335 284.072 273.4C281.081 273.45 279.813 271.727 279.433 270.991C279.661 270.89 279.839 270.814 279.991 270.763C281.055 270.383 284.706 267.899 286.125 264.4C287.545 260.927 289.649 259.432 292.032 257.708C293.223 256.821 293.832 255.807 294.136 254.996C294.111 254.717 294.085 254.565 294.085 254.565C294.085 254.565 293.933 253.753 293.654 252.486C295.48 252.739 297.634 252.537 299.814 251.244L299.764 249.444L299.738 248.328C299.764 248.328 301.842 248.075 303.794 247.568ZM284.883 246.072C284.883 246.072 285.162 246.148 285.061 245.363C285.061 245.363 285.796 247.264 285.923 245.819C285.923 245.819 287.038 247.162 286.861 245.819C286.861 245.819 288.077 247.365 288.356 246.478C288.635 245.565 287.216 244.729 287.089 242.954C287.089 242.954 289.041 243.715 289.142 242.498C289.142 242.498 286.911 241.129 286.709 240.673C286.531 240.217 285.973 240.394 285.821 238.341C285.669 236.313 287.469 234.209 287.216 228.429C287.216 228.429 286.911 225.59 286.987 224.829C287.013 224.474 287.469 223.232 288.077 221.888C287.013 221.964 285.289 221.964 284.021 221.457C283.312 223.283 282.729 224.652 282.475 224.956C281.613 225.894 283.667 238.417 283.667 238.417C283.667 238.417 283.464 244.957 284.883 246.072ZM299.257 205.943C299.257 205.918 299.257 205.867 299.257 205.842C299.257 205.74 299.231 205.664 299.206 205.563C299.206 205.538 299.206 205.512 299.181 205.487C299.155 205.386 299.13 205.259 299.105 205.132C299.105 205.107 299.105 205.081 299.105 205.081C299.029 204.803 298.953 204.473 298.826 204.118C298.547 204.245 298.319 204.397 298.141 204.498C298.065 204.093 297.964 203.662 297.863 203.256C296.215 202.293 294.871 200.696 294.187 199.809C294.314 201.203 294.592 204.498 294.339 205.639C294.542 205.69 294.719 205.766 294.744 205.918C294.795 206.171 297.533 208.149 298.724 207.566C298.75 207.566 298.75 207.54 298.775 207.54C298.775 207.54 298.8 207.54 298.8 207.515C298.851 207.49 298.876 207.464 298.927 207.414C298.953 207.388 299.003 207.338 299.029 207.287L299.054 207.261C299.079 207.211 299.105 207.16 299.13 207.109V207.084C299.155 207.033 299.181 206.957 299.181 206.881C299.181 206.856 299.181 206.831 299.206 206.831C299.206 206.78 299.231 206.704 299.231 206.653C299.231 206.628 299.231 206.602 299.231 206.577C299.231 206.501 299.231 206.4 299.231 206.324C299.231 206.298 299.231 206.273 299.231 206.247C299.282 206.095 299.257 206.019 299.257 205.943ZM302.121 221.66C303.11 221.508 303.946 221.432 304.504 221.381C303.946 221.432 303.11 221.534 302.121 221.66ZM318.903 235.932C317.94 235.527 314.948 232.358 314.948 232.358C317.483 232.814 317.762 231.243 317.23 231.395C316.698 231.547 313.377 230.71 313.377 230.71C313.377 230.71 309.853 225.818 309.498 224.322C309.219 223.105 305.468 218.263 304.048 216.489C304.073 216.59 304.377 218.897 304.758 221.356C304.783 221.458 304.783 221.584 304.808 221.686C304.808 221.762 304.834 221.838 304.834 221.939C304.859 222.193 304.91 222.421 304.935 222.674C304.935 222.75 304.961 222.826 304.961 222.902C305.037 223.46 305.138 223.992 305.214 224.499C305.239 224.601 305.239 224.702 305.265 224.804C305.341 225.26 305.417 225.666 305.468 226.046C307.926 228.682 310.842 231.927 310.842 232.383C310.842 233.169 313.782 236.389 313.782 236.389C313.782 236.389 315.43 238.772 315.912 238.645C316.393 238.518 315.608 237.276 315.608 237.276C315.608 237.276 316.419 238.112 316.976 238.239C317.534 238.391 316.292 236.642 316.292 236.642C316.292 236.642 317.762 237.479 318.244 237.479C318.751 237.504 317.661 236.211 317.661 236.211C319.106 236.693 319.841 236.338 318.903 235.932ZM336.014 281.131V282.374L341.439 283.261C341.363 282.957 341.287 282.652 341.236 282.348C343.695 282.652 346.078 282.576 346.712 281.841C347.168 281.334 347.194 280.067 347.016 278.596C346.712 278.546 346.458 278.115 346.205 278.444C345.825 278.926 345.343 278.419 345.546 277.126C345.647 276.492 346.129 276.264 346.611 276.188C346.078 273.628 345.318 271.22 345.318 271.22C345.444 272.31 342.555 272.994 341.034 273.602C339.513 274.211 340.577 277.582 340.577 277.582H339.766L339.741 276.391C339.741 276.391 340.172 275.098 337.713 273.831C335.279 272.588 337.51 276.644 337.51 276.644C336.927 278.723 335.026 277.785 333.378 277.76C333.936 278.799 334.468 279.661 334.721 280.168C334.823 280.523 335.304 280.853 336.014 281.131ZM325.063 328.206L325.367 333.783C324.227 333.023 322.858 331.755 322.655 330.767C322.401 329.398 323.213 326.964 323.694 325.621L325.012 326.102C325.038 327.421 325.063 328.206 325.063 328.206ZM303.211 194.232C302.78 194.637 301.944 195.043 300.372 194.764C300.372 194.764 298.724 196.006 296.265 195.195C296.265 195.195 296.316 196.336 295.15 196.716C293.984 197.121 295.251 199.2 295.251 199.2C295.251 199.2 294.668 199.606 293.984 198.288C293.299 196.969 293.071 197.299 292.97 197.35C292.919 197.375 292.59 196.944 292.362 196.386C291.981 196.336 291.626 196.513 291.576 197.299C291.474 199.099 293.68 199.124 293.68 199.124C293.68 199.124 296.772 203.839 300.245 204.067C303.592 204.27 304.149 200.062 303.82 195.955C303.718 195.246 303.465 194.612 303.211 194.232Z" fill="#FFD2BB" stroke="#F8C09C" stroke-miterlimit="10"/>
<path d="M347.092 329.17L344.507 384.255C344.507 384.255 342.529 386.765 339.589 384.914C339.589 384.914 335.659 335.938 334.899 335.076C334.138 334.214 332.82 377.715 332.719 377.385C332.617 377.056 329.651 380.985 327.801 378.577L325.063 328.181L325.139 329.677C330.767 330.64 339.487 331.477 347.067 329.753L347.092 329.17Z" fill="#00CEC9"/>
<path d="M426.615 154.838V174.56L238.62 65.8593V46.2384L386.055 131.389V144.546C386.055 145.255 386.435 145.889 387.044 146.244L400.2 153.849C401.519 154.61 403.141 153.672 403.141 152.151V141.276L405.22 142.467V156.004C405.22 156.714 405.6 157.347 406.208 157.702L419.365 165.307C420.683 166.068 422.306 165.13 422.306 163.609V152.353L426.615 154.838ZM323.06 202.039V213.143C323.06 213.929 323.491 214.664 324.176 215.044L347.853 228.708C349.323 229.57 351.174 228.505 351.174 226.806V215.703C351.174 214.917 350.743 214.182 350.058 213.802L326.381 200.138C324.911 199.276 323.06 200.341 323.06 202.039ZM346.687 316.571C346.763 322.198 346.788 326.914 346.788 328.713C344.887 326.102 343.011 323.314 341.718 320.399C339.006 314.34 339.538 307.369 340.374 300.803C340.958 296.164 342.073 291.018 345.318 287.951C345.419 288.077 345.495 288.204 345.571 288.331L345.85 288.001C344.76 286.1 341.895 285.137 341.895 285.137C341.895 285.137 341.667 284.25 341.439 283.286L336.014 282.399V283.717C336.014 283.717 332.82 281.208 328.359 285.035C323.872 288.863 325.088 328.206 325.088 328.206L325.164 329.702C330.792 330.665 339.513 331.502 347.092 329.778L347.118 329.195C347.118 329.195 347.092 323.745 347.016 316.799C346.889 316.723 346.788 316.647 346.687 316.571ZM362.429 303.693C360.604 306.887 355.204 315.861 351.376 317.205C346.687 318.852 344.38 313.808 344.608 313.275C344.836 312.718 344.583 289.548 344.583 289.548L345.901 287.9C346.129 288.001 352.34 290.739 351.706 306.912L356.598 302.147L360.832 304.58L362.429 303.693Z" fill="#B4B4B4"/>
<path d="M221.559 194.333L122.339 251.624L177.475 283.464L276.695 226.173L221.559 194.333ZM132.479 249.951L218.694 200.189L266.581 227.846L180.365 277.608L132.479 249.951ZM290.891 227.187C290.891 227.035 290.891 226.857 290.891 226.705C290.891 226.578 290.891 226.451 290.891 226.325C290.891 226.198 290.891 226.071 290.891 225.944C293.857 222.522 302.375 221.559 304.732 221.356C304.758 221.458 304.758 221.584 304.783 221.686C304.783 221.762 304.808 221.838 304.808 221.939C304.834 222.193 304.884 222.421 304.91 222.674C304.91 222.75 304.935 222.826 304.935 222.902C305.011 223.46 305.113 223.993 305.189 224.5C305.214 224.601 305.214 224.702 305.239 224.804C305.341 225.463 305.442 226.071 305.544 226.528C305.544 226.553 305.544 226.604 305.569 226.629C305.62 226.958 305.696 227.212 305.721 227.339C306.076 228.556 307.039 231.927 307.115 231.927C307.191 231.927 305.417 234.64 299.764 236.034C294.111 237.428 289.725 234.538 289.725 234.538C289.725 234.538 290.993 229.57 290.891 227.187ZM307.521 213.041C307.521 213.041 306.481 215.526 304.048 216.464L303.541 213.219C298.141 211.85 290.384 217.909 290.384 217.909C290.384 217.909 289.066 221.204 289.091 221.787C289.091 221.787 283.337 222.649 282.5 220.013C282.5 220.013 284.934 213.7 285.086 213.117C285.238 212.534 286.379 209.315 286.734 209.137C287.089 208.96 293.553 205.563 293.553 205.563C293.553 205.563 294.668 205.462 294.744 205.867C294.795 206.273 301.107 210.608 298.775 203.915C298.775 203.915 298.877 203.89 299.105 203.814C299.485 203.941 299.89 204.042 300.296 204.067C301.386 204.143 302.197 203.713 302.755 203.003C303.085 202.927 304.707 202.851 304.682 207.312C304.631 210.506 307.521 213.041 307.521 213.041ZM304.149 193.446C304.859 195.246 303.946 198.465 303.972 197.071C303.997 196.006 303.592 194.865 303.211 194.257C302.78 194.663 301.944 195.068 300.372 194.789C300.372 194.789 298.724 196.031 296.265 195.22C296.265 195.22 296.316 196.361 295.15 196.741C293.984 197.147 295.251 199.226 295.251 199.226C295.251 199.226 294.668 199.631 293.984 198.313C293.299 196.995 293.071 197.324 292.97 197.375C292.894 197.4 291.753 195.905 292.311 194.688C292.311 194.688 291.424 193.268 292.463 191.95C293.528 190.632 294.516 191.063 294.516 191.063C294.516 191.063 295.657 188.426 298.04 189.694C298.04 189.694 296.392 186.728 300.321 184.599C304.225 182.469 305.417 186.677 305.417 186.677C305.417 186.677 307.546 191.519 304.149 193.446Z" fill="#0096DB"/>
<path d="M332.769 376.321C332.744 377.031 332.719 377.436 332.693 377.385C332.592 377.056 329.626 380.985 327.776 378.577V378.552C327.547 380.478 327.269 382.988 327.319 383.241C327.395 383.647 328.79 384.23 331.096 383.824C333.403 383.419 336.344 378.323 336.749 377.183C337.054 376.321 334.29 376.27 332.769 376.321ZM351.579 387.652C348.968 390.77 340.172 389.858 339.614 389.63C339.107 389.427 339.462 386.03 339.589 384.838C339.589 384.889 339.589 384.914 339.589 384.914C342.529 386.765 344.507 384.255 344.507 384.255V384.129C344.709 384.306 344.861 384.458 344.861 384.458C344.861 384.458 354.216 384.534 351.579 387.652ZM337.434 276.771C337.459 276.721 337.434 276.645 337.409 276.594C337.104 276.011 335.431 272.741 337.662 273.881C339.893 275.022 339.741 276.214 339.69 276.391C339.69 276.416 339.69 276.416 339.69 276.442L339.715 277.38C339.715 277.506 339.817 277.608 339.944 277.608H340.222C340.374 277.608 340.476 277.456 340.451 277.329C340.248 276.492 339.766 274.135 341.008 273.628C342.479 273.045 345.267 272.36 345.292 271.321C345.292 271.27 345.292 271.22 345.318 271.194C345.622 270.738 347.523 267.519 344.557 265.034C341.591 262.525 338.22 264.984 337.738 265.338C337.687 265.364 337.662 265.389 337.611 265.389C336.952 265.389 332.262 265.592 331.502 269.04C330.665 272.741 330.513 272.994 331.198 274.667C331.882 276.34 331.73 277.811 333.353 277.811C334.95 277.811 336.825 278.723 337.434 276.771ZM347.498 278.216C346.965 279.205 346.56 277.963 346.18 278.444C345.799 278.926 345.318 278.419 345.521 277.126C345.698 276.036 346.965 276.163 347.371 276.214C347.447 276.239 347.523 276.29 347.549 276.366C347.675 276.67 347.903 277.456 347.498 278.216Z" fill="#0984E3"/>
</svg>
