<svg width="28" height="28" viewBox="0 0 28 28" fill="none" xmlns="http://www.w3.org/2000/svg">
<path d="M22.4875 8.1375L16.3625 2.0125C16.1875 1.8375 16.0125 1.75 15.75 1.75H7C6.0375 1.75 5.25 2.5375 5.25 3.5V24.5C5.25 25.4625 6.0375 26.25 7 26.25H21C21.9625 26.25 22.75 25.4625 22.75 24.5V8.75C22.75 8.4875 22.6625 8.3125 22.4875 8.1375ZM15.75 3.85L20.65 8.75H15.75V3.85ZM21 24.5H7V3.5H14V8.75C14 9.7125 14.7875 10.5 15.75 10.5H21V24.5Z" fill="white"/>
<path d="M8.75 19.25H19.25V21H8.75V19.25Z" fill="white"/>
<path d="M8.75 14H19.25V15.75H8.75V14Z" fill="white"/>
</svg>
