<svg width="28" height="28" viewBox="0 0 28 28" fill="none" xmlns="http://www.w3.org/2000/svg">
<path d="M23.3333 2.33334H10.8889V6.22223H12.4444V3.8889H23.3333C23.8 3.8889 24.1111 4.20001 24.1111 4.66668V13.2222C24.1111 13.6889 23.8 14 23.3333 14H13.2222V19.4445H9.09999L6.22221 21.7V19.4445H3.88888C3.42221 19.4445 3.1111 19.1333 3.1111 18.6667V10.1111C3.1111 9.64445 3.42221 9.33334 3.88888 9.33334H14V7.77779H3.88888C2.56665 7.77779 1.55554 8.7889 1.55554 10.1111V18.6667C1.55554 19.9889 2.56665 21 3.88888 21H4.66665V24.9667L9.56665 21H14.7778V15.5556H23.3333C24.6555 15.5556 25.6667 14.5445 25.6667 13.2222V4.66668C25.6667 3.34445 24.6555 2.33334 23.3333 2.33334Z" fill="white"/>
<path d="M4.82227 17.8111H6.68893L7.1556 16.5667H9.56671L10.0334 17.8111H11.9L9.2556 10.8889H7.38893L4.82227 17.8111ZM8.32227 12.8333L9.10004 15.2444H7.54449L8.32227 12.8333Z" fill="white"/>
<path d="M15.5555 13.2222C16.4111 13.2222 17.5778 12.9889 18.6667 12.4444C19.7555 12.9889 21 13.2222 21.7778 13.2222V11.6667C21.7778 11.6667 21 11.6667 20.1444 11.3555C21.0778 10.4222 21.7778 9.02221 21.7778 6.99999V6.22221H19.4444V4.66666H17.8889V6.22221H15.5555V7.77777H20.1444C19.9889 9.17777 19.3667 10.0333 18.6667 10.5778C18.2 10.1889 17.7333 9.64443 17.4222 8.94443H15.7889C16.1 9.95554 16.5667 10.7333 17.1889 11.3555C16.4111 11.6667 15.7111 11.6667 15.5555 11.6667V13.2222Z" fill="white"/>
</svg>
