<svg width="24" height="24" viewBox="0 0 24 24" fill="none" xmlns="http://www.w3.org/2000/svg">
<path d="M12.0002 4.27999C12.177 4.27999 12.3465 4.20975 12.4716 4.08473C12.5966 3.95971 12.6668 3.79014 12.6668 3.61333V1.27333C12.6668 1.09651 12.5966 0.926945 12.4716 0.801921C12.3465 0.676897 12.177 0.606659 12.0002 0.606659C11.8234 0.606659 11.6538 0.676897 11.5288 0.801921C11.4037 0.926945 11.3335 1.09651 11.3335 1.27333V3.61333C11.3335 3.79014 11.4037 3.95971 11.5288 4.08473C11.6538 4.20975 11.8234 4.27999 12.0002 4.27999Z" fill="#0096DB"/>
<path d="M12.0002 19.72C11.8234 19.72 11.6538 19.7902 11.5288 19.9153C11.4037 20.0403 11.3335 20.2099 11.3335 20.3867V22.7267C11.3335 22.9035 11.4037 23.073 11.5288 23.1981C11.6538 23.3231 11.8234 23.3933 12.0002 23.3933C12.177 23.3933 12.3465 23.3231 12.4716 23.1981C12.5966 23.073 12.6668 22.9035 12.6668 22.7267V20.3867C12.6668 20.2099 12.5966 20.0403 12.4716 19.9153C12.3465 19.7902 12.177 19.72 12.0002 19.72Z" fill="#0096DB"/>
<path d="M5.60026 6.53998C5.72779 6.6492 5.89184 6.70627 6.05963 6.69979C6.22741 6.69331 6.38657 6.62376 6.5053 6.50503C6.62403 6.3863 6.69359 6.22714 6.70007 6.05935C6.70655 5.89157 6.64948 5.72752 6.54026 5.59998L4.88693 3.94665C4.75939 3.83743 4.59534 3.78036 4.42756 3.78684C4.25977 3.79332 4.10061 3.86288 3.98188 3.98161C3.86315 4.10034 3.7936 4.2595 3.78712 4.42728C3.78064 4.59507 3.83771 4.75912 3.94693 4.88665L5.60026 6.53998Z" fill="#0096DB"/>
<path d="M18.4001 17.46C18.2726 17.3508 18.1085 17.2937 17.9407 17.3002C17.773 17.3067 17.6138 17.3762 17.4951 17.4949C17.3763 17.6137 17.3068 17.7728 17.3003 17.9406C17.2938 18.1084 17.3509 18.2725 17.4601 18.4L19.1134 20.0533C19.241 20.1625 19.405 20.2196 19.5728 20.2131C19.7406 20.2066 19.8998 20.1371 20.0185 20.0184C20.1372 19.8996 20.2068 19.7405 20.2133 19.5727C20.2197 19.4049 20.1627 19.2409 20.0534 19.1133L18.4001 17.46Z" fill="#0096DB"/>
<path d="M4.28027 12C4.28027 11.8232 4.21003 11.6536 4.085 11.5286C3.95998 11.4036 3.79041 11.3333 3.6136 11.3333H1.2736C1.09679 11.3333 0.92722 11.4036 0.802196 11.5286C0.677171 11.6536 0.606934 11.8232 0.606934 12C0.606934 12.1768 0.677171 12.3464 0.802196 12.4714C0.92722 12.5964 1.09679 12.6667 1.2736 12.6667H3.6136C3.79041 12.6667 3.95998 12.5964 4.085 12.4714C4.21003 12.3464 4.28027 12.1768 4.28027 12Z" fill="#0096DB"/>
<path d="M22.7269 11.3333H20.3869C20.2101 11.3333 20.0405 11.4036 19.9155 11.5286C19.7905 11.6536 19.7202 11.8232 19.7202 12C19.7202 12.1768 19.7905 12.3464 19.9155 12.4714C20.0405 12.5964 20.2101 12.6667 20.3869 12.6667H22.7269C22.9037 12.6667 23.0733 12.5964 23.1983 12.4714C23.3233 12.3464 23.3935 12.1768 23.3935 12C23.3935 11.8232 23.3233 11.6536 23.1983 11.5286C23.0733 11.4036 22.9037 11.3333 22.7269 11.3333Z" fill="#0096DB"/>
<path d="M5.60026 17.46L3.94693 19.1133C3.83771 19.2409 3.78064 19.4049 3.78712 19.5727C3.7936 19.7405 3.86315 19.8996 3.98188 20.0184C4.10061 20.1371 4.25977 20.2066 4.42756 20.2131C4.59534 20.2196 4.75939 20.1625 4.88693 20.0533L6.54026 18.4C6.64948 18.2725 6.70655 18.1084 6.70007 17.9406C6.69359 17.7728 6.62403 17.6137 6.5053 17.4949C6.38657 17.3762 6.22741 17.3067 6.05963 17.3002C5.89184 17.2937 5.72779 17.3508 5.60026 17.46Z" fill="#0096DB"/>
<path d="M18.4001 6.53998L20.0534 4.88665C20.1627 4.75912 20.2197 4.59507 20.2133 4.42728C20.2068 4.2595 20.1372 4.10034 20.0185 3.98161C19.8998 3.86288 19.7406 3.79332 19.5728 3.78684C19.405 3.78036 19.241 3.83743 19.1134 3.94665L17.4601 5.59998C17.3509 5.72752 17.2938 5.89157 17.3003 6.05935C17.3068 6.22714 17.3763 6.3863 17.4951 6.50503C17.6138 6.62376 17.773 6.69331 17.9407 6.69979C18.1085 6.70627 18.2726 6.6492 18.4001 6.53998Z" fill="#0096DB"/>
<path d="M12.0002 18.6667C15.6821 18.6667 18.6668 15.6819 18.6668 12C18.6668 8.31811 15.6821 5.33334 12.0002 5.33334C8.31826 5.33334 5.3335 8.31811 5.3335 12C5.3335 15.6819 8.31826 18.6667 12.0002 18.6667Z" fill="#0096DB"/>
</svg>
