<svg width="28" height="31" viewBox="0 0 28 31" fill="none" xmlns="http://www.w3.org/2000/svg">
<path d="M27.0537 0H0.0537109V16.7989C0.556037 25.3888 9.35271 29.8454 13.6883 31C24.0936 28.1598 26.9341 20.0605 27.0537 16.3659V0Z" fill="#0096DB"/>
<path d="M20.8229 16.2906C20.8229 14.8721 19.9773 13.6062 18.7108 12.9905C18.6714 15.7101 16.38 17.9151 13.5537 17.9529C14.1936 19.1716 15.5092 19.9853 16.9832 19.9853C17.6744 19.9853 18.3465 19.8082 18.937 19.4717L20.8062 19.9692L20.2891 18.1706C20.6389 17.6023 20.8229 16.9556 20.8229 16.2906Z" fill="white"/>
<path d="M17.7075 11.4916C17.7075 8.46104 15.1454 5.99561 11.996 5.99561C8.84656 5.99561 6.28442 8.46104 6.28442 11.4916C6.28442 12.4792 6.55763 13.4409 7.07643 14.2851L6.30542 16.9672L9.09283 16.2254C9.9702 16.7247 10.9696 16.9875 11.996 16.9875C15.1454 16.9875 17.7075 14.5221 17.7075 11.4916ZM11.1195 10.2125H10.2431C10.2431 9.28234 11.0294 8.52572 11.996 8.52572C12.9626 8.52572 13.7489 9.28234 13.7489 10.2125C13.7489 10.6846 13.5412 11.1383 13.1788 11.4572L12.4342 12.113V12.7707H11.5577V11.7416L12.5871 10.835C12.7711 10.673 12.8724 10.452 12.8724 10.2125C12.8724 9.7474 12.4793 9.36909 11.996 9.36909C11.5127 9.36909 11.1195 9.7474 11.1195 10.2125ZM11.5577 13.6141H12.4342V14.4574H11.5577V13.6141Z" fill="white"/>
</svg>
