<svg width="28" height="28" viewBox="0 0 28 28" fill="none" xmlns="http://www.w3.org/2000/svg">
<path d="M24.5 3.5L16.9166 24.5C16.8654 24.6117 16.7833 24.7064 16.6799 24.7727C16.5764 24.8391 16.4562 24.8743 16.3333 24.8743C16.2104 24.8743 16.0901 24.8391 15.9867 24.7727C15.8833 24.7064 15.8011 24.6117 15.75 24.5L11.6666 16.3333L3.49996 12.25C3.38826 12.1988 3.29361 12.1166 3.22725 12.0132C3.16089 11.9098 3.12561 11.7895 3.12561 11.6667C3.12561 11.5438 3.16089 11.4235 3.22725 11.3201C3.29361 11.2167 3.38826 11.1345 3.49996 11.0833L24.5 3.5Z" stroke="white" stroke-width="2" stroke-linecap="round" stroke-linejoin="round"/>
</svg>
