<svg width="28" height="22" viewBox="0 0 28 22" fill="none" xmlns="http://www.w3.org/2000/svg">
<path d="M27.4695 7.43438C27.6828 7.26484 28 7.42344 28 7.69141V18.875C28 20.3242 26.8242 21.5 25.375 21.5H2.625C1.17578 21.5 0 20.3242 0 18.875V7.69688C0 7.42344 0.311719 7.27031 0.530469 7.43984C1.75547 8.39141 3.37969 9.6 8.95781 13.6523C10.1117 14.4945 12.0586 16.2664 14 16.2555C15.9523 16.2719 17.9375 14.4617 19.0477 13.6523C24.6258 9.6 26.2445 8.38594 27.4695 7.43438ZM14 14.5C15.2688 14.5219 17.0953 12.9031 18.0141 12.2359C25.2711 6.96953 25.8234 6.51016 27.4969 5.19766C27.8141 4.95156 28 4.56875 28 4.16406V3.125C28 1.67578 26.8242 0.5 25.375 0.5H2.625C1.17578 0.5 0 1.67578 0 3.125V4.16406C0 4.56875 0.185937 4.94609 0.503125 5.19766C2.17656 6.50469 2.72891 6.96953 9.98594 12.2359C10.9047 12.9031 12.7312 14.5219 14 14.5Z" fill="#0096DB"/>
</svg>
