<svg width="27" height="26" viewBox="0 0 27 26" fill="none" xmlns="http://www.w3.org/2000/svg">
<path d="M8.1321 7.29557V7.29315C8.1321 5.24744 8.62874 3.61353 9.58394 2.3525C10.5172 1.12048 11.8023 0.5 13.5 0.5C15.1977 0.5 16.4828 1.12048 17.4161 2.3525C18.3713 3.61353 18.8679 5.24744 18.8679 7.29315L18.8679 7.29557C18.8801 9.82123 18.0795 11.773 16.5001 13.2106L16.5 13.2105L16.4924 13.2178C16.137 13.5552 16.0227 13.9995 16.1161 14.4707L16.1282 14.5318L16.1549 14.588L16.5942 15.513C16.7732 15.905 17.0436 16.2221 17.4032 16.4499C17.7307 16.6573 18.3597 16.9222 19.2346 17.2419L19.2345 17.2421L19.2469 17.2462C19.2879 17.26 20.1004 17.5257 21.6767 18.0407C22.4657 18.2985 23.0687 18.4978 23.4867 18.6389C23.6959 18.7095 23.8569 18.765 23.971 18.8055C24.0539 18.835 24.0987 18.8521 24.1181 18.8595C24.1292 18.8638 24.1319 18.8648 24.1285 18.8631L24.144 18.8709L24.1599 18.8776C25.1809 19.3068 25.7629 19.7175 26.0234 20.0728C26.1589 20.4085 26.282 21.0403 26.3676 22.0244C26.4463 22.9283 26.4903 24.0857 26.4986 25.5H0.501432C0.509697 24.0857 0.553706 22.9283 0.632351 22.0244C0.717969 21.0403 0.841143 20.4085 0.976646 20.0728C1.23709 19.7175 1.81907 19.3068 2.84006 18.8776L2.85602 18.8709L2.87149 18.8631C2.86811 18.8648 2.87079 18.8638 2.88193 18.8595C2.90126 18.8521 2.94607 18.835 3.02898 18.8055C3.14308 18.765 3.30413 18.7095 3.51334 18.6389C3.93129 18.4978 4.53431 18.2985 5.32326 18.0407C6.89963 17.5257 7.71206 17.26 7.75312 17.2462L7.75317 17.2464L7.7654 17.2419C8.64028 16.9222 9.26934 16.6573 9.59675 16.4499C9.95636 16.2221 10.2268 15.905 10.4058 15.513L10.8451 14.588L10.8718 14.5318L10.8839 14.4707C10.9773 13.9995 10.863 13.5552 10.5076 13.2178L10.5077 13.2177L10.4999 13.2106C8.92051 11.773 8.11988 9.82123 8.1321 7.29557ZM16.8366 13.5804C18.5369 12.0327 19.3807 9.937 19.3679 7.29315L16.6065 14.3735C16.5426 14.0511 16.6193 13.7867 16.8366 13.5804Z" stroke="#0096DB"/>
</svg>
