<svg width="27" height="31" viewBox="0 0 27 31" fill="none" xmlns="http://www.w3.org/2000/svg">
<path d="M27 0H0V16.7989C0.502326 25.3888 9.299 29.8454 13.6346 31C24.0399 28.1598 26.8804 20.0605 27 16.3659V0Z" fill="#0096DB"/>
<path d="M14.5756 20.9846C15.3055 20.9846 15.8973 20.4152 15.8973 19.7128C15.8973 19.0104 15.3055 18.441 14.5756 18.441C13.8456 18.441 13.2539 19.0104 13.2539 19.7128C13.2539 20.4152 13.8456 20.9846 14.5756 20.9846Z" fill="white"/>
<path d="M14.5756 6.99487C12.2435 6.99487 10.3462 8.82056 10.3462 11.0646C10.3462 11.6265 10.8196 12.0821 11.4035 12.0821C11.9875 12.0821 12.4609 11.6265 12.4609 11.0646C12.4609 9.94259 13.4095 9.02974 14.5756 9.02974C15.7416 9.02974 16.6902 9.94259 16.6902 11.0646C16.6902 12.1866 15.7416 13.0995 14.5756 13.0995C13.9916 13.0995 13.5182 13.555 13.5182 14.1169V16.6605C13.5182 17.2224 13.9916 17.6779 14.5756 17.6779C15.1595 17.6779 15.6329 17.2224 15.6329 16.6605V15.0056C17.455 14.5527 18.8049 12.9575 18.8049 11.0646C18.8049 8.82056 16.9076 6.99487 14.5756 6.99487Z" fill="white"/>
</svg>
