<svg width="28" height="28" viewBox="0 0 28 28" fill="none" xmlns="http://www.w3.org/2000/svg">
<path d="M14.6715 27.125C10.9761 27.125 7.50865 25.6927 4.90793 23.0921C2.30721 20.4915 0.875 17.0238 0.875 13.3283C0.874449 10.779 1.58033 8.2794 2.91429 6.10694C4.24825 3.93448 6.15811 2.17415 8.43188 1.02134C8.66581 0.902094 8.92968 0.854389 9.19055 0.884182C9.45143 0.913976 9.69775 1.01995 9.89876 1.18887C10.0998 1.35779 10.2466 1.58218 10.3209 1.83403C10.3951 2.08587 10.3936 2.35401 10.3164 2.60498C9.66758 4.70072 9.60381 6.93393 10.132 9.06328C10.6602 11.1926 11.7602 13.1371 13.3133 14.6867C14.4278 15.8095 15.754 16.7001 17.215 17.3069C18.676 17.9137 20.2429 18.2247 21.825 18.2219C23.0352 18.2228 24.2387 18.0413 25.3948 17.6834C25.6458 17.6062 25.914 17.6046 26.1658 17.6789C26.4177 17.7531 26.6421 17.8999 26.8111 18.101C26.98 18.302 27.086 18.5484 27.1158 18.8093C27.1455 19.0702 27.0978 19.3341 26.9785 19.568C25.8257 21.8418 24.0654 23.7517 21.8929 25.0856C19.7204 26.4196 17.2208 27.1255 14.6715 27.125ZM8.38414 3.05052C6.62095 4.12332 5.16445 5.63299 4.15554 7.4335C3.14663 9.23401 2.61945 11.2644 2.625 13.3283C2.625 19.9708 8.029 25.375 14.6715 25.375C16.7354 25.3806 18.7658 24.8534 20.5664 23.8445C22.3669 22.8356 23.8766 21.3791 24.9494 19.6159C23.9249 19.853 22.8767 19.9725 21.8251 19.972C20.0131 19.9755 18.2185 19.6195 16.5451 18.9247C14.8717 18.2299 13.3527 17.2101 12.076 15.9243C10.4176 14.269 9.20827 12.2183 8.56231 9.96586C7.91635 7.71344 7.85503 5.33355 8.38414 3.05085V3.05052Z" fill="#0096DB"/>
</svg>
