<svg width="28" height="28" viewBox="0 0 28 28" fill="none" xmlns="http://www.w3.org/2000/svg">
<path d="M11.0833 18.0833L5.83329 23.3333L2.91663 20.4167L4.15329 19.18L5.83329 20.86L9.84663 16.8467L11.0833 18.0833ZM11.6666 5.83335V8.16668H24.5V5.83335H11.6666ZM11.6666 22.1667H24.5V19.8333H11.6666V22.1667ZM11.6666 15.1667H24.5V12.8333H11.6666V15.1667ZM9.84663 9.84668L5.83329 13.86L4.15329 12.18L2.91663 13.4167L5.83329 16.3333L11.0833 11.0833L9.84663 9.84668ZM9.84663 2.84668L5.83329 6.86001L4.15329 5.18001L2.91663 6.41668L5.83329 9.33335L11.0833 4.08335L9.84663 2.84668Z" fill="white"/>
</svg>
