<svg width="22" height="20" viewBox="0 0 22 20" fill="none" xmlns="http://www.w3.org/2000/svg">
<path d="M21.5276 4.56415V5.23993C21.5276 5.32954 21.4914 5.41548 21.427 5.47885C21.3626 5.54222 21.2753 5.57782 21.1842 5.57782H20.154V6.08465C20.154 6.36455 19.9234 6.59149 19.6389 6.59149H2.81251C2.52805 6.59149 2.29741 6.36455 2.29741 6.08465V5.57782H1.26722C1.17615 5.57782 1.08881 5.54222 1.02441 5.47885C0.960007 5.41548 0.923828 5.32954 0.923828 5.23993V4.56415C0.923829 4.4973 0.94398 4.43196 0.981733 4.37638C1.01949 4.32081 1.07314 4.2775 1.13592 4.25194L11.0944 0.535152C11.1785 0.500897 11.2729 0.500897 11.357 0.535152L21.3155 4.25194C21.3783 4.2775 21.4319 4.32081 21.4697 4.37638C21.5075 4.43196 21.5276 4.4973 21.5276 4.56415ZM20.4974 17.404H1.95402C1.38505 17.404 0.923828 17.8578 0.923828 18.4176V19.0934C0.923828 19.183 0.960007 19.269 1.02441 19.3323C1.08881 19.3957 1.17615 19.4313 1.26722 19.4313H21.1842C21.2753 19.4313 21.3626 19.3957 21.427 19.3323C21.4914 19.269 21.5276 19.183 21.5276 19.0934V18.4176C21.5276 17.8578 21.0664 17.404 20.4974 17.404ZM4.35779 7.26727V15.3766H2.81251C2.52805 15.3766 2.29741 15.6036 2.29741 15.8835V16.7282H20.154V15.8835C20.154 15.6036 19.9234 15.3766 19.6389 15.3766H18.0936V7.26727H15.3465V15.3766H12.5993V7.26727H9.85213V15.3766H7.10496V7.26727H4.35779Z" fill="#0096DB"/>
</svg>
