<svg width="28" height="21" viewBox="0 0 28 21" fill="none" xmlns="http://www.w3.org/2000/svg">
<path d="M13.8171 1.4329C14.5256 1.4329 15.2182 1.64299 15.8073 2.03662C16.3964 2.43024 16.8556 2.98971 17.1267 3.64428C17.3978 4.29885 17.4688 5.01912 17.3306 5.714C17.1923 6.40889 16.8512 7.04719 16.3502 7.54817C15.8492 8.04916 15.2109 8.39034 14.516 8.52856C13.8211 8.66678 13.1009 8.59584 12.4463 8.32471C11.7917 8.05357 11.2322 7.59443 10.8386 7.00533C10.445 6.41623 10.2349 5.72364 10.2349 5.01514C10.2349 4.06507 10.6123 3.15391 11.2841 2.48211C11.9559 1.81031 12.8671 1.4329 13.8171 1.4329ZM13.8171 0C12.8252 0 11.8556 0.294133 11.0309 0.845204C10.2061 1.39628 9.56334 2.17953 9.18376 3.09593C8.80417 4.01233 8.70486 5.02071 8.89837 5.99355C9.09188 6.96639 9.56953 7.86 10.2709 8.56138C10.9723 9.26276 11.8659 9.74041 12.8387 9.93392C13.8116 10.1274 14.82 10.0281 15.7364 9.64853C16.6528 9.26895 17.436 8.62614 17.9871 7.80141C18.5382 6.97667 18.8323 6.00704 18.8323 5.01514C18.8323 3.68504 18.3039 2.40942 17.3634 1.4689C16.4229 0.52838 15.1472 0 13.8171 0Z" fill="white"/>
<path d="M20.9816 20.0606H19.5487V16.4783C19.5487 15.5283 19.1713 14.6171 18.4995 13.9453C17.8277 13.2735 16.9165 12.8961 15.9664 12.8961H11.6677C10.7177 12.8961 9.8065 13.2735 9.1347 13.9453C8.4629 14.6171 8.08549 15.5283 8.08549 16.4783V20.0606H6.65259V16.4783C6.65259 15.1482 7.18097 13.8726 8.12149 12.9321C9.06201 11.9916 10.3376 11.4632 11.6677 11.4632H15.9664C17.2965 11.4632 18.5721 11.9916 19.5127 12.9321C20.4532 13.8726 20.9816 15.1482 20.9816 16.4783V20.0606Z" fill="white"/>
<path d="M23.9792 1.82768C24.3768 1.82768 24.7655 1.94559 25.0961 2.1665C25.4267 2.38741 25.6844 2.7014 25.8366 3.06876C25.9887 3.43612 26.0286 3.84035 25.951 4.23034C25.8734 4.62033 25.6819 4.97855 25.4008 5.25972C25.1196 5.54088 24.7614 5.73236 24.3714 5.80993C23.9814 5.88751 23.5772 5.84769 23.2098 5.69553C22.8424 5.54336 22.5285 5.28568 22.3076 4.95506C22.0866 4.62445 21.9687 4.23575 21.9687 3.83812C21.9687 3.30492 22.1805 2.79355 22.5576 2.41652C22.9346 2.03949 23.446 1.82768 23.9792 1.82768ZM23.9792 1.0235C23.4225 1.0235 22.8783 1.18857 22.4155 1.49785C21.9526 1.80712 21.5918 2.24671 21.3788 2.76101C21.1658 3.27532 21.11 3.84124 21.2186 4.38723C21.3272 4.93321 21.5953 5.43473 21.9889 5.82836C22.3826 6.22199 22.8841 6.49006 23.4301 6.59866C23.9761 6.70726 24.542 6.65152 25.0563 6.43849C25.5706 6.22546 26.0102 5.8647 26.3194 5.40184C26.6287 4.93898 26.7938 4.3948 26.7938 3.83812C26.7938 3.09164 26.4973 2.37573 25.9694 1.84788C25.4416 1.32004 24.7257 1.0235 23.9792 1.0235Z" fill="white"/>
<path d="M28 12.282H27.1959V10.2715C27.1959 9.73833 26.984 9.22696 26.607 8.84993C26.23 8.4729 25.7186 8.26109 25.1854 8.26109H22.7729C22.2397 8.26109 21.7283 8.4729 21.3513 8.84993C20.9742 9.22696 20.7624 9.73833 20.7624 10.2715V12.282H19.9583V10.2715C19.9583 9.52505 20.2548 8.80914 20.7826 8.28129C21.3105 7.75345 22.0264 7.45691 22.7729 7.45691H25.1854C25.9319 7.45691 26.6478 7.75345 27.1756 8.28129C27.7035 8.80914 28 9.52505 28 10.2715V12.282Z" fill="white"/>
<path d="M4.02092 1.31596C4.41855 1.31596 4.80725 1.43387 5.13786 1.65478C5.46848 1.87569 5.72616 2.18968 5.87833 2.55704C6.0305 2.9244 6.07031 3.32863 5.99274 3.71862C5.91516 4.10861 5.72369 4.46683 5.44252 4.748C5.16135 5.02917 4.80313 5.22064 4.41314 5.29821C4.02315 5.37579 3.61892 5.33597 3.25156 5.18381C2.8842 5.03164 2.57021 4.77396 2.3493 4.44334C2.12839 4.11273 2.01048 3.72403 2.01048 3.3264C2.01048 2.7932 2.22229 2.28183 2.59932 1.9048C2.97635 1.52777 3.48772 1.31596 4.02092 1.31596ZM4.02092 0.51178C3.46424 0.51178 2.92006 0.676854 2.4572 0.986129C1.99434 1.2954 1.63358 1.73499 1.42055 2.24929C1.20752 2.7636 1.15178 3.32952 1.26038 3.87551C1.36899 4.42149 1.63705 4.92301 2.03068 5.31664C2.42432 5.71027 2.92583 5.97834 3.47182 6.08694C4.0178 6.19554 4.58373 6.1398 5.09803 5.92677C5.61234 5.71374 6.05192 5.35298 6.36119 4.89012C6.67047 4.42726 6.83554 3.88308 6.83554 3.3264C6.83554 2.57992 6.539 1.86401 6.01116 1.33616C5.48331 0.808319 4.76741 0.51178 4.02092 0.51178Z" fill="white"/>
<path d="M8.04178 11.7703H7.2376V9.75981C7.2376 9.22661 7.02578 8.71524 6.64875 8.33821C6.27172 7.96118 5.76036 7.74937 5.22715 7.74937H2.81462C2.28142 7.74937 1.77005 7.96118 1.39302 8.33821C1.01599 8.71524 0.804178 9.22661 0.804178 9.75981V11.7703H0V9.75981C0 9.01333 0.29654 8.29742 0.824383 7.76957C1.35223 7.24173 2.06814 6.94519 2.81462 6.94519H5.22715C5.97364 6.94519 6.68955 7.24173 7.21739 7.76957C7.74524 8.29742 8.04178 9.01333 8.04178 9.75981V11.7703Z" fill="white"/>
</svg>
