<svg width="22" height="22" viewBox="0 0 22 22" fill="none" xmlns="http://www.w3.org/2000/svg">
<g clip-path="url(#clip0)">
<path d="M18.1579 0.77356H2.70504C1.64266 0.77356 0.773438 1.64278 0.773438 2.70516V19.4457C0.773438 20.5081 1.64266 21.3773 2.70504 21.3773H18.1579C19.2203 21.3773 20.0895 20.5081 20.0895 19.4457V2.70516C20.0895 1.64278 19.2203 0.77356 18.1579 0.77356ZM17.514 18.8019H3.34891V3.34903H17.514V18.8019ZM5.92438 12.3632H14.9385V13.6509H5.92438V12.3632ZM5.92438 14.9387H14.9385V16.2264H5.92438V14.9387ZM7.21212 6.56837C7.2122 6.31462 7.26226 6.06338 7.35945 5.82898C7.45663 5.59458 7.59903 5.38162 7.77851 5.20225C7.958 5.02289 8.17106 4.88063 8.40552 4.7836C8.63998 4.68658 8.89126 4.63668 9.14501 4.63677C9.39875 4.63685 9.65 4.68691 9.8844 4.7841C10.1188 4.88128 10.3318 5.02368 10.5111 5.20316C10.6905 5.38265 10.8327 5.59571 10.9298 5.83017C11.0268 6.06463 11.0767 6.31591 11.0766 6.56966C11.0764 7.08212 10.8727 7.57353 10.5102 7.93578C10.1477 8.29802 9.65618 8.50143 9.14372 8.50126C8.63126 8.50109 8.13985 8.29735 7.7776 7.93486C7.41536 7.57238 7.21195 7.08083 7.21212 6.56837ZM10.4315 8.49997H7.85598C6.7936 8.49997 5.92438 9.07946 5.92438 9.78771V11.0754H12.3631V9.78771C12.3631 9.07946 11.4938 8.49997 10.4315 8.49997Z" fill="white"/>
</g>
<defs>
<clipPath id="clip0">
<rect width="20.6038" height="20.6038" fill="white" transform="translate(0.773438 0.77356)"/>
</clipPath>
</defs>
</svg>
