<svg width="21" height="28" viewBox="0 0 21 28" fill="none" xmlns="http://www.w3.org/2000/svg">
<path d="M10.9419 15.7756L10.9507 15.7346C11.1205 15.0348 11.3341 14.1622 11.1673 13.3716C11.0561 12.7479 10.5966 12.5048 10.2044 12.4873C9.74199 12.4668 9.32933 12.7303 9.2269 13.1139C9.03374 13.8167 9.20641 14.7771 9.52249 16.0011C9.12447 16.9498 8.48938 18.329 8.02404 19.1489C7.15774 19.5969 5.99585 20.2879 5.82318 21.1605C5.78806 21.3216 5.82903 21.5265 5.92561 21.711C6.0339 21.916 6.20657 22.0741 6.40851 22.1502C6.49631 22.1825 6.60167 22.2088 6.7246 22.2088C7.23969 22.2088 8.07379 21.793 9.18593 19.8838C9.35567 19.8282 9.53127 19.7696 9.70102 19.7111C10.4971 19.4417 11.3224 19.1606 12.0687 19.0347C12.894 19.4768 13.8335 19.7609 14.4715 19.7609C15.1037 19.7609 15.3524 19.3861 15.4461 19.1606C15.61 18.7653 15.531 18.2675 15.2646 18.001C14.8783 17.6204 13.9388 17.5208 12.4755 17.7024C11.7555 17.2631 11.2843 16.6658 10.9419 15.7756ZM7.73137 20.2235C7.32456 20.815 7.01726 21.1107 6.85044 21.2396C7.04653 20.8794 7.42992 20.4988 7.73137 20.2235ZM10.2951 13.3277C10.4473 13.5883 10.4268 14.3759 10.3098 14.7742C10.1664 14.1915 10.1459 13.3657 10.2307 13.2691C10.2542 13.272 10.2746 13.2896 10.2951 13.3277ZM10.2483 16.8561C10.5615 17.3978 10.9566 17.8634 11.3926 18.2089C10.7605 18.3524 10.1839 18.5896 9.66883 18.8004C9.54591 18.8502 9.42591 18.9 9.30885 18.9468C9.69809 18.2411 10.023 17.4417 10.2483 16.8561ZM14.8022 18.7741C14.8051 18.7799 14.8081 18.7887 14.7905 18.8004H14.7846L14.7788 18.8092C14.7554 18.8238 14.5154 18.9644 13.4823 18.5574C14.6705 18.5017 14.7993 18.7711 14.8022 18.7741ZM20.4039 7.40688L14.1057 1.10545C13.9301 0.929758 13.693 0.8302 13.4442 0.8302H1.01173C0.493709 0.8302 0.0751953 1.24893 0.0751953 1.76722V26.1296C0.0751953 26.6479 0.493709 27.0667 1.01173 27.0667H19.7424C20.2605 27.0667 20.679 26.6479 20.679 26.1296V8.07158C20.679 7.82268 20.5795 7.58257 20.4039 7.40688ZM18.5191 8.50202H13.0111V2.99119L18.5191 8.50202ZM18.5718 24.9584H2.1824V2.93849H11.0209V9.26335C11.0209 9.58952 11.1505 9.90233 11.381 10.133C11.6115 10.3636 11.9241 10.4932 12.2502 10.4932H18.5718V24.9584Z" fill="#0096DB"/>
</svg>
