<svg width="24" height="23" viewBox="0 0 24 23" fill="none" xmlns="http://www.w3.org/2000/svg">
<path d="M4.59871 21.8922C4.4312 22.0378 4.22561 22.1327 4.00608 22.1656C3.78655 22.1985 3.56219 22.1681 3.35934 22.0779C3.1565 21.9878 2.98358 21.8416 2.86089 21.6566C2.7382 21.4716 2.67084 21.2555 2.66671 21.0335V18.4167C2.04787 18.4167 1.45438 18.1709 1.01679 17.7333C0.579207 17.2957 0.333374 16.7022 0.333374 16.0834V7.91669C0.333374 7.29785 0.579207 6.70436 1.01679 6.26677C1.45438 5.82919 2.04787 5.58335 2.66671 5.58335H15.5C16.1189 5.58335 16.7124 5.82919 17.15 6.26677C17.5875 6.70436 17.8334 7.29785 17.8334 7.91669V16.0834C17.8334 16.7022 17.5875 17.2957 17.15 17.7333C16.7124 18.1709 16.1189 18.4167 15.5 18.4167H9.67021L4.59871 21.8922ZM5.58337 18.2837C5.68968 18.2831 5.79408 18.2554 5.88671 18.2032L8.63421 16.2922C8.82974 16.1562 9.06221 16.0833 9.30037 16.0834H14.3334C14.6428 16.0834 14.9395 15.9604 15.1583 15.7416C15.3771 15.5229 15.5 15.2261 15.5 14.9167V9.08335C15.5 8.77393 15.3771 8.47719 15.1583 8.2584C14.9395 8.0396 14.6428 7.91669 14.3334 7.91669H3.83337C3.52396 7.91669 3.22721 8.0396 3.00842 8.2584C2.78962 8.47719 2.66671 8.77393 2.66671 9.08335V14.9167C2.66671 15.5467 3.16721 16.0624 3.83337 16.0834C4.31171 16.102 4.65821 16.1802 4.81804 16.347C4.96737 16.5034 4.97554 16.767 5.00004 17.2687C5.00354 17.3422 5.00354 17.4752 5.00004 17.7004C5.00004 17.8551 5.0615 18.0034 5.1709 18.1128C5.28029 18.2222 5.42866 18.2837 5.58337 18.2837ZM19 12.602C18.9963 12.7459 18.9963 12.8898 19 13.0337V12.602C19.0234 12.1004 19.0327 11.8367 19.182 11.6804C19.3419 11.5135 19.6884 11.4354 20.1667 11.4167C20.8329 11.3957 21.3334 10.88 21.3334 10.25V4.41669C21.3334 4.10727 21.2105 3.81052 20.9917 3.59173C20.7729 3.37294 20.4761 3.25002 20.1667 3.25002H9.66671C9.35729 3.25002 9.06054 3.37294 8.84175 3.59173C8.62296 3.81052 8.50004 4.10727 8.50004 4.41669H6.16671V3.25002C6.16671 2.63118 6.41254 2.03769 6.85013 1.6001C7.28771 1.16252 7.8812 0.916687 8.50004 0.916687H21.3334C21.9522 0.916687 22.5457 1.16252 22.9833 1.6001C23.4209 2.03769 23.6667 2.63118 23.6667 3.25002V11.4167C23.6667 12.0355 23.4209 12.629 22.9833 13.0666C22.5457 13.5042 21.9522 13.75 21.3334 13.75V16.3669C21.3292 16.5888 21.2619 16.805 21.1392 16.99C21.0165 17.1749 20.8436 17.3211 20.6407 17.4113C20.4379 17.5014 20.2135 17.5318 19.994 17.4989C19.7745 17.466 19.5689 17.3712 19.4014 17.2255L19 16.9502V12.6032V12.602Z" fill="white"/>
</svg>
