<svg width="28" height="31" viewBox="0 0 28 31" fill="none" xmlns="http://www.w3.org/2000/svg">
<path d="M27.0537 0H0.0537109V16.7989C0.556037 25.3888 9.35271 29.8454 13.6883 31C24.0936 28.1598 26.9341 20.0605 27.0537 16.3659V0Z" fill="#0096DB"/>
<path d="M14.0728 12.6864C14.9813 12.6864 15.768 12.3567 16.4108 11.7062C17.0536 11.0559 17.3795 10.2602 17.3795 9.34087C17.3795 8.4219 17.0536 7.62606 16.4107 6.97551C15.7678 6.32528 14.9812 5.99561 14.0728 5.99561C13.1642 5.99561 12.3777 6.32528 11.7349 6.97562C11.0921 7.62596 10.7661 8.42179 10.7661 9.34087C10.7661 10.2602 11.0921 11.056 11.735 11.7063C12.3779 12.3566 13.1645 12.6864 14.0728 12.6864Z" fill="white"/>
<path d="M19.7567 16.7231C19.7382 16.448 19.7008 16.1479 19.6458 15.831C19.5902 15.5117 19.5187 15.2099 19.433 14.9341C19.3445 14.6489 19.2242 14.3673 19.0754 14.0975C18.921 13.8174 18.7397 13.5736 18.5362 13.3729C18.3234 13.1629 18.0629 12.9942 17.7616 12.871C17.4614 12.7486 17.1287 12.6865 16.7728 12.6865C16.6331 12.6865 16.4979 12.7456 16.2369 12.9209C16.0762 13.0289 15.8883 13.1539 15.6785 13.2921C15.4992 13.4099 15.2562 13.5204 14.9561 13.6203C14.6633 13.718 14.366 13.7676 14.0726 13.7676C13.7791 13.7676 13.4819 13.718 13.1888 13.6203C12.889 13.5205 12.6461 13.4101 12.4669 13.2922C12.2591 13.1553 12.0711 13.0303 11.908 12.9208C11.6473 12.7455 11.512 12.6864 11.3723 12.6864C11.0163 12.6864 10.6837 12.7486 10.3836 12.8711C10.0825 12.994 9.82188 13.1628 9.60889 13.373C9.40551 13.5738 9.22406 13.8176 9.06988 14.0975C8.92123 14.3673 8.80089 14.6488 8.71231 14.9342C8.62676 15.21 8.55521 15.5117 8.49963 15.831C8.44458 16.1475 8.40719 16.4477 8.3887 16.7235C8.37052 16.9936 8.36133 17.274 8.36133 17.5572C8.36133 18.2942 8.58853 18.8909 9.03656 19.3309C9.47905 19.7651 10.0645 19.9854 10.7765 19.9854H17.3692C18.0812 19.9854 18.6665 19.7652 19.1091 19.3309C19.5572 18.8912 19.7844 18.2944 19.7844 17.5571C19.7843 17.2726 19.775 16.992 19.7567 16.7231Z" fill="white"/>
</svg>
