<svg width="27" height="31" viewBox="0 0 27 31" fill="none" xmlns="http://www.w3.org/2000/svg">
<path d="M27 0H0V16.7989C0.502326 25.3888 9.299 29.8454 13.6346 31C24.0399 28.1598 26.8804 20.0605 27 16.3659V0Z" fill="#0096DB"/>
<path d="M14.0989 10.6195C13.1787 10.6195 12.5244 10.9934 12.5244 11.5443V19.0409C12.5244 19.5131 13.1788 19.9853 14.0989 19.9853C14.9782 19.9853 15.6938 19.5131 15.6938 19.0409V11.5443C15.6938 10.9934 14.9782 10.6195 14.0989 10.6195Z" fill="white"/>
<path d="M14.0998 5.99561C13.1592 5.99561 12.4231 6.64491 12.4231 7.3926C12.4231 8.14029 13.1592 8.8093 14.0998 8.8093C15.02 8.8093 15.7562 8.14029 15.7562 7.3926C15.7562 6.64498 15.02 5.99561 14.0998 5.99561Z" fill="white"/>
</svg>
