<svg width="30" height="30" viewBox="0 0 30 30" fill="none" xmlns="http://www.w3.org/2000/svg">
<path d="M0.71875 10.4374C0.25 11.8749 0 13.4062 0 14.9999C0 16.5937 0.25 18.1249 0.71875 19.5624L15 20.2187L29.2812 19.5624C29.75 18.1249 30 16.5937 30 14.9999C30 13.4062 29.75 11.8749 29.2812 10.4374L15 9.78119L0.71875 10.4374Z" fill="#F0F0F0"/>
<path d="M29.2812 10.4374L15 9.78119L0.71875 10.4374C0.59375 10.8749 0.46875 11.3124 0.375 11.7499H29.6562C29.5312 11.2812 29.4375 10.8749 29.2812 10.4374Z" fill="#D80027"/>
<path d="M0.34375 18.25C0.4375 18.6875 0.5625 19.125 0.6875 19.5625L15 20.2188L29.2812 19.5625C29.4062 19.125 29.5313 18.6875 29.625 18.25H0.34375Z" fill="#D80027"/>
<path d="M15.0002 30C21.6877 30 27.3752 25.625 29.2815 19.5625H0.718994C2.62524 25.625 8.31274 30 15.0002 30Z" fill="#6DA544"/>
<path d="M15.0002 0C8.31274 0 2.62524 4.375 0.718994 10.4375H29.3127C27.3752 4.375 21.6877 0 15.0002 0Z" fill="#338AF3"/>
<path d="M6.84375 6.1875C6.84375 4.78125 7.84375 3.59375 9.15625 3.3125C8.96875 3.28125 8.75 3.25 8.53125 3.25C6.90625 3.25 5.59375 4.5625 5.59375 6.1875C5.59375 7.8125 6.90625 9.125 8.53125 9.125C8.75 9.125 8.96875 9.09375 9.15625 9.0625C7.84375 8.78125 6.84375 7.59375 6.84375 6.1875Z" fill="#F0F0F0"/>
<path d="M10.9065 7.53131L11.094 8.15631H11.7502L11.219 8.53131L11.4065 9.12506L10.9065 8.75006L10.3752 9.12506L10.5627 8.53131L10.0627 8.15631H10.6877L10.9065 7.53131Z" fill="#F0F0F0"/>
<path d="M12.938 7.53131L13.1567 8.15631H13.7817L13.2817 8.53131L13.4692 9.12506L12.938 8.75006L12.438 9.12506L12.6255 8.53131L12.0942 8.15631H12.7505L12.938 7.53131Z" fill="#F0F0F0"/>
<path d="M15 7.53131L15.1875 8.15631H15.8437L15.3125 8.53131L15.5312 9.12506L15 8.75006L14.4687 9.12506L14.6875 8.53131L14.1562 8.15631H14.8125L15 7.53131Z" fill="#F0F0F0"/>
<path d="M17.0623 7.53131L17.2498 8.15631H17.906L17.3748 8.53131L17.5623 9.12506L17.0623 8.75006L16.531 9.12506L16.7185 8.53131L16.2185 8.15631H16.8435L17.0623 7.53131Z" fill="#F0F0F0"/>
<path d="M19.0937 7.53131L19.3125 8.15631H19.9375L19.4375 8.53131L19.625 9.12506L19.0937 8.75006L18.5937 9.12506L18.7812 8.53131L18.25 8.15631H18.9062L19.0937 7.53131Z" fill="#F0F0F0"/>
<path d="M12.938 5.40619L13.1567 5.99994H13.7817L13.2817 6.37494L13.4692 6.99994L12.938 6.62494L12.438 6.99994L12.6255 6.37494L12.0942 5.99994H12.7505L12.938 5.40619Z" fill="#F0F0F0"/>
<path d="M15 5.40619L15.1875 5.99994H15.8437L15.3125 6.37494L15.5312 6.99994L15 6.62494L14.4687 6.99994L14.6875 6.37494L14.1562 5.99994H14.8125L15 5.40619Z" fill="#F0F0F0"/>
<path d="M17.0623 5.40619L17.2498 5.99994H17.906L17.3748 6.37494L17.5623 6.99994L17.0623 6.62494L16.531 6.99994L16.7185 6.37494L16.2185 5.99994H16.8435L17.0623 5.40619Z" fill="#F0F0F0"/>
<path d="M19.0937 5.40619L19.3125 5.99994H19.9375L19.4375 6.37494L19.625 6.99994L19.0937 6.62494L18.5937 6.99994L18.7812 6.37494L18.25 5.99994H18.9062L19.0937 5.40619Z" fill="#F0F0F0"/>
<path d="M15 3.25L15.1875 3.875H15.8437L15.3125 4.25L15.5312 4.875L15 4.46875L14.4687 4.875L14.6875 4.25L14.1562 3.875H14.8125L15 3.25Z" fill="#F0F0F0"/>
<path d="M17.0623 3.25L17.2498 3.875H17.906L17.3748 4.25L17.5623 4.875L17.0623 4.46875L16.531 4.875L16.7185 4.25L16.2185 3.875H16.8435L17.0623 3.25Z" fill="#F0F0F0"/>
<path d="M19.0937 3.25L19.3125 3.875H19.9375L19.4375 4.25L19.625 4.875L19.0937 4.46875L18.5937 4.875L18.7812 4.25L18.25 3.875H18.9062L19.0937 3.25Z" fill="#F0F0F0"/>
</svg>
